<svg width="232" height="221" viewBox="0 0 232 221" fill="none" xmlns="http://www.w3.org/2000/svg">
<g id="leaf-js">
<g id="Vector" filter="url(#filter0_d_3_14)">
<path d="M4 109.047C7.96067 107.009 7.96067 107.009 11.5975 107.932C12.6325 107.492 13.6674 107.051 14.7337 106.598C15.3897 107.367 16.0457 108.135 16.7215 108.928C17.5378 108.231 18.3541 107.535 19.1951 106.817C19.6324 107.33 20.0697 107.842 20.5203 108.37C23.4196 107.339 26.2646 106.279 29.1042 105.072C29.5416 105.584 29.9789 106.097 30.4295 106.625C31.5178 105.696 32.6062 104.767 33.7275 103.811C34.1648 104.323 34.6022 104.836 35.0527 105.364C35.7737 104.693 36.4946 104.023 37.2373 103.332C39.9998 101.143 39.9998 101.143 42.0007 100.657C45.7931 99.5358 48.9864 97.4526 52.3576 95.3788C53.0655 94.9483 53.7735 94.5177 54.5028 94.0742C59.6625 90.9107 64.644 87.5723 69.5355 83.9925C70.1914 84.7613 70.8474 85.5301 71.5233 86.3222C73.1558 84.9292 74.7884 83.5363 76.4704 82.1011C76.9077 82.6136 77.345 83.1261 77.7956 83.6542C80.7352 81.5888 83.6747 79.5234 86.7034 77.3955C87.1407 77.908 87.578 78.4205 88.0286 78.9486C89.8798 77.8119 91.731 76.6751 93.6383 75.504C94.0756 76.0165 94.5129 76.529 94.9635 77.0571C96.4892 76.641 98.0149 76.2248 99.5868 75.7961C100.024 76.3086 100.461 76.8212 100.912 77.3492C102.157 76.5357 102.157 76.5357 103.428 75.7057C106.225 74.0773 108.022 73.0529 111.145 72.6436C113.074 73.2344 115.003 73.8251 116.932 74.4159C118.147 74.0843 118.147 74.0843 119.388 73.746C121.555 73.1549 121.555 73.1549 123.581 74.2774C124.059 74.6999 124.537 75.1223 125.03 75.5576C125.846 74.8611 126.662 74.1646 127.503 73.447C129.452 73.9797 131.383 74.5718 133.29 75.2192C134.053 75.0112 134.816 74.8031 135.602 74.5887C136.039 75.1013 136.476 75.6138 136.927 76.1418C138.479 75.4815 138.479 75.4815 140.063 74.8078C140.938 75.8329 141.812 76.8579 142.713 77.9141C143.802 76.9854 144.89 76.0568 146.011 75.1C146.694 75.4864 147.376 75.8729 148.079 76.271C151.24 77.6959 154.117 78.1283 157.585 78.6444C159.018 79.2108 160.451 79.7772 161.884 80.3436C162.647 80.1355 163.41 79.9275 164.196 79.7131C165.508 81.2507 166.82 82.7883 168.171 84.3725C169.206 83.9322 170.241 83.492 171.308 83.0384C172.8 83.9412 174.284 84.8607 175.706 85.8643C177.836 87.2207 180.021 88.1463 182.37 89.1154C186.163 90.7551 188.487 92.458 190.832 95.9016C191.376 95.4373 191.921 94.973 192.481 94.4946C193.574 95.7759 194.668 97.0572 195.794 98.3774C196.338 97.913 196.883 97.4487 197.443 96.9703C198.004 97.464 198.565 97.9576 199.143 98.4662C203.827 102.425 207.379 105.099 213.655 105.951C214.418 105.743 215.18 105.535 215.966 105.32C216.622 106.089 217.278 106.858 217.954 107.65C218.77 106.953 219.587 106.257 220.428 105.539C222.668 107.614 224.908 109.688 227.216 111.825C226.672 112.289 226.127 112.753 225.567 113.232C219.306 112.574 219.306 112.574 217.63 110.61C217.086 111.074 216.542 111.539 215.981 112.017C215.394 111.467 214.807 110.916 214.202 110.349C213.034 109.601 213.034 109.601 211.844 108.838C210.294 109.218 208.753 109.643 207.221 110.099C205.287 109.522 203.357 108.932 201.434 108.327C200.399 108.767 199.364 109.207 198.298 109.661C192.953 108.406 192.953 108.406 191.186 106.335C190.539 106.557 189.892 106.778 189.226 107.006C186.152 107.687 183.97 107.417 180.933 106.948C176.604 106.249 176.604 106.249 172.354 107.642C168.771 107.561 165.236 107.302 161.675 107.025C158.838 106.797 158.838 106.797 155.834 108.319C155.396 107.807 154.959 107.294 154.509 106.766C153.702 107.095 152.895 107.423 152.063 107.762C149.061 108.731 149.061 108.731 146.789 108.573C143.859 108.491 142.285 109.634 139.814 111.253C140.742 111.789 141.67 112.326 142.627 112.879C144.638 112.077 144.638 112.077 146.587 110.841C148.14 110.181 148.14 110.181 149.723 109.507C150.379 110.276 151.035 111.045 151.711 111.837C154 111.213 154 111.213 156.334 110.576C156.772 111.088 157.209 111.601 157.66 112.129C158.33 111.778 159.001 111.428 159.692 111.066C163.984 109.933 167.211 110.517 171.462 111.13C174.652 111.508 177.721 111.261 180.953 111.041C181.39 111.553 181.828 112.066 182.278 112.594C183.238 112.273 183.238 112.273 184.218 111.945C187.294 111.243 189.783 111.268 192.85 111.625C193.287 112.138 193.725 112.65 194.175 113.178C195.21 112.738 196.245 112.298 197.311 111.844C200.017 112.192 202.717 112.572 205.41 112.986C206.172 112.778 206.935 112.57 207.721 112.355C209.935 113.906 209.935 113.906 211.859 115.535C208.733 117.454 205.989 118.73 202.45 119.537C202.013 119.024 201.576 118.512 201.125 117.984C200.321 118.589 199.516 119.194 198.688 119.817C197.645 120.594 196.602 121.372 195.527 122.173C193.969 123.339 193.969 123.339 192.379 124.529C189.744 126.353 189.744 126.353 188.257 126.28C186.883 127.149 185.54 128.069 184.214 129.011C183.016 129.858 183.016 129.858 181.793 130.723C180.537 131.62 180.537 131.62 179.256 132.534C177.991 133.43 177.991 133.43 176.701 134.344C174.612 135.825 172.526 137.31 170.441 138.797C169.785 138.029 169.129 137.26 168.453 136.468C167.81 137.048 167.166 137.628 166.503 138.226C153.547 149.632 153.547 149.632 146.515 152.503C145.067 151.97 143.633 151.405 142.216 150.804C139.452 152.036 137.408 153.809 134.957 155.655C134.52 155.143 134.082 154.63 133.632 154.102C132.816 154.799 131.999 155.495 131.158 156.213C129.958 155.908 128.758 155.604 127.521 155.29C125.041 155.806 125.041 155.806 122.898 156.551C122.461 156.039 122.023 155.526 121.573 154.998C121.063 155.322 120.554 155.646 120.029 155.98C111.564 159.677 98.5836 158.382 90.0195 156.424C89.3635 155.656 88.7075 154.887 88.0316 154.095C86.7246 154.767 85.4176 155.44 84.071 156.132C82.7056 155.083 81.3402 154.034 79.9334 152.953C79.3892 153.417 78.845 153.882 78.2844 154.36C73.4555 153.383 69.0557 151.833 64.5614 149.966C63.5043 149.623 62.4472 149.279 61.358 148.925C57.2391 147.012 54.4469 144.322 51.3242 141.132C50.78 141.596 50.2358 142.06 49.6752 142.539C48.3632 141.001 47.0512 139.464 45.6995 137.879C44.8832 138.576 44.067 139.272 43.226 139.99C41.6953 138.196 40.1647 136.402 38.5877 134.554C38.0435 135.018 37.4993 135.483 36.9387 135.961C32.5317 133.654 29.3298 130.972 25.9119 127.421C25.0251 126.507 24.1384 125.593 23.2248 124.651C22.5608 123.954 21.8969 123.258 21.2129 122.541C20.6687 123.005 20.1245 123.469 19.5639 123.948C17.1586 121.129 14.7533 118.31 12.2751 115.405C11.731 115.87 11.1868 116.334 10.6261 116.812C8.43949 114.25 6.25288 111.687 4 109.047Z" fill="#358274"/>
</g>
<path id="JavaScript" d="M72.898 125.329C73.3967 125.182 73.8443 124.915 74.241 124.53C74.6377 124.156 74.9267 123.691 75.108 123.136C75.2553 122.705 75.3517 122.207 75.397 121.64C75.4423 121.062 75.465 120.178 75.465 118.988V111.44L73.833 111.219V110.369H78.831V111.219L77.284 111.44V118.325V119.124C77.284 120.019 77.2727 120.739 77.25 121.283C77.2273 121.827 77.1763 122.292 77.097 122.677C76.893 123.584 76.4453 124.332 75.754 124.921C75.0627 125.51 74.2637 125.884 73.357 126.043L72.898 125.329ZM80.2396 120.45C80.2396 119.385 80.7723 118.603 81.8376 118.104C82.9029 117.594 84.2516 117.322 85.8836 117.288V116.812C85.8836 116.279 85.8269 115.86 85.7136 115.554C85.6003 115.248 85.4019 115.027 85.1186 114.891C84.8466 114.744 84.4556 114.67 83.9456 114.67C83.3676 114.67 82.8463 114.755 82.3816 114.925C81.9283 115.084 81.4749 115.282 81.0216 115.52L80.5966 114.636C80.7439 114.511 81.0159 114.347 81.4126 114.143C81.8093 113.939 82.2683 113.758 82.7896 113.599C83.3109 113.44 83.8323 113.361 84.3536 113.361C85.1583 113.361 85.7929 113.474 86.2576 113.701C86.7336 113.916 87.0736 114.268 87.2776 114.755C87.4816 115.242 87.5836 115.894 87.5836 116.71V122.167H88.5866V122.915C88.3599 122.972 88.0709 123.028 87.7196 123.085C87.3796 123.142 87.0793 123.17 86.8186 123.17C86.5013 123.17 86.2859 123.119 86.1726 123.017C86.0593 122.926 86.0026 122.717 86.0026 122.388V121.827C85.6626 122.167 85.2433 122.479 84.7446 122.762C84.2573 123.045 83.7019 123.187 83.0786 123.187C82.2626 123.187 81.5826 122.955 81.0386 122.49C80.5059 122.014 80.2396 121.334 80.2396 120.45ZM83.8096 122.031C84.1043 122.031 84.4443 121.94 84.8296 121.759C85.2149 121.578 85.5663 121.362 85.8836 121.113V118.189C84.6483 118.189 83.7133 118.382 83.0786 118.767C82.4553 119.141 82.1436 119.634 82.1436 120.246C82.1436 120.858 82.2909 121.311 82.5856 121.606C82.8916 121.889 83.2996 122.031 83.8096 122.031ZM88.9869 113.565H92.9309V114.364L91.7239 114.585L93.4409 119.481L94.1549 121.64L94.7669 119.549L96.4839 114.585L95.3279 114.364V113.565H98.7789V114.364L97.8949 114.585L94.6139 123.136H93.1689L89.7519 114.585L88.9869 114.364V113.565ZM99.431 120.45C99.431 119.385 99.9637 118.603 101.029 118.104C102.094 117.594 103.443 117.322 105.075 117.288V116.812C105.075 116.279 105.018 115.86 104.905 115.554C104.792 115.248 104.593 115.027 104.31 114.891C104.038 114.744 103.647 114.67 103.137 114.67C102.559 114.67 102.038 114.755 101.573 114.925C101.12 115.084 100.666 115.282 100.213 115.52L99.788 114.636C99.9353 114.511 100.207 114.347 100.604 114.143C101.001 113.939 101.46 113.758 101.981 113.599C102.502 113.44 103.024 113.361 103.545 113.361C104.35 113.361 104.984 113.474 105.449 113.701C105.925 113.916 106.265 114.268 106.469 114.755C106.673 115.242 106.775 115.894 106.775 116.71V122.167H107.778V122.915C107.551 122.972 107.262 123.028 106.911 123.085C106.571 123.142 106.271 123.17 106.01 123.17C105.693 123.17 105.477 123.119 105.364 123.017C105.251 122.926 105.194 122.717 105.194 122.388V121.827C104.854 122.167 104.435 122.479 103.936 122.762C103.449 123.045 102.893 123.187 102.27 123.187C101.454 123.187 100.774 122.955 100.23 122.49C99.6973 122.014 99.431 121.334 99.431 120.45ZM103.001 122.031C103.296 122.031 103.636 121.94 104.021 121.759C104.406 121.578 104.758 121.362 105.075 121.113V118.189C103.84 118.189 102.905 118.382 102.27 118.767C101.647 119.141 101.335 119.634 101.335 120.246C101.335 120.858 101.482 121.311 101.777 121.606C102.083 121.889 102.491 122.031 103.001 122.031ZM113.125 123.187C112.536 123.187 112.009 123.136 111.544 123.034C111.08 122.932 110.57 122.796 110.014 122.626C109.674 122.501 109.419 122.433 109.249 122.422L109.385 119.345H110.473L110.762 121.555C110.955 121.736 111.267 121.901 111.697 122.048C112.139 122.184 112.621 122.252 113.142 122.252C114.004 122.252 114.655 122.059 115.097 121.674C115.551 121.289 115.777 120.756 115.777 120.076C115.777 119.634 115.653 119.254 115.403 118.937C115.165 118.62 114.842 118.348 114.434 118.121C114.038 117.894 113.488 117.628 112.785 117.322C112.151 117.039 111.595 116.75 111.119 116.455C110.655 116.16 110.247 115.769 109.895 115.282C109.555 114.783 109.385 114.188 109.385 113.497C109.385 112.874 109.55 112.318 109.878 111.831C110.218 111.332 110.7 110.941 111.323 110.658C111.958 110.375 112.695 110.233 113.533 110.233C114.055 110.233 114.514 110.273 114.91 110.352C115.318 110.431 115.777 110.539 116.287 110.675C116.514 110.754 116.707 110.805 116.865 110.828L116.763 113.684H115.726L115.386 111.593C115.273 111.48 115.035 111.372 114.672 111.27C114.321 111.168 113.936 111.117 113.516 111.117C112.734 111.117 112.139 111.281 111.731 111.61C111.335 111.939 111.136 112.415 111.136 113.038C111.136 113.491 111.255 113.871 111.493 114.177C111.743 114.483 112.049 114.744 112.411 114.959C112.774 115.174 113.352 115.469 114.145 115.843C114.882 116.194 115.483 116.512 115.947 116.795C116.412 117.078 116.809 117.452 117.137 117.917C117.477 118.37 117.647 118.914 117.647 119.549C117.647 120.15 117.477 120.728 117.137 121.283C116.809 121.838 116.299 122.297 115.607 122.66C114.927 123.011 114.1 123.187 113.125 123.187ZM118.85 118.342C118.85 117.401 119.031 116.551 119.394 115.792C119.768 115.033 120.312 114.432 121.026 113.99C121.751 113.537 122.618 113.31 123.627 113.31C124.114 113.31 124.534 113.355 124.885 113.446C125.236 113.537 125.656 113.661 126.143 113.82L126.075 116.438H124.97L124.596 114.704C124.528 114.387 124.097 114.228 123.304 114.228C122.511 114.228 121.882 114.551 121.417 115.197C120.964 115.832 120.737 116.738 120.737 117.917C120.737 119.254 120.992 120.274 121.502 120.977C122.023 121.668 122.698 122.014 123.525 122.014C124.001 122.014 124.449 121.94 124.868 121.793C125.299 121.646 125.667 121.47 125.973 121.266L126.296 121.946C125.99 122.263 125.537 122.552 124.936 122.813C124.347 123.062 123.746 123.187 123.134 123.187C122.205 123.187 121.417 122.977 120.771 122.558C120.136 122.139 119.655 121.566 119.326 120.841C119.009 120.104 118.85 119.271 118.85 118.342ZM127.804 122.167L129.079 122.065V114.874L127.855 114.568V113.65L130.201 113.344H130.235L130.609 113.65V113.956L130.558 115.282H130.609C130.722 115.089 130.926 114.84 131.221 114.534C131.516 114.228 131.895 113.95 132.36 113.701C132.825 113.44 133.329 113.31 133.873 113.31C134.1 113.31 134.287 113.338 134.434 113.395V115.299C134.355 115.242 134.224 115.191 134.043 115.146C133.873 115.089 133.68 115.061 133.465 115.061C132.524 115.061 131.652 115.35 130.847 115.928V122.048L133.006 122.184V123H127.804V122.167ZM137.562 111.865C137.199 111.865 136.927 111.763 136.746 111.559C136.565 111.355 136.474 111.094 136.474 110.777C136.474 110.414 136.582 110.114 136.797 109.876C137.024 109.638 137.33 109.519 137.715 109.519C138.1 109.519 138.384 109.621 138.565 109.825C138.746 110.029 138.837 110.29 138.837 110.607C138.837 110.992 138.724 111.298 138.497 111.525C138.282 111.752 137.976 111.865 137.579 111.865H137.562ZM136.882 114.874L135.59 114.568V113.667L138.225 113.344H138.259L138.65 113.65V122.031L140.01 122.167V123H135.505V122.167L136.882 122.014V114.874ZM150.414 117.951C150.414 118.914 150.216 119.798 149.819 120.603C149.422 121.396 148.856 122.025 148.119 122.49C147.382 122.955 146.521 123.187 145.535 123.187C145.263 123.187 144.968 123.164 144.651 123.119C144.334 123.074 144.079 123.017 143.886 122.949L143.937 124.377V126.094L145.705 126.281V127.114H140.962V126.281L142.186 126.094V114.874L140.945 114.568V113.65L143.359 113.344H143.393L143.75 113.65V114.653C144.09 114.279 144.509 113.962 145.008 113.701C145.518 113.44 146.085 113.31 146.708 113.31C147.377 113.31 147.989 113.474 148.544 113.803C149.111 114.132 149.564 114.642 149.904 115.333C150.244 116.024 150.414 116.897 150.414 117.951ZM146.011 114.5C145.58 114.5 145.178 114.591 144.804 114.772C144.43 114.953 144.141 115.152 143.937 115.367V121.776C144.016 121.912 144.215 122.037 144.532 122.15C144.861 122.252 145.218 122.303 145.603 122.303C146.476 122.303 147.178 121.957 147.711 121.266C148.255 120.575 148.527 119.532 148.527 118.138C148.527 116.914 148.289 116.002 147.813 115.401C147.348 114.8 146.748 114.5 146.011 114.5ZM154.799 123.17C154.153 123.17 153.671 123.023 153.354 122.728C153.037 122.433 152.878 121.929 152.878 121.215V114.687H151.654V113.922C151.711 113.911 151.869 113.871 152.13 113.803C152.391 113.735 152.566 113.673 152.657 113.616C152.838 113.514 152.98 113.31 153.082 113.004C153.173 112.789 153.28 112.443 153.405 111.967C153.53 111.491 153.603 111.208 153.626 111.117H154.629L154.663 113.565H157.502V114.687H154.663V119.906C154.663 120.552 154.68 121.005 154.714 121.266C154.759 121.527 154.844 121.697 154.969 121.776C155.105 121.855 155.332 121.895 155.649 121.895C155.955 121.895 156.289 121.855 156.652 121.776C157.026 121.697 157.315 121.612 157.519 121.521L157.774 122.286C157.502 122.49 157.06 122.688 156.448 122.881C155.847 123.074 155.298 123.17 154.799 123.17Z" fill="#F2F2F2"/>
</g>
<defs>
<filter id="filter0_d_3_14" x="0" y="72.6436" width="231.216" height="93.691" filterUnits="userSpaceOnUse" color-interpolation-filters="sRGB">
<feFlood flood-opacity="0" result="BackgroundImageFix"/>
<feColorMatrix in="SourceAlpha" type="matrix" values="0 0 0 0 0 0 0 0 0 0 0 0 0 0 0 0 0 0 127 0" result="hardAlpha"/>
<feOffset dy="4"/>
<feGaussianBlur stdDeviation="2"/>
<feComposite in2="hardAlpha" operator="out"/>
<feColorMatrix type="matrix" values="0 0 0 0 0 0 0 0 0 0 0 0 0 0 0 0 0 0 0.25 0"/>
<feBlend mode="normal" in2="BackgroundImageFix" result="effect1_dropShadow_3_14"/>
<feBlend mode="normal" in="SourceGraphic" in2="effect1_dropShadow_3_14" result="shape"/>
</filter>
</defs>
</svg>
