<svg width="232" height="222" viewBox="0 0 232 222" fill="none" xmlns="http://www.w3.org/2000/svg">
<g id="leaf-css3">
<g id="Vector" filter="url(#filter0_d_3_13)">
<path d="M4 113.275C7.89004 111.106 7.89004 111.106 11.5558 111.906C12.5754 111.431 13.595 110.957 14.6454 110.467C15.3269 111.214 16.0083 111.96 16.7103 112.729C17.5028 112.006 18.2952 111.282 19.1117 110.537C19.5659 111.034 20.0202 111.532 20.4883 112.044C23.3513 110.917 26.1592 109.762 28.9567 108.46C29.4109 108.957 29.8652 109.455 30.3333 109.967C31.3898 109.003 32.4464 108.038 33.535 107.044C33.9893 107.542 34.4436 108.039 34.9116 108.552C35.6096 107.858 36.3076 107.163 37.0268 106.448C39.7142 104.167 39.7142 104.167 41.6977 103.614C45.4503 102.367 48.5719 100.178 51.8716 97.9917C52.5646 97.5377 53.2577 97.0836 53.9718 96.6158C59.0223 93.281 63.889 89.7772 68.6575 86.0353C69.3389 86.7816 70.0204 87.528 70.7224 88.2969C72.3073 86.8499 73.8921 85.4029 75.525 83.9121C75.9793 84.4096 76.4336 84.9072 76.9016 85.4198C79.7702 83.2569 82.6388 81.0941 85.5943 78.8656C86.0486 79.3632 86.5029 79.8608 86.9709 80.3734C88.7829 79.1752 90.5949 77.977 92.4618 76.7424C92.9161 77.24 93.3704 77.7375 93.8384 78.2502C95.3493 77.7831 96.8601 77.316 98.4168 76.8347C98.8711 77.3323 99.3253 77.8298 99.7934 78.3425C101.011 77.4876 101.011 77.4876 102.253 76.6155C104.994 74.894 106.755 73.8099 109.863 73.296C111.81 73.8217 113.758 74.3474 115.705 74.873C116.909 74.5008 116.909 74.5008 118.138 74.121C120.284 73.4575 120.284 73.4575 122.347 74.5114C122.839 74.9176 123.331 75.3238 123.837 75.7423C124.63 75.0188 125.422 74.2953 126.239 73.5498C128.205 74.0169 130.154 74.5438 132.082 75.1268C132.837 74.8933 133.592 74.6597 134.371 74.4191C134.825 74.9166 135.279 75.4142 135.747 75.9268C137.277 75.2148 137.277 75.2148 138.837 74.4883C139.746 75.4834 140.654 76.4785 141.59 77.5038C142.647 76.5392 143.703 75.5745 144.792 74.5806C145.487 74.9439 146.182 75.3073 146.898 75.6816C150.105 76.9996 152.995 77.3351 156.478 77.7346C157.929 78.2525 159.38 78.7705 160.832 79.2885C161.587 79.0549 162.343 78.8214 163.121 78.5807C164.484 80.0734 165.847 81.5661 167.251 83.104C168.27 82.6293 169.29 82.1546 170.34 81.6655C171.862 82.5176 173.376 83.3868 174.831 84.3421C177.005 85.6263 179.22 86.4779 181.601 87.3676C185.446 88.8792 187.826 90.5031 190.286 93.866C190.814 93.3837 191.342 92.9013 191.886 92.4044C193.022 93.6483 194.158 94.8922 195.328 96.1738C195.856 95.6915 196.385 95.2091 196.929 94.7122C197.506 95.1867 198.083 95.6613 198.678 96.1502C203.492 99.9492 207.132 102.503 213.433 103.143C214.188 102.91 214.944 102.676 215.722 102.436C216.403 103.182 217.085 103.928 217.787 104.697C218.579 103.974 219.372 103.25 220.188 102.505C222.496 104.503 224.805 106.501 227.183 108.559C226.655 109.041 226.127 109.524 225.582 110.021C219.304 109.573 219.304 109.573 217.563 107.667C217.034 108.149 216.506 108.631 215.962 109.128C215.356 108.598 214.751 108.067 214.127 107.52C212.935 106.812 212.935 106.812 211.72 106.09C210.184 106.522 208.658 106.998 207.141 107.505C205.189 106.994 203.241 106.469 201.299 105.928C200.279 106.403 199.259 106.878 198.209 107.367C192.825 106.292 192.825 106.292 190.989 104.282C190.351 104.525 189.712 104.768 189.053 105.018C186.003 105.802 183.814 105.605 180.763 105.238C176.413 104.685 176.413 104.685 172.212 106.221C168.628 106.259 165.087 106.119 161.519 105.962C158.675 105.829 158.675 105.829 155.724 107.451C155.269 106.954 154.815 106.456 154.347 105.944C153.552 106.299 152.756 106.655 151.937 107.021C148.968 108.09 148.968 108.09 146.692 108.008C143.762 108.025 142.227 109.221 139.812 110.921C140.757 111.426 141.703 111.931 142.677 112.452C144.66 111.583 144.66 111.583 146.567 110.282C148.096 109.57 148.096 109.57 149.657 108.844C150.338 109.59 151.02 110.337 151.722 111.105C153.988 110.405 153.988 110.405 156.3 109.69C156.754 110.188 157.208 110.685 157.677 111.198C158.335 110.825 158.993 110.452 159.672 110.067C163.923 108.791 167.169 109.266 171.437 109.736C174.638 110.007 177.697 109.657 180.92 109.328C181.374 109.826 181.829 110.323 182.297 110.836C183.246 110.483 183.246 110.483 184.214 110.123C187.265 109.318 189.753 109.259 192.83 109.513C193.284 110.01 193.739 110.508 194.207 111.021C195.226 110.546 196.246 110.071 197.296 109.582C200.012 109.839 202.724 110.128 205.428 110.451C206.184 110.218 206.939 109.984 207.718 109.744C209.982 111.219 209.982 111.219 211.959 112.782C208.899 114.806 206.2 116.172 202.691 117.098C202.236 116.6 201.782 116.103 201.314 115.59C200.53 116.222 199.747 116.853 198.94 117.504C197.923 118.316 196.907 119.128 195.86 119.965C194.342 121.183 194.342 121.183 192.792 122.426C190.22 124.337 190.22 124.337 188.731 124.314C187.387 125.228 186.077 126.193 184.783 127.179C183.614 128.066 183.614 128.066 182.421 128.971C181.195 129.909 181.195 129.909 179.946 130.866C178.712 131.804 178.712 131.804 177.453 132.761C175.415 134.312 173.379 135.865 171.346 137.422C170.665 136.676 169.983 135.929 169.281 135.16C168.657 135.762 168.034 136.364 167.391 136.983C154.826 148.817 154.826 148.817 147.894 151.923C146.429 151.439 144.976 150.922 143.54 150.369C140.819 151.694 138.835 153.534 136.448 155.462C135.994 154.964 135.539 154.466 135.071 153.954C134.279 154.677 133.486 155.401 132.67 156.146C131.46 155.882 130.25 155.618 129.004 155.346C126.542 155.946 126.542 155.946 124.426 156.762C123.971 156.264 123.517 155.767 123.049 155.254C122.551 155.595 122.052 155.936 121.539 156.287C113.203 160.267 100.186 159.408 91.5613 157.739C90.8799 156.992 90.1985 156.246 89.4964 155.477C88.2127 156.193 86.929 156.909 85.6064 157.646C84.2065 156.644 82.8067 155.641 81.3644 154.608C80.8361 155.09 80.3079 155.573 79.7636 156.07C74.9046 155.255 70.4553 153.854 65.9009 152.139C64.8328 151.831 63.7647 151.523 62.6643 151.206C58.4835 149.432 55.6026 146.837 52.3745 143.754C51.8463 144.236 51.318 144.718 50.7737 145.215C49.4108 143.723 48.048 142.23 46.6439 140.692C45.8514 141.415 45.059 142.139 44.2425 142.884C42.6526 141.143 41.0626 139.401 39.4244 137.607C38.8961 138.09 38.3678 138.572 37.8235 139.069C33.3416 136.911 30.0515 134.338 26.5163 130.904C25.5994 130.02 24.6824 129.136 23.7377 128.225C23.0508 127.551 22.3639 126.878 21.6561 126.184C21.1279 126.666 20.5996 127.148 20.0553 127.645C17.5567 124.909 15.0582 122.172 12.4839 119.353C11.9556 119.835 11.4273 120.317 10.883 120.814C8.61164 118.326 6.34024 115.839 4 113.275Z" fill="#358274"/>
</g>
<path id="CSS3" d="M100.426 124.187C99.1793 124.187 98.114 123.921 97.23 123.388C96.3573 122.844 95.6943 122.085 95.241 121.11C94.7877 120.135 94.561 118.991 94.561 117.676C94.561 116.407 94.8273 115.285 95.36 114.31C95.8927 113.335 96.6237 112.582 97.553 112.049C98.4823 111.505 99.525 111.233 100.681 111.233C101.554 111.233 102.602 111.369 103.826 111.641L104.387 111.743L104.217 114.803H103.078L102.653 112.644C102.494 112.508 102.217 112.395 101.82 112.304C101.435 112.202 100.959 112.151 100.392 112.151C99.6667 112.151 99.0207 112.361 98.454 112.78C97.8873 113.188 97.4397 113.794 97.111 114.599C96.7937 115.404 96.635 116.367 96.635 117.489C96.635 118.554 96.7767 119.523 97.06 120.396C97.3433 121.269 97.774 121.966 98.352 122.487C98.93 122.997 99.644 123.252 100.494 123.252C101.095 123.252 101.554 123.201 101.871 123.099C102.2 122.997 102.477 122.85 102.704 122.657L103.418 120.991L104.489 121.127L104.081 123.541C103.843 123.552 103.492 123.632 103.027 123.779C102.619 123.904 102.222 124 101.837 124.068C101.463 124.147 100.993 124.187 100.426 124.187ZM110.036 124.187C109.447 124.187 108.92 124.136 108.455 124.034C107.991 123.932 107.481 123.796 106.925 123.626C106.585 123.501 106.33 123.433 106.16 123.422L106.296 120.345H107.384L107.673 122.555C107.866 122.736 108.178 122.901 108.608 123.048C109.05 123.184 109.532 123.252 110.053 123.252C110.915 123.252 111.566 123.059 112.008 122.674C112.462 122.289 112.688 121.756 112.688 121.076C112.688 120.634 112.564 120.254 112.314 119.937C112.076 119.62 111.753 119.348 111.345 119.121C110.949 118.894 110.399 118.628 109.696 118.322C109.062 118.039 108.506 117.75 108.03 117.455C107.566 117.16 107.158 116.769 106.806 116.282C106.466 115.783 106.296 115.188 106.296 114.497C106.296 113.874 106.461 113.318 106.789 112.831C107.129 112.332 107.611 111.941 108.234 111.658C108.869 111.375 109.606 111.233 110.444 111.233C110.966 111.233 111.425 111.273 111.821 111.352C112.229 111.431 112.688 111.539 113.198 111.675C113.425 111.754 113.618 111.805 113.776 111.828L113.674 114.684H112.637L112.297 112.593C112.184 112.48 111.946 112.372 111.583 112.27C111.232 112.168 110.847 112.117 110.427 112.117C109.645 112.117 109.05 112.281 108.642 112.61C108.246 112.939 108.047 113.415 108.047 114.038C108.047 114.491 108.166 114.871 108.404 115.177C108.654 115.483 108.96 115.744 109.322 115.959C109.685 116.174 110.263 116.469 111.056 116.843C111.793 117.194 112.394 117.512 112.858 117.795C113.323 118.078 113.72 118.452 114.048 118.917C114.388 119.37 114.558 119.914 114.558 120.549C114.558 121.15 114.388 121.728 114.048 122.283C113.72 122.838 113.21 123.297 112.518 123.66C111.838 124.011 111.011 124.187 110.036 124.187ZM120.13 124.187C119.541 124.187 119.014 124.136 118.549 124.034C118.085 123.932 117.575 123.796 117.019 123.626C116.679 123.501 116.424 123.433 116.254 123.422L116.39 120.345H117.478L117.767 122.555C117.96 122.736 118.272 122.901 118.702 123.048C119.144 123.184 119.626 123.252 120.147 123.252C121.009 123.252 121.66 123.059 122.102 122.674C122.556 122.289 122.782 121.756 122.782 121.076C122.782 120.634 122.658 120.254 122.408 119.937C122.17 119.62 121.847 119.348 121.439 119.121C121.043 118.894 120.493 118.628 119.79 118.322C119.156 118.039 118.6 117.75 118.124 117.455C117.66 117.16 117.252 116.769 116.9 116.282C116.56 115.783 116.39 115.188 116.39 114.497C116.39 113.874 116.555 113.318 116.883 112.831C117.223 112.332 117.705 111.941 118.328 111.658C118.963 111.375 119.7 111.233 120.538 111.233C121.06 111.233 121.519 111.273 121.915 111.352C122.323 111.431 122.782 111.539 123.292 111.675C123.519 111.754 123.712 111.805 123.87 111.828L123.768 114.684H122.731L122.391 112.593C122.278 112.48 122.04 112.372 121.677 112.27C121.326 112.168 120.941 112.117 120.521 112.117C119.739 112.117 119.144 112.281 118.736 112.61C118.34 112.939 118.141 113.415 118.141 114.038C118.141 114.491 118.26 114.871 118.498 115.177C118.748 115.483 119.054 115.744 119.416 115.959C119.779 116.174 120.357 116.469 121.15 116.843C121.887 117.194 122.488 117.512 122.952 117.795C123.417 118.078 123.814 118.452 124.142 118.917C124.482 119.37 124.652 119.914 124.652 120.549C124.652 121.15 124.482 121.728 124.142 122.283C123.814 122.838 123.304 123.297 122.612 123.66C121.932 124.011 121.105 124.187 120.13 124.187ZM127.963 126.737C127.702 126.737 127.413 126.714 127.096 126.669C126.779 126.635 126.512 126.59 126.297 126.533V125.564C126.671 125.677 127.119 125.734 127.64 125.734C128.535 125.734 129.306 125.592 129.952 125.309C130.609 125.026 131.108 124.64 131.448 124.153C131.799 123.666 131.975 123.133 131.975 122.555C131.975 121.784 131.737 121.189 131.261 120.77C130.796 120.339 130.077 120.118 129.102 120.107L128.575 120.243C128.201 120.356 128.02 120.407 128.031 120.396L127.742 119.495C128.218 119.404 128.666 119.268 129.085 119.087C129.788 118.792 130.354 118.401 130.785 117.914C131.216 117.415 131.431 116.888 131.431 116.333C131.431 115.687 131.238 115.217 130.853 114.922C130.479 114.616 129.997 114.463 129.408 114.463C128.898 114.463 128.405 114.554 127.929 114.735C127.464 114.916 127.062 115.137 126.722 115.398L126.263 114.633C126.58 114.316 127.085 114.01 127.776 113.715C128.479 113.409 129.193 113.256 129.918 113.256C130.949 113.256 131.782 113.483 132.417 113.936C133.052 114.378 133.369 115.058 133.369 115.976C133.369 116.781 133.052 117.512 132.417 118.169C131.782 118.826 131.029 119.308 130.156 119.614C130.269 119.603 130.428 119.597 130.632 119.597C131.301 119.597 131.89 119.722 132.4 119.971C132.91 120.22 133.301 120.56 133.573 120.991C133.856 121.41 133.998 121.886 133.998 122.419C133.998 123.246 133.749 123.989 133.25 124.646C132.751 125.303 132.043 125.813 131.125 126.176C130.218 126.55 129.164 126.737 127.963 126.737Z" fill="#F2F2F2"/>
</g>
<defs>
<filter id="filter0_d_3_13" x="0" y="73.296" width="231.183" height="93.841" filterUnits="userSpaceOnUse" color-interpolation-filters="sRGB">
<feFlood flood-opacity="0" result="BackgroundImageFix"/>
<feColorMatrix in="SourceAlpha" type="matrix" values="0 0 0 0 0 0 0 0 0 0 0 0 0 0 0 0 0 0 127 0" result="hardAlpha"/>
<feOffset dy="4"/>
<feGaussianBlur stdDeviation="2"/>
<feComposite in2="hardAlpha" operator="out"/>
<feColorMatrix type="matrix" values="0 0 0 0 0 0 0 0 0 0 0 0 0 0 0 0 0 0 0.25 0"/>
<feBlend mode="normal" in2="BackgroundImageFix" result="effect1_dropShadow_3_13"/>
<feBlend mode="normal" in="SourceGraphic" in2="effect1_dropShadow_3_13" result="shape"/>
</filter>
</defs>
</svg>
