<svg width="232" height="222" viewBox="0 0 232 222" fill="none" xmlns="http://www.w3.org/2000/svg">
<g id="leaf-accessibility">
<g id="Vector" filter="url(#filter0_d_3_19)">
<path d="M4 113.275C7.89004 111.106 7.89004 111.106 11.5558 111.906C12.5754 111.431 13.595 110.957 14.6454 110.467C15.3269 111.214 16.0083 111.96 16.7103 112.729C17.5028 112.006 18.2952 111.282 19.1117 110.537C19.5659 111.034 20.0202 111.532 20.4883 112.044C23.3513 110.917 26.1592 109.762 28.9567 108.46C29.4109 108.957 29.8652 109.455 30.3333 109.967C31.3898 109.003 32.4464 108.038 33.535 107.044C33.9893 107.542 34.4436 108.039 34.9116 108.552C35.6096 107.858 36.3076 107.163 37.0268 106.448C39.7142 104.167 39.7142 104.167 41.6977 103.614C45.4503 102.367 48.5719 100.178 51.8716 97.9917C52.5646 97.5377 53.2577 97.0836 53.9718 96.6158C59.0223 93.281 63.889 89.7772 68.6575 86.0353C69.3389 86.7816 70.0204 87.528 70.7224 88.2969C72.3073 86.8499 73.8921 85.4029 75.525 83.9121C75.9793 84.4096 76.4336 84.9072 76.9016 85.4198C79.7702 83.2569 82.6388 81.0941 85.5943 78.8656C86.0486 79.3632 86.5029 79.8608 86.9709 80.3734C88.7829 79.1752 90.5949 77.977 92.4618 76.7424C92.9161 77.24 93.3704 77.7375 93.8384 78.2502C95.3493 77.7831 96.8601 77.316 98.4168 76.8347C98.8711 77.3323 99.3253 77.8298 99.7934 78.3425C101.011 77.4876 101.011 77.4876 102.253 76.6155C104.994 74.894 106.755 73.8099 109.863 73.296C111.81 73.8217 113.758 74.3474 115.705 74.873C116.909 74.5008 116.909 74.5008 118.138 74.121C120.284 73.4575 120.284 73.4575 122.347 74.5114C122.839 74.9176 123.331 75.3238 123.837 75.7423C124.63 75.0188 125.422 74.2953 126.239 73.5498C128.205 74.0169 130.154 74.5438 132.082 75.1268C132.837 74.8933 133.592 74.6597 134.371 74.4191C134.825 74.9166 135.279 75.4142 135.747 75.9268C137.277 75.2148 137.277 75.2148 138.837 74.4883C139.746 75.4834 140.654 76.4785 141.59 77.5038C142.647 76.5392 143.703 75.5745 144.792 74.5806C145.487 74.9439 146.182 75.3073 146.898 75.6816C150.105 76.9996 152.995 77.3351 156.478 77.7346C157.929 78.2525 159.38 78.7705 160.832 79.2885C161.587 79.0549 162.343 78.8214 163.121 78.5807C164.484 80.0734 165.847 81.5661 167.251 83.104C168.27 82.6293 169.29 82.1546 170.34 81.6655C171.862 82.5176 173.376 83.3868 174.831 84.3421C177.005 85.6263 179.22 86.4779 181.601 87.3676C185.446 88.8792 187.826 90.5031 190.286 93.866C190.814 93.3837 191.342 92.9013 191.886 92.4044C193.022 93.6483 194.158 94.8922 195.328 96.1738C195.856 95.6915 196.385 95.2091 196.929 94.7122C197.506 95.1867 198.083 95.6613 198.678 96.1502C203.492 99.9492 207.132 102.503 213.433 103.143C214.188 102.91 214.944 102.676 215.722 102.436C216.403 103.182 217.085 103.928 217.787 104.697C218.579 103.974 219.372 103.25 220.188 102.505C222.496 104.503 224.805 106.501 227.183 108.559C226.655 109.041 226.127 109.524 225.582 110.021C219.304 109.573 219.304 109.573 217.563 107.667C217.034 108.149 216.506 108.631 215.962 109.128C215.356 108.598 214.751 108.067 214.127 107.52C212.935 106.812 212.935 106.812 211.72 106.09C210.184 106.522 208.658 106.998 207.141 107.505C205.189 106.994 203.241 106.469 201.299 105.928C200.279 106.403 199.259 106.878 198.209 107.367C192.825 106.292 192.825 106.292 190.989 104.282C190.351 104.525 189.712 104.768 189.053 105.018C186.003 105.802 183.814 105.605 180.763 105.238C176.413 104.685 176.413 104.685 172.212 106.221C168.628 106.259 165.087 106.119 161.519 105.962C158.675 105.829 158.675 105.829 155.724 107.451C155.269 106.954 154.815 106.456 154.347 105.944C153.552 106.299 152.756 106.655 151.937 107.021C148.968 108.09 148.968 108.09 146.692 108.008C143.762 108.025 142.227 109.221 139.812 110.921C140.757 111.426 141.703 111.931 142.677 112.452C144.66 111.583 144.66 111.583 146.567 110.282C148.096 109.57 148.096 109.57 149.657 108.844C150.338 109.59 151.02 110.337 151.722 111.105C153.988 110.405 153.988 110.405 156.3 109.69C156.754 110.188 157.208 110.685 157.677 111.198C158.335 110.825 158.993 110.452 159.672 110.067C163.923 108.791 167.169 109.266 171.437 109.736C174.638 110.007 177.697 109.657 180.92 109.328C181.374 109.826 181.829 110.323 182.297 110.836C183.246 110.483 183.246 110.483 184.214 110.123C187.265 109.318 189.753 109.259 192.83 109.513C193.284 110.01 193.739 110.508 194.207 111.021C195.226 110.546 196.246 110.071 197.296 109.582C200.012 109.839 202.724 110.128 205.428 110.451C206.184 110.218 206.939 109.984 207.718 109.744C209.982 111.219 209.982 111.219 211.959 112.782C208.899 114.806 206.2 116.172 202.691 117.098C202.236 116.6 201.782 116.103 201.314 115.59C200.53 116.222 199.747 116.853 198.94 117.504C197.923 118.316 196.907 119.128 195.86 119.965C194.342 121.183 194.342 121.183 192.792 122.426C190.22 124.337 190.22 124.337 188.731 124.314C187.387 125.228 186.077 126.193 184.783 127.179C183.614 128.066 183.614 128.066 182.421 128.971C181.195 129.909 181.195 129.909 179.946 130.866C178.712 131.804 178.712 131.804 177.453 132.761C175.415 134.312 173.379 135.865 171.346 137.422C170.665 136.676 169.983 135.929 169.281 135.16C168.657 135.762 168.034 136.364 167.391 136.983C154.826 148.817 154.826 148.817 147.894 151.923C146.429 151.439 144.976 150.922 143.54 150.369C140.819 151.694 138.835 153.534 136.448 155.462C135.994 154.964 135.539 154.466 135.071 153.954C134.279 154.677 133.486 155.401 132.67 156.146C131.46 155.882 130.25 155.618 129.004 155.346C126.542 155.946 126.542 155.946 124.426 156.762C123.971 156.264 123.517 155.767 123.049 155.254C122.551 155.595 122.052 155.936 121.539 156.287C113.203 160.267 100.186 159.408 91.5613 157.739C90.8799 156.992 90.1985 156.246 89.4964 155.477C88.2127 156.193 86.929 156.909 85.6064 157.646C84.2065 156.644 82.8067 155.641 81.3644 154.608C80.8361 155.09 80.3079 155.573 79.7636 156.07C74.9046 155.255 70.4553 153.854 65.9009 152.139C64.8328 151.831 63.7647 151.523 62.6643 151.206C58.4835 149.432 55.6026 146.837 52.3745 143.754C51.8463 144.236 51.318 144.718 50.7737 145.215C49.4108 143.723 48.048 142.23 46.6439 140.692C45.8514 141.415 45.059 142.139 44.2425 142.884C42.6526 141.143 41.0626 139.401 39.4244 137.607C38.8961 138.09 38.3678 138.572 37.8235 139.069C33.3416 136.911 30.0515 134.338 26.5163 130.904C25.5994 130.02 24.6824 129.136 23.7377 128.225C23.0508 127.551 22.3639 126.878 21.6561 126.184C21.1279 126.666 20.5996 127.148 20.0553 127.645C17.5567 124.909 15.0582 122.172 12.4839 119.353C11.9556 119.835 11.4273 120.317 10.883 120.814C8.61164 118.326 6.34024 115.839 4 113.275Z" fill="#358274"/>
</g>
<path id="a11y" d="M95.1488 114.45C95.1488 113.385 95.6815 112.603 96.7468 112.104C97.8121 111.594 99.1608 111.322 100.793 111.288V110.812C100.793 110.279 100.736 109.86 100.623 109.554C100.509 109.248 100.311 109.027 100.028 108.891C99.7558 108.744 99.3648 108.67 98.8548 108.67C98.2768 108.67 97.7555 108.755 97.2908 108.925C96.8375 109.084 96.3841 109.282 95.9308 109.52L95.5058 108.636C95.6531 108.511 95.9251 108.347 96.3218 108.143C96.7185 107.939 97.1775 107.758 97.6988 107.599C98.2201 107.44 98.7415 107.361 99.2628 107.361C100.067 107.361 100.702 107.474 101.167 107.701C101.643 107.916 101.983 108.268 102.187 108.755C102.391 109.242 102.493 109.894 102.493 110.71V116.167H103.496V116.915C103.269 116.972 102.98 117.028 102.629 117.085C102.289 117.142 101.988 117.17 101.728 117.17C101.41 117.17 101.195 117.119 101.082 117.017C100.968 116.926 100.912 116.717 100.912 116.388V115.827C100.572 116.167 100.152 116.479 99.6538 116.762C99.1665 117.045 98.6111 117.187 97.9878 117.187C97.1718 117.187 96.4918 116.955 95.9478 116.49C95.4151 116.014 95.1488 115.334 95.1488 114.45ZM98.7188 116.031C99.0135 116.031 99.3535 115.94 99.7388 115.759C100.124 115.578 100.475 115.362 100.793 115.113V112.189C99.5575 112.189 98.6225 112.382 97.9878 112.767C97.3645 113.141 97.0528 113.634 97.0528 114.246C97.0528 114.858 97.2001 115.311 97.4948 115.606C97.8008 115.889 98.2088 116.031 98.7188 116.031ZM107.109 108.228C106.871 108.319 106.497 108.426 105.987 108.551C105.477 108.676 105.063 108.761 104.746 108.806L104.576 107.854C105.154 107.729 105.743 107.52 106.344 107.225C106.956 106.93 107.466 106.607 107.874 106.256H107.891L108.928 106.426V116.014L111.036 116.167V117H104.916V116.167L107.109 116.014V108.228ZM114.596 108.228C114.358 108.319 113.984 108.426 113.474 108.551C112.964 108.676 112.551 108.761 112.233 108.806L112.063 107.854C112.641 107.729 113.231 107.52 113.831 107.225C114.443 106.93 114.953 106.607 115.361 106.256H115.378L116.415 106.426V116.014L118.523 116.167V117H112.403V116.167L114.596 116.014V108.228ZM121.03 121.233C120.837 121.233 120.644 121.222 120.452 121.199C120.27 121.176 120.14 121.142 120.061 121.097V119.618C120.129 119.663 120.259 119.697 120.452 119.72C120.656 119.743 120.848 119.754 121.03 119.754C121.574 119.754 122.05 119.561 122.458 119.176C122.877 118.802 123.279 118.077 123.665 117H122.849L119.619 108.585L118.837 108.364V107.565H122.934V108.364L121.625 108.568L123.291 113.583L124.073 116.065L124.804 113.566L126.317 108.568L125.178 108.364V107.565H128.595V108.364L127.745 108.568C126.079 113.668 125.098 116.564 124.804 117.255C124.418 118.23 124.067 118.989 123.75 119.533C123.432 120.088 123.058 120.508 122.628 120.791C122.197 121.086 121.664 121.233 121.03 121.233Z" fill="#F2F2F2"/>
</g>
<defs>
<filter id="filter0_d_3_19" x="0" y="73.296" width="231.183" height="93.841" filterUnits="userSpaceOnUse" color-interpolation-filters="sRGB">
<feFlood flood-opacity="0" result="BackgroundImageFix"/>
<feColorMatrix in="SourceAlpha" type="matrix" values="0 0 0 0 0 0 0 0 0 0 0 0 0 0 0 0 0 0 127 0" result="hardAlpha"/>
<feOffset dy="4"/>
<feGaussianBlur stdDeviation="2"/>
<feComposite in2="hardAlpha" operator="out"/>
<feColorMatrix type="matrix" values="0 0 0 0 0 0 0 0 0 0 0 0 0 0 0 0 0 0 0.25 0"/>
<feBlend mode="normal" in2="BackgroundImageFix" result="effect1_dropShadow_3_19"/>
<feBlend mode="normal" in="SourceGraphic" in2="effect1_dropShadow_3_19" result="shape"/>
</filter>
</defs>
</svg>
