<svg width="231" height="220" viewBox="0 0 231 220" fill="none" xmlns="http://www.w3.org/2000/svg">
<g id="leaf-react">
<g id="Vector" filter="url(#filter0_d_3_15)">
<path d="M4 103.112C8.04937 101.257 8.04937 101.257 11.6404 102.344C12.6943 101.952 13.7483 101.559 14.8341 101.155C15.4544 101.952 16.0747 102.75 16.7137 103.572C17.5609 102.914 18.408 102.255 19.2809 101.577C19.6944 102.109 20.1079 102.641 20.534 103.189C23.4772 102.291 26.3676 101.362 29.2593 100.284C29.6728 100.816 30.0863 101.348 30.5124 101.896C31.6419 101.018 32.7714 100.14 33.9352 99.2354C34.3487 99.7673 34.7622 100.299 35.1883 100.847C35.939 100.21 36.6897 99.5734 37.4632 98.9171C40.3225 96.8558 40.3225 96.8558 42.3435 96.4616C46.1829 95.5146 49.4679 93.5791 52.93 91.661C53.6568 91.2632 54.3836 90.8653 55.1324 90.4555C60.4308 87.5303 65.5592 84.4223 70.6087 81.0691C71.229 81.8669 71.8493 82.6648 72.4884 83.4869C74.1827 82.1697 75.877 80.8525 77.6226 79.4955C78.0361 80.0274 78.4496 80.5593 78.8757 81.1073C81.9063 79.178 84.9369 77.2487 88.0593 75.2609C88.4728 75.7928 88.8864 76.3247 89.3124 76.8728C91.2135 75.8215 93.1145 74.7703 95.0732 73.6873C95.4867 74.2192 95.9002 74.7511 96.3263 75.2991C97.8694 74.9529 99.4124 74.6067 101.002 74.2501C101.416 74.782 101.829 75.3139 102.255 75.8619C103.536 75.106 103.536 75.106 104.843 74.3348C107.712 72.8354 109.554 71.894 112.692 71.6274C114.592 72.3054 116.492 72.9833 118.392 73.6613C119.622 73.3855 119.622 73.3855 120.876 73.104C123.068 72.6123 123.068 72.6123 125.041 73.8259C125.499 74.2697 125.958 74.7135 126.43 75.1708C127.277 74.5122 128.124 73.8536 128.997 73.1751C130.92 73.796 132.821 74.4755 134.697 75.209C135.468 75.0359 136.24 74.8628 137.035 74.6845C137.448 75.2164 137.862 75.7483 138.288 76.2964C139.869 75.7074 139.869 75.7074 141.481 75.1066C142.308 76.1704 143.136 77.2343 143.988 78.3303C145.117 77.4522 146.247 76.5741 147.41 75.6694C148.075 76.0865 148.739 76.5037 149.423 76.9335C152.516 78.5008 155.37 79.0638 158.81 79.7373C160.216 80.3684 161.622 80.9995 163.028 81.6306C163.799 81.4575 164.571 81.2844 165.366 81.1061C166.606 82.7018 167.847 84.2976 169.125 85.9417C170.179 85.5491 171.233 85.1565 172.319 84.7519C173.768 85.7217 175.209 86.7079 176.584 87.7752C178.65 89.2273 180.79 90.2514 183.093 91.3265C186.807 93.1373 189.051 94.9443 191.237 98.4912C191.802 98.0521 192.367 97.613 192.948 97.1607C193.982 98.4905 195.016 99.8203 196.081 101.19C196.646 100.751 197.211 100.312 197.793 99.8599C198.33 100.379 198.868 100.897 199.422 101.432C203.921 105.599 207.348 108.433 213.578 109.569C214.35 109.396 215.121 109.223 215.916 109.045C216.536 109.843 217.157 110.641 217.796 111.463C218.643 110.804 219.49 110.146 220.363 109.467C222.506 111.641 224.649 113.815 226.858 116.055C226.293 116.494 225.728 116.933 225.146 117.386C218.922 116.444 218.922 116.444 217.337 114.405C216.773 114.844 216.208 115.283 215.626 115.736C215.064 115.159 214.503 114.582 213.924 113.988C212.792 113.187 212.792 113.187 211.638 112.371C210.073 112.681 208.514 113.034 206.962 113.42C205.056 112.756 203.156 112.079 201.262 111.386C200.208 111.779 199.154 112.171 198.068 112.576C192.786 111.079 192.786 111.079 191.115 108.93C190.459 109.122 189.803 109.314 189.127 109.511C186.024 110.051 183.857 109.682 180.845 109.075C176.552 108.18 176.552 108.18 172.243 109.378C168.668 109.133 165.148 108.714 161.604 108.275C158.78 107.917 158.78 107.917 155.709 109.302C155.296 108.77 154.882 108.238 154.456 107.69C153.635 107.981 152.814 108.273 151.968 108.573C148.925 109.404 148.925 109.404 146.662 109.143C143.739 108.928 142.115 109.998 139.573 111.502C140.475 112.081 141.378 112.659 142.308 113.255C144.354 112.546 144.354 112.546 146.357 111.4C147.938 110.811 147.938 110.811 149.551 110.21C150.171 111.008 150.792 111.806 151.431 112.628C153.745 112.109 153.745 112.109 156.107 111.579C156.52 112.111 156.934 112.643 157.36 113.191C158.046 112.871 158.731 112.551 159.438 112.222C163.777 111.285 166.975 112.015 171.193 112.821C174.362 113.344 177.44 113.237 180.678 113.165C181.092 113.697 181.506 114.229 181.932 114.777C182.905 114.499 182.905 114.499 183.899 114.217C187.004 113.656 189.489 113.794 192.537 114.29C192.95 114.822 193.364 115.354 193.79 115.902C194.844 115.51 195.897 115.117 196.983 114.712C199.67 115.183 202.35 115.685 205.021 116.222C205.793 116.049 206.564 115.876 207.359 115.697C209.499 117.347 209.499 117.347 211.348 119.062C208.137 120.837 205.338 121.986 201.767 122.631C201.353 122.099 200.939 121.567 200.513 121.019C199.682 121.587 198.851 122.155 197.995 122.74C196.918 123.469 195.841 124.198 194.731 124.949C193.121 126.043 193.121 126.043 191.478 127.16C188.763 128.861 188.763 128.861 187.28 128.721C185.868 129.526 184.485 130.384 183.118 131.265C181.882 132.057 181.882 132.057 180.621 132.865C179.326 133.703 179.326 133.703 178.004 134.558C176.7 135.396 176.7 135.396 175.37 136.25C173.215 137.635 171.063 139.022 168.913 140.414C168.293 139.616 167.673 138.818 167.034 137.996C166.364 138.546 165.695 139.096 165.005 139.664C151.544 150.467 151.544 150.467 144.388 153.015C142.966 152.416 141.558 151.787 140.17 151.122C137.353 152.227 135.231 153.904 132.698 155.638C132.284 155.106 131.871 154.574 131.445 154.026C130.598 154.684 129.751 155.343 128.878 156.021C127.693 155.663 126.508 155.304 125.287 154.934C122.785 155.337 122.785 155.337 120.611 155.983C120.197 155.451 119.784 154.919 119.358 154.371C118.834 154.672 118.31 154.972 117.77 155.282C109.146 158.59 96.2381 156.704 87.772 154.359C87.1517 153.561 86.5314 152.763 85.8924 151.941C84.5561 152.553 83.2198 153.165 81.843 153.796C80.5268 152.686 79.2106 151.576 77.8545 150.432C77.2898 150.871 76.725 151.31 76.1431 151.762C71.3638 150.566 67.0391 148.818 62.6346 146.748C61.5942 146.356 60.5538 145.965 59.4819 145.562C55.4545 143.463 52.7877 140.649 49.8135 137.319C49.2488 137.758 48.684 138.198 48.1021 138.65C46.8616 137.054 45.621 135.458 44.3428 133.814C43.4957 134.473 42.6485 135.131 41.7757 135.81C40.3284 133.948 38.8811 132.087 37.3899 130.168C36.8251 130.607 36.2603 131.047 35.6785 131.499C31.3812 128.993 28.3048 126.168 25.0521 122.466C24.208 121.512 23.3638 120.558 22.494 119.575C21.8625 118.849 21.231 118.124 20.5804 117.376C20.0156 117.815 19.4508 118.254 18.8689 118.706C16.5946 115.781 14.3202 112.855 11.9769 109.841C11.4121 110.28 10.8474 110.719 10.2655 111.171C8.19788 108.512 6.13027 105.852 4 103.112Z" fill="#358274"/>
</g>
<path id="React" d="M91.782 121.167L93.193 120.997V110.423L91.867 110.202V109.369H94.094C94.4113 109.369 94.842 109.346 95.386 109.301C95.9527 109.256 96.3947 109.233 96.712 109.233C98.378 109.233 99.5623 109.505 100.265 110.049C100.979 110.582 101.336 111.426 101.336 112.582C101.336 113.387 101.109 114.123 100.656 114.792C100.214 115.461 99.602 115.914 98.82 116.152C99.1827 116.345 99.517 116.679 99.823 117.155C100.14 117.62 100.526 118.271 100.979 119.11C101.33 119.745 101.597 120.209 101.778 120.504C101.971 120.799 102.152 120.963 102.322 120.997L102.985 121.167V122H100.639C100.458 122 100.254 121.807 100.027 121.422C99.8003 121.025 99.5 120.419 99.126 119.603C98.718 118.708 98.361 117.999 98.055 117.478C97.7603 116.945 97.4657 116.605 97.171 116.458C95.9583 116.458 95.2387 116.452 95.012 116.441V120.997L96.695 121.167V122H91.782V121.167ZM97.035 115.54C97.7603 115.54 98.3327 115.302 98.752 114.826C99.1713 114.35 99.381 113.642 99.381 112.701C99.381 111.874 99.1657 111.245 98.735 110.814C98.3157 110.372 97.5847 110.151 96.542 110.151C96.1793 110.151 95.8167 110.174 95.454 110.219C95.2273 110.242 95.08 110.253 95.012 110.253V115.523C95.182 115.534 95.5333 115.54 96.066 115.54H97.035ZM107.917 122.187C106.545 122.187 105.497 121.739 104.772 120.844C104.058 119.949 103.701 118.753 103.701 117.257C103.701 116.271 103.888 115.404 104.262 114.656C104.636 113.908 105.157 113.33 105.826 112.922C106.506 112.514 107.276 112.31 108.138 112.31C109.192 112.31 110.008 112.605 110.586 113.194C111.175 113.772 111.487 114.605 111.521 115.693C111.521 116.384 111.481 116.911 111.402 117.274H105.554C105.576 118.396 105.837 119.303 106.336 119.994C106.834 120.674 107.543 121.014 108.461 121.014C108.914 121.014 109.384 120.935 109.872 120.776C110.37 120.606 110.756 120.408 111.028 120.181L111.351 120.929C111.022 121.269 110.535 121.564 109.889 121.813C109.243 122.062 108.585 122.187 107.917 122.187ZM109.651 116.373C109.685 116.135 109.702 115.891 109.702 115.642C109.69 114.905 109.532 114.327 109.226 113.908C108.931 113.477 108.461 113.262 107.815 113.262C107.157 113.262 106.63 113.5 106.234 113.976C105.848 114.452 105.627 115.251 105.571 116.373H109.651ZM112.982 119.45C112.982 118.385 113.514 117.603 114.58 117.104C115.645 116.594 116.994 116.322 118.626 116.288V115.812C118.626 115.279 118.569 114.86 118.456 114.554C118.342 114.248 118.144 114.027 117.861 113.891C117.589 113.744 117.198 113.67 116.688 113.67C116.11 113.67 115.588 113.755 115.124 113.925C114.67 114.084 114.217 114.282 113.764 114.52L113.339 113.636C113.486 113.511 113.758 113.347 114.155 113.143C114.551 112.939 115.01 112.758 115.532 112.599C116.053 112.44 116.574 112.361 117.096 112.361C117.9 112.361 118.535 112.474 119 112.701C119.476 112.916 119.816 113.268 120.02 113.755C120.224 114.242 120.326 114.894 120.326 115.71V121.167H121.329V121.915C121.102 121.972 120.813 122.028 120.462 122.085C120.122 122.142 119.821 122.17 119.561 122.17C119.243 122.17 119.028 122.119 118.915 122.017C118.801 121.926 118.745 121.717 118.745 121.388V120.827C118.405 121.167 117.985 121.479 117.487 121.762C116.999 122.045 116.444 122.187 115.821 122.187C115.005 122.187 114.325 121.955 113.781 121.49C113.248 121.014 112.982 120.334 112.982 119.45ZM116.552 121.031C116.846 121.031 117.186 120.94 117.572 120.759C117.957 120.578 118.308 120.362 118.626 120.113V117.189C117.39 117.189 116.455 117.382 115.821 117.767C115.197 118.141 114.886 118.634 114.886 119.246C114.886 119.858 115.033 120.311 115.328 120.606C115.634 120.889 116.042 121.031 116.552 121.031ZM122.307 117.342C122.307 116.401 122.488 115.551 122.851 114.792C123.225 114.033 123.769 113.432 124.483 112.99C125.208 112.537 126.075 112.31 127.084 112.31C127.571 112.31 127.991 112.355 128.342 112.446C128.693 112.537 129.113 112.661 129.6 112.82L129.532 115.438H128.427L128.053 113.704C127.985 113.387 127.554 113.228 126.761 113.228C125.968 113.228 125.339 113.551 124.874 114.197C124.421 114.832 124.194 115.738 124.194 116.917C124.194 118.254 124.449 119.274 124.959 119.977C125.48 120.668 126.155 121.014 126.982 121.014C127.458 121.014 127.906 120.94 128.325 120.793C128.756 120.646 129.124 120.47 129.43 120.266L129.753 120.946C129.447 121.263 128.994 121.552 128.393 121.813C127.804 122.062 127.203 122.187 126.591 122.187C125.662 122.187 124.874 121.977 124.228 121.558C123.593 121.139 123.112 120.566 122.783 119.841C122.466 119.104 122.307 118.271 122.307 117.342ZM134.134 122.17C133.488 122.17 133.006 122.023 132.689 121.728C132.372 121.433 132.213 120.929 132.213 120.215V113.687H130.989V112.922C131.046 112.911 131.204 112.871 131.465 112.803C131.726 112.735 131.901 112.673 131.992 112.616C132.173 112.514 132.315 112.31 132.417 112.004C132.508 111.789 132.615 111.443 132.74 110.967C132.865 110.491 132.938 110.208 132.961 110.117H133.964L133.998 112.565H136.837V113.687H133.998V118.906C133.998 119.552 134.015 120.005 134.049 120.266C134.094 120.527 134.179 120.697 134.304 120.776C134.44 120.855 134.667 120.895 134.984 120.895C135.29 120.895 135.624 120.855 135.987 120.776C136.361 120.697 136.65 120.612 136.854 120.521L137.109 121.286C136.837 121.49 136.395 121.688 135.783 121.881C135.182 122.074 134.633 122.17 134.134 122.17Z" fill="#F2F2F2"/>
</g>
<defs>
<filter id="filter0_d_3_15" x="0" y="71.6273" width="230.858" height="93.436" filterUnits="userSpaceOnUse" color-interpolation-filters="sRGB">
<feFlood flood-opacity="0" result="BackgroundImageFix"/>
<feColorMatrix in="SourceAlpha" type="matrix" values="0 0 0 0 0 0 0 0 0 0 0 0 0 0 0 0 0 0 127 0" result="hardAlpha"/>
<feOffset dy="4"/>
<feGaussianBlur stdDeviation="2"/>
<feComposite in2="hardAlpha" operator="out"/>
<feColorMatrix type="matrix" values="0 0 0 0 0 0 0 0 0 0 0 0 0 0 0 0 0 0 0.25 0"/>
<feBlend mode="normal" in2="BackgroundImageFix" result="effect1_dropShadow_3_15"/>
<feBlend mode="normal" in="SourceGraphic" in2="effect1_dropShadow_3_15" result="shape"/>
</filter>
</defs>
</svg>
