<svg width="232" height="221" viewBox="0 0 232 221" fill="none" xmlns="http://www.w3.org/2000/svg">
<g id="leaf-figma">
<g id="Vector" filter="url(#filter0_d_3_16)">
<path d="M4 107.639C7.98278 105.645 7.98278 105.645 11.6093 106.607C12.649 106.178 13.6887 105.749 14.7599 105.307C15.4074 106.083 16.0549 106.859 16.7221 107.659C17.5459 106.971 18.3698 106.284 19.2186 105.575C19.6503 106.093 20.082 106.61 20.5267 107.143C23.4372 106.144 26.2937 105.116 29.1463 103.939C29.578 104.456 30.0097 104.973 30.4544 105.506C31.5529 104.59 32.6514 103.673 33.7832 102.729C34.2148 103.246 34.6465 103.763 35.0913 104.296C35.8195 103.634 36.5477 102.971 37.298 102.289C40.0844 100.13 40.0844 100.13 42.0905 99.6656C45.8949 98.5864 49.1109 96.5385 52.5046 94.5017C53.2172 94.079 53.9298 93.6562 54.664 93.2207C59.858 90.114 64.8759 86.8305 69.8063 83.3046C70.4538 84.0805 71.1013 84.8564 71.7685 85.6559C73.4162 84.2809 75.0639 82.9059 76.7616 81.4892C77.1932 82.0065 77.6249 82.5238 78.0697 83.0568C81.0317 81.0238 83.9937 78.9908 87.0455 76.8962C87.4772 77.4135 87.9089 77.9308 88.3536 78.4637C90.2172 77.3474 92.0808 76.231 94.0008 75.0809C94.4325 75.5982 94.8641 76.1155 95.3089 76.6484C96.8391 76.2491 98.3692 75.8497 99.9457 75.4382C100.377 75.9555 100.809 76.4728 101.254 77.0058C102.508 76.206 102.508 76.206 103.788 75.39C106.603 73.7923 108.411 72.7877 111.538 72.4127C113.46 73.0246 115.382 73.6364 117.305 74.2483C118.524 73.93 118.524 73.93 119.768 73.6054C121.941 73.0381 121.941 73.0381 123.955 74.1828C124.429 74.6105 124.902 75.0381 125.39 75.4788C126.214 74.7913 127.038 74.1038 127.886 73.3954C129.83 73.9496 131.753 74.5628 133.653 75.231C134.418 75.0313 135.183 74.8317 135.972 74.6259C136.403 75.1432 136.835 75.6605 137.28 76.1935C138.839 75.5502 138.839 75.5502 140.43 74.8939C141.294 75.9285 142.157 76.9631 143.047 78.0291C144.145 77.1124 145.244 76.1958 146.375 75.2513C147.053 75.6452 147.732 76.0391 148.43 76.445C151.575 77.9045 154.447 78.3684 157.909 78.9225C159.336 79.5046 160.763 80.0866 162.189 80.6687C162.955 80.469 163.72 80.2694 164.508 80.0636C165.803 81.6155 167.098 83.1674 168.432 84.7663C169.472 84.3375 170.512 83.9086 171.583 83.4668C173.065 84.3858 174.539 85.3216 175.95 86.3407C178.065 87.7204 180.239 88.6699 182.578 89.6647C186.352 91.3459 188.658 93.0742 190.965 96.5433C191.514 96.085 192.064 95.6267 192.629 95.1544C193.709 96.4477 194.788 97.7409 195.9 99.0733C196.449 98.615 196.998 98.1567 197.564 97.6845C198.119 98.1842 198.675 98.684 199.247 99.1989C203.887 103.209 207.41 105.922 213.676 106.842C214.441 106.642 215.206 106.443 215.995 106.237C216.642 107.013 217.29 107.789 217.957 108.588C218.781 107.901 219.604 107.213 220.453 106.505C222.67 108.604 224.888 110.702 227.172 112.865C226.623 113.323 226.073 113.781 225.508 114.254C219.255 113.527 219.255 113.527 217.6 111.545C217.051 112.003 216.502 112.461 215.936 112.934C215.355 112.377 214.774 111.82 214.175 111.246C213.016 110.485 213.016 110.485 211.834 109.709C210.28 110.073 208.734 110.48 207.197 110.919C205.269 110.321 203.347 109.71 201.43 109.084C200.39 109.513 199.351 109.942 198.279 110.383C192.949 109.07 192.949 109.07 191.204 106.98C190.555 107.195 189.906 107.409 189.237 107.63C186.156 108.277 183.977 107.983 180.946 107.48C176.624 106.734 176.624 106.734 172.359 108.081C168.777 107.96 165.246 107.662 161.688 107.346C158.853 107.087 158.853 107.087 155.833 108.576C155.401 108.059 154.969 107.542 154.524 107.009C153.714 107.329 152.904 107.648 152.069 107.978C149.055 108.913 149.055 108.913 146.785 108.73C143.857 108.617 142.27 109.743 139.782 111.334C140.704 111.881 141.626 112.427 142.576 112.991C144.596 112.211 144.596 112.211 146.559 110.997C148.118 110.353 148.118 110.353 149.71 109.697C150.357 110.473 151.005 111.249 151.672 112.049C153.967 111.449 153.967 111.449 156.309 110.838C156.74 111.356 157.172 111.873 157.617 112.406C158.291 112.063 158.965 111.719 159.66 111.365C163.964 110.28 167.185 110.898 171.429 111.558C174.614 111.971 177.686 111.758 180.92 111.573C181.352 112.091 181.784 112.608 182.229 113.141C183.192 112.83 183.192 112.83 184.175 112.513C187.259 111.845 189.748 111.898 192.81 112.288C193.242 112.805 193.674 113.323 194.118 113.856C195.158 113.427 196.198 112.998 197.269 112.556C199.971 112.933 202.667 113.343 205.354 113.787C206.119 113.587 206.884 113.387 207.673 113.181C209.869 114.756 209.869 114.756 211.775 116.406C208.628 118.291 205.87 119.536 202.323 120.305C201.892 119.787 201.46 119.27 201.015 118.737C200.204 119.333 199.393 119.929 198.558 120.543C197.507 121.309 196.455 122.075 195.372 122.865C193.801 124.014 193.801 124.014 192.198 125.186C189.543 126.981 189.543 126.981 188.057 126.892C186.673 127.745 185.321 128.651 183.985 129.578C182.777 130.412 182.777 130.412 181.545 131.264C180.279 132.146 180.279 132.146 178.988 133.047C177.714 133.929 177.714 133.929 176.414 134.829C174.308 136.287 172.206 137.748 170.105 139.213C169.457 138.437 168.81 137.661 168.143 136.862C167.493 137.435 166.843 138.008 166.173 138.598C153.093 149.861 153.093 149.861 146.03 152.655C144.588 152.106 143.16 151.526 141.749 150.909C138.972 152.111 136.909 153.861 134.438 155.681C134.006 155.163 133.575 154.646 133.13 154.113C132.306 154.8 131.482 155.488 130.633 156.196C129.437 155.879 128.24 155.561 127.007 155.234C124.521 155.723 124.521 155.723 122.37 156.444C121.938 155.927 121.507 155.409 121.062 154.876C120.549 155.195 120.036 155.513 119.507 155.842C111.002 159.446 98.0368 158.008 89.4946 155.957C88.8471 155.181 88.1996 154.405 87.5325 153.605C86.2182 154.263 84.9039 154.921 83.5497 155.599C82.1959 154.535 80.8421 153.471 79.4473 152.375C78.898 152.833 78.3488 153.292 77.7829 153.764C72.965 152.734 68.5825 151.136 64.109 149.22C63.0557 148.865 62.0024 148.509 60.9172 148.144C56.8195 146.185 54.057 143.465 50.9694 140.241C50.4202 140.699 49.871 141.157 49.3051 141.629C48.0101 140.078 46.715 138.526 45.3808 136.927C44.5569 137.614 43.733 138.302 42.8842 139.01C41.3734 137.2 39.8625 135.389 38.3058 133.524C37.7566 133.982 37.2074 134.44 36.6415 134.913C32.2601 132.557 29.0878 129.84 25.709 126.252C24.8324 125.328 23.9557 124.404 23.0525 123.452C22.3962 122.749 21.74 122.045 21.0639 121.32C20.5146 121.779 19.9654 122.237 19.3995 122.709C17.0253 119.864 14.6511 117.019 12.2049 114.087C11.6557 114.546 11.1064 115.004 10.5405 115.476C8.38216 112.89 6.22378 110.303 4 107.639Z" fill="#358274"/>
</g>
<path id="Figma" d="M91.193 108.423L89.731 108.219V107.369H98.826L98.996 110.259H97.891L97.381 108.372L93.012 108.253V113.183L96.089 113.132L96.378 111.721H97.279V115.699H96.395L96.089 114.22L93.012 114.152V118.997L95.664 119.167V120H89.833V119.167L91.193 118.997V108.423ZM102.296 108.865C101.934 108.865 101.662 108.763 101.48 108.559C101.299 108.355 101.208 108.094 101.208 107.777C101.208 107.414 101.316 107.114 101.531 106.876C101.758 106.638 102.064 106.519 102.449 106.519C102.835 106.519 103.118 106.621 103.299 106.825C103.481 107.029 103.571 107.29 103.571 107.607C103.571 107.992 103.458 108.298 103.231 108.525C103.016 108.752 102.71 108.865 102.313 108.865H102.296ZM101.616 111.874L100.324 111.568V110.667L102.959 110.344H102.993L103.384 110.65V119.031L104.744 119.167V120H100.239V119.167L101.616 119.014V111.874ZM110.015 124.59C108.564 124.59 107.51 124.358 106.853 123.893C106.207 123.44 105.884 122.811 105.884 122.006C105.884 121.507 106.037 121.048 106.343 120.629C106.66 120.21 107.034 119.892 107.465 119.677C106.943 119.382 106.683 118.906 106.683 118.249C106.683 117.841 106.802 117.456 107.04 117.093C107.278 116.73 107.589 116.453 107.975 116.26C107.408 116.011 106.972 115.654 106.666 115.189C106.371 114.724 106.224 114.175 106.224 113.54C106.224 112.883 106.405 112.31 106.768 111.823C107.142 111.336 107.629 110.962 108.23 110.701C108.842 110.44 109.488 110.31 110.168 110.31C111.312 110.31 112.208 110.548 112.854 111.024C113.024 110.854 113.284 110.69 113.636 110.531C113.987 110.372 114.361 110.293 114.758 110.293H115.336V111.789H113.466C113.738 112.208 113.874 112.696 113.874 113.251C113.874 113.92 113.704 114.515 113.364 115.036C113.035 115.546 112.57 115.943 111.97 116.226C111.38 116.509 110.712 116.651 109.964 116.651C109.476 116.651 109.04 116.6 108.655 116.498C108.496 116.657 108.366 116.832 108.264 117.025C108.162 117.218 108.111 117.405 108.111 117.586C108.111 117.994 108.247 118.277 108.519 118.436C108.791 118.583 109.278 118.657 109.981 118.657H111.902C113.001 118.657 113.817 118.867 114.35 119.286C114.882 119.705 115.149 120.3 115.149 121.071C115.149 121.717 114.916 122.306 114.452 122.839C113.987 123.383 113.358 123.808 112.565 124.114C111.783 124.431 110.933 124.59 110.015 124.59ZM110.134 115.716C111.426 115.716 112.072 114.951 112.072 113.421C112.072 112.662 111.902 112.106 111.562 111.755C111.233 111.392 110.734 111.211 110.066 111.211C109.442 111.211 108.949 111.387 108.587 111.738C108.224 112.078 108.043 112.628 108.043 113.387C108.043 114.101 108.213 114.668 108.553 115.087C108.904 115.506 109.431 115.716 110.134 115.716ZM110.168 123.604C110.723 123.604 111.244 123.519 111.732 123.349C112.23 123.19 112.633 122.947 112.939 122.618C113.245 122.301 113.398 121.927 113.398 121.496C113.398 120.986 113.262 120.612 112.99 120.374C112.718 120.147 112.191 120.034 111.409 120.034H109.403C108.949 120.034 108.592 120.006 108.332 119.949C107.867 120.459 107.635 121.031 107.635 121.666C107.635 122.301 107.827 122.782 108.213 123.111C108.598 123.44 109.25 123.604 110.168 123.604ZM116.261 119.167L117.298 119.014V111.874L116.074 111.568V110.65L118.505 110.344L118.811 110.565L118.913 111.245L118.896 111.789C119.292 111.426 119.831 111.098 120.511 110.803C121.202 110.497 121.82 110.344 122.364 110.344C122.976 110.344 123.469 110.446 123.843 110.65C124.217 110.854 124.5 111.171 124.693 111.602C125.055 111.296 125.56 111.013 126.206 110.752C126.863 110.48 127.475 110.344 128.042 110.344C128.744 110.344 129.294 110.48 129.691 110.752C130.087 111.013 130.365 111.426 130.524 111.993C130.694 112.548 130.779 113.296 130.779 114.237V119.014L132.003 119.167V120H127.957V119.167L129.011 119.014V114.288C129.011 113.631 128.96 113.109 128.858 112.724C128.767 112.327 128.586 112.033 128.314 111.84C128.053 111.647 127.673 111.551 127.175 111.551C126.801 111.551 126.404 111.636 125.985 111.806C125.565 111.965 125.208 112.157 124.914 112.384C125.016 112.826 125.067 113.455 125.067 114.271V119.014L126.274 119.167V120H122.16V119.167L123.282 119.014V114.254C123.282 113.574 123.236 113.047 123.146 112.673C123.066 112.299 122.908 112.021 122.67 111.84C122.432 111.647 122.069 111.551 121.582 111.551C121.174 111.551 120.737 111.653 120.273 111.857C119.819 112.061 119.423 112.299 119.083 112.571V119.014L120.222 119.167V120H116.261V119.167ZM133.195 117.45C133.195 116.385 133.727 115.603 134.793 115.104C135.858 114.594 137.207 114.322 138.839 114.288V113.812C138.839 113.279 138.782 112.86 138.669 112.554C138.555 112.248 138.357 112.027 138.074 111.891C137.802 111.744 137.411 111.67 136.901 111.67C136.323 111.67 135.801 111.755 135.337 111.925C134.883 112.084 134.43 112.282 133.977 112.52L133.552 111.636C133.699 111.511 133.971 111.347 134.368 111.143C134.764 110.939 135.223 110.758 135.745 110.599C136.266 110.44 136.787 110.361 137.309 110.361C138.113 110.361 138.748 110.474 139.213 110.701C139.689 110.916 140.029 111.268 140.233 111.755C140.437 112.242 140.539 112.894 140.539 113.71V119.167H141.542V119.915C141.315 119.972 141.026 120.028 140.675 120.085C140.335 120.142 140.034 120.17 139.774 120.17C139.456 120.17 139.241 120.119 139.128 120.017C139.014 119.926 138.958 119.717 138.958 119.388V118.827C138.618 119.167 138.198 119.479 137.7 119.762C137.212 120.045 136.657 120.187 136.034 120.187C135.218 120.187 134.538 119.955 133.994 119.49C133.461 119.014 133.195 118.334 133.195 117.45ZM136.765 119.031C137.059 119.031 137.399 118.94 137.785 118.759C138.17 118.578 138.521 118.362 138.839 118.113V115.189C137.603 115.189 136.668 115.382 136.034 115.767C135.41 116.141 135.099 116.634 135.099 117.246C135.099 117.858 135.246 118.311 135.541 118.606C135.847 118.889 136.255 119.031 136.765 119.031Z" fill="#F2F2F2"/>
</g>
<defs>
<filter id="filter0_d_3_16" x="0" y="72.4127" width="231.172" height="93.6354" filterUnits="userSpaceOnUse" color-interpolation-filters="sRGB">
<feFlood flood-opacity="0" result="BackgroundImageFix"/>
<feColorMatrix in="SourceAlpha" type="matrix" values="0 0 0 0 0 0 0 0 0 0 0 0 0 0 0 0 0 0 127 0" result="hardAlpha"/>
<feOffset dy="4"/>
<feGaussianBlur stdDeviation="2"/>
<feComposite in2="hardAlpha" operator="out"/>
<feColorMatrix type="matrix" values="0 0 0 0 0 0 0 0 0 0 0 0 0 0 0 0 0 0 0.25 0"/>
<feBlend mode="normal" in2="BackgroundImageFix" result="effect1_dropShadow_3_16"/>
<feBlend mode="normal" in="SourceGraphic" in2="effect1_dropShadow_3_16" result="shape"/>
</filter>
</defs>
</svg>
