<svg width="231" height="220" viewBox="0 0 231 220" fill="none" xmlns="http://www.w3.org/2000/svg">
<g id="leaf-responsive-design">
<g id="Vector" filter="url(#filter0_d_3_18)">
<path d="M4 103.112C8.04937 101.257 8.04937 101.257 11.6404 102.344C12.6943 101.952 13.7483 101.559 14.8341 101.155C15.4544 101.952 16.0747 102.75 16.7137 103.572C17.5609 102.914 18.408 102.255 19.2809 101.577C19.6944 102.109 20.1079 102.641 20.534 103.189C23.4772 102.291 26.3676 101.362 29.2593 100.284C29.6728 100.816 30.0863 101.348 30.5124 101.896C31.6419 101.018 32.7714 100.14 33.9352 99.2354C34.3487 99.7673 34.7622 100.299 35.1883 100.847C35.939 100.21 36.6897 99.5734 37.4632 98.9171C40.3225 96.8558 40.3225 96.8558 42.3435 96.4616C46.1829 95.5146 49.4679 93.5791 52.93 91.661C53.6568 91.2632 54.3836 90.8653 55.1324 90.4555C60.4308 87.5303 65.5592 84.4223 70.6087 81.0691C71.229 81.8669 71.8493 82.6648 72.4884 83.4869C74.1827 82.1697 75.877 80.8525 77.6226 79.4955C78.0361 80.0274 78.4496 80.5593 78.8757 81.1073C81.9063 79.178 84.9369 77.2487 88.0593 75.2609C88.4728 75.7928 88.8864 76.3247 89.3124 76.8728C91.2135 75.8215 93.1145 74.7703 95.0732 73.6873C95.4867 74.2192 95.9002 74.7511 96.3263 75.2991C97.8694 74.9529 99.4124 74.6067 101.002 74.2501C101.416 74.782 101.829 75.3139 102.255 75.8619C103.536 75.106 103.536 75.106 104.843 74.3348C107.712 72.8354 109.554 71.894 112.692 71.6274C114.592 72.3054 116.492 72.9833 118.392 73.6613C119.622 73.3855 119.622 73.3855 120.876 73.104C123.068 72.6123 123.068 72.6123 125.041 73.8259C125.499 74.2697 125.958 74.7135 126.43 75.1708C127.277 74.5122 128.124 73.8536 128.997 73.1751C130.92 73.796 132.821 74.4755 134.697 75.209C135.468 75.0359 136.24 74.8628 137.035 74.6845C137.448 75.2164 137.862 75.7483 138.288 76.2964C139.869 75.7074 139.869 75.7074 141.481 75.1066C142.308 76.1704 143.136 77.2343 143.988 78.3303C145.117 77.4522 146.247 76.5741 147.41 75.6694C148.075 76.0865 148.739 76.5037 149.423 76.9335C152.516 78.5008 155.37 79.0638 158.81 79.7373C160.216 80.3684 161.622 80.9995 163.028 81.6306C163.799 81.4575 164.571 81.2844 165.366 81.1061C166.606 82.7018 167.847 84.2976 169.125 85.9417C170.179 85.5491 171.233 85.1565 172.319 84.7519C173.768 85.7217 175.209 86.7079 176.584 87.7752C178.65 89.2273 180.79 90.2514 183.093 91.3265C186.807 93.1373 189.051 94.9443 191.237 98.4912C191.802 98.0521 192.367 97.613 192.948 97.1607C193.982 98.4905 195.016 99.8203 196.081 101.19C196.646 100.751 197.211 100.312 197.793 99.8599C198.33 100.379 198.868 100.897 199.422 101.432C203.921 105.599 207.348 108.433 213.578 109.569C214.35 109.396 215.121 109.223 215.916 109.045C216.536 109.843 217.157 110.641 217.796 111.463C218.643 110.804 219.49 110.146 220.363 109.467C222.506 111.641 224.649 113.815 226.858 116.055C226.293 116.494 225.728 116.933 225.146 117.386C218.922 116.444 218.922 116.444 217.337 114.405C216.773 114.844 216.208 115.283 215.626 115.736C215.064 115.159 214.503 114.582 213.924 113.988C212.792 113.187 212.792 113.187 211.638 112.371C210.073 112.681 208.514 113.034 206.962 113.42C205.056 112.756 203.156 112.079 201.262 111.386C200.208 111.779 199.154 112.171 198.068 112.576C192.786 111.079 192.786 111.079 191.115 108.93C190.459 109.122 189.803 109.314 189.127 109.511C186.024 110.051 183.857 109.682 180.845 109.075C176.552 108.18 176.552 108.18 172.243 109.378C168.668 109.133 165.148 108.714 161.604 108.275C158.78 107.917 158.78 107.917 155.709 109.302C155.296 108.77 154.882 108.238 154.456 107.69C153.635 107.981 152.814 108.273 151.968 108.573C148.925 109.404 148.925 109.404 146.662 109.143C143.739 108.928 142.115 109.998 139.573 111.502C140.475 112.081 141.378 112.659 142.308 113.255C144.354 112.546 144.354 112.546 146.357 111.4C147.938 110.811 147.938 110.811 149.551 110.21C150.171 111.008 150.792 111.806 151.431 112.628C153.745 112.109 153.745 112.109 156.107 111.579C156.52 112.111 156.934 112.643 157.36 113.191C158.046 112.871 158.731 112.551 159.438 112.222C163.777 111.285 166.975 112.015 171.193 112.821C174.362 113.344 177.44 113.237 180.678 113.165C181.092 113.697 181.506 114.229 181.932 114.777C182.905 114.499 182.905 114.499 183.899 114.217C187.004 113.656 189.489 113.794 192.537 114.29C192.95 114.822 193.364 115.354 193.79 115.902C194.844 115.51 195.897 115.117 196.983 114.712C199.67 115.183 202.35 115.685 205.021 116.222C205.793 116.049 206.564 115.876 207.359 115.697C209.499 117.347 209.499 117.347 211.348 119.062C208.137 120.837 205.338 121.986 201.767 122.631C201.353 122.099 200.939 121.567 200.513 121.019C199.682 121.587 198.851 122.155 197.995 122.74C196.918 123.469 195.841 124.198 194.731 124.949C193.121 126.043 193.121 126.043 191.478 127.16C188.763 128.861 188.763 128.861 187.28 128.721C185.868 129.526 184.485 130.384 183.118 131.265C181.882 132.057 181.882 132.057 180.621 132.865C179.326 133.703 179.326 133.703 178.004 134.558C176.7 135.396 176.7 135.396 175.37 136.25C173.215 137.635 171.063 139.022 168.913 140.414C168.293 139.616 167.673 138.818 167.034 137.996C166.364 138.546 165.695 139.096 165.005 139.664C151.544 150.467 151.544 150.467 144.388 153.015C142.966 152.416 141.558 151.787 140.17 151.122C137.353 152.227 135.231 153.904 132.698 155.638C132.284 155.106 131.871 154.574 131.445 154.026C130.598 154.684 129.751 155.343 128.878 156.021C127.693 155.663 126.508 155.304 125.287 154.934C122.785 155.337 122.785 155.337 120.611 155.983C120.197 155.451 119.784 154.919 119.358 154.371C118.834 154.672 118.31 154.972 117.77 155.282C109.146 158.59 96.2381 156.704 87.772 154.359C87.1517 153.561 86.5314 152.763 85.8924 151.941C84.5561 152.553 83.2198 153.165 81.843 153.796C80.5268 152.686 79.2106 151.576 77.8545 150.432C77.2898 150.871 76.725 151.31 76.1431 151.762C71.3638 150.566 67.0391 148.818 62.6346 146.748C61.5942 146.356 60.5538 145.965 59.4819 145.562C55.4545 143.463 52.7877 140.649 49.8135 137.319C49.2488 137.758 48.684 138.198 48.1021 138.65C46.8616 137.054 45.621 135.458 44.3428 133.814C43.4957 134.473 42.6485 135.131 41.7757 135.81C40.3284 133.948 38.8811 132.087 37.3899 130.168C36.8251 130.607 36.2603 131.047 35.6785 131.499C31.3812 128.993 28.3048 126.168 25.0521 122.466C24.208 121.512 23.3638 120.558 22.494 119.575C21.8625 118.849 21.231 118.124 20.5804 117.376C20.0156 117.815 19.4508 118.254 18.8689 118.706C16.5946 115.781 14.3202 112.855 11.9769 109.841C11.4121 110.28 10.8474 110.719 10.2655 111.171C8.19788 108.512 6.13027 105.852 4 103.112Z" fill="#358274"/>
</g>
<path id="Responsive web design" d="M67.6521 116.167L69.0631 115.997V105.423L67.7371 105.202V104.369H69.9641C70.2815 104.369 70.7121 104.346 71.2561 104.301C71.8228 104.256 72.2648 104.233 72.5821 104.233C74.2481 104.233 75.4325 104.505 76.1351 105.049C76.8491 105.582 77.2061 106.426 77.2061 107.582C77.2061 108.387 76.9795 109.123 76.5261 109.792C76.0841 110.461 75.4721 110.914 74.6901 111.152C75.0528 111.345 75.3871 111.679 75.6931 112.155C76.0105 112.62 76.3958 113.271 76.8491 114.11C77.2005 114.745 77.4668 115.209 77.6481 115.504C77.8408 115.799 78.0221 115.963 78.1921 115.997L78.8551 116.167V117H76.5091C76.3278 117 76.1238 116.807 75.8971 116.422C75.6705 116.025 75.3701 115.419 74.9961 114.603C74.5881 113.708 74.2311 112.999 73.9251 112.478C73.6305 111.945 73.3358 111.605 73.0411 111.458C71.8285 111.458 71.1088 111.452 70.8821 111.441V115.997L72.5651 116.167V117H67.6521V116.167ZM72.9051 110.54C73.6305 110.54 74.2028 110.302 74.6221 109.826C75.0415 109.35 75.2511 108.642 75.2511 107.701C75.2511 106.874 75.0358 106.245 74.6051 105.814C74.1858 105.372 73.4548 105.151 72.4121 105.151C72.0495 105.151 71.6868 105.174 71.3241 105.219C71.0975 105.242 70.9501 105.253 70.8821 105.253V110.523C71.0521 110.534 71.4035 110.54 71.9361 110.54H72.9051ZM83.7868 117.187C82.4155 117.187 81.3672 116.739 80.6418 115.844C79.9278 114.949 79.5708 113.753 79.5708 112.257C79.5708 111.271 79.7578 110.404 80.1318 109.656C80.5058 108.908 81.0272 108.33 81.6958 107.922C82.3758 107.514 83.1465 107.31 84.0078 107.31C85.0618 107.31 85.8778 107.605 86.4558 108.194C87.0452 108.772 87.3568 109.605 87.3908 110.693C87.3908 111.384 87.3512 111.911 87.2718 112.274H81.4238C81.4465 113.396 81.7072 114.303 82.2058 114.994C82.7045 115.674 83.4128 116.014 84.3308 116.014C84.7842 116.014 85.2545 115.935 85.7418 115.776C86.2405 115.606 86.6258 115.408 86.8978 115.181L87.2208 115.929C86.8922 116.269 86.4048 116.564 85.7588 116.813C85.1128 117.062 84.4555 117.187 83.7868 117.187ZM85.5208 111.373C85.5548 111.135 85.5718 110.891 85.5718 110.642C85.5605 109.905 85.4018 109.327 85.0958 108.908C84.8012 108.477 84.3308 108.262 83.6848 108.262C83.0275 108.262 82.5005 108.5 82.1038 108.976C81.7185 109.452 81.4975 110.251 81.4408 111.373H85.5208ZM90.4329 115.64C90.5462 115.81 90.7842 115.963 91.1469 116.099C91.5209 116.235 91.9119 116.303 92.3199 116.303C92.9659 116.303 93.4419 116.178 93.7479 115.929C94.0539 115.68 94.2069 115.334 94.2069 114.892C94.2069 114.586 94.1106 114.32 93.9179 114.093C93.7252 113.866 93.4532 113.668 93.1019 113.498C92.7619 113.317 92.2689 113.101 91.6229 112.852C90.7502 112.523 90.1099 112.132 89.7019 111.679C89.3052 111.214 89.1069 110.608 89.1069 109.86C89.1069 109.361 89.2542 108.925 89.5489 108.551C89.8549 108.177 90.2686 107.888 90.7899 107.684C91.3226 107.469 91.9119 107.361 92.5579 107.361C93.0792 107.361 93.5326 107.401 93.9179 107.48C94.3146 107.559 94.6319 107.639 94.8699 107.718C95.1079 107.797 95.2666 107.848 95.3459 107.871V109.979H94.3089L93.9689 108.721C93.9009 108.585 93.7196 108.472 93.4249 108.381C93.1302 108.279 92.8016 108.228 92.4389 108.228C91.9289 108.228 91.5152 108.341 91.1979 108.568C90.8919 108.795 90.7389 109.101 90.7389 109.486C90.7389 109.826 90.8182 110.109 90.9769 110.336C91.1469 110.551 91.3566 110.727 91.6059 110.863C91.8552 110.999 92.1952 111.158 92.6259 111.339L92.9659 111.475C93.6006 111.724 94.1162 111.962 94.5129 112.189C94.9096 112.416 95.2382 112.716 95.4989 113.09C95.7709 113.453 95.9069 113.9 95.9069 114.433C95.9069 115.272 95.5782 115.94 94.9209 116.439C94.2749 116.938 93.3852 117.187 92.2519 117.187C91.6966 117.187 91.1129 117.113 90.5009 116.966C89.9002 116.807 89.4072 116.649 89.0219 116.49V114.314H90.1269L90.4329 115.64ZM106.632 111.951C106.632 112.914 106.434 113.798 106.037 114.603C105.64 115.396 105.074 116.025 104.337 116.49C103.6 116.955 102.739 117.187 101.753 117.187C101.481 117.187 101.186 117.164 100.869 117.119C100.552 117.074 100.297 117.017 100.104 116.949L100.155 118.377V120.094L101.923 120.281V121.114H97.1799V120.281L98.4039 120.094V108.874L97.1629 108.568V107.65L99.5769 107.344H99.6109L99.9679 107.65V108.653C100.308 108.279 100.727 107.962 101.226 107.701C101.736 107.44 102.303 107.31 102.926 107.31C103.595 107.31 104.207 107.474 104.762 107.803C105.329 108.132 105.782 108.642 106.122 109.333C106.462 110.024 106.632 110.897 106.632 111.951ZM102.229 108.5C101.798 108.5 101.396 108.591 101.022 108.772C100.648 108.953 100.359 109.152 100.155 109.367V115.776C100.234 115.912 100.433 116.037 100.75 116.15C101.079 116.252 101.436 116.303 101.821 116.303C102.694 116.303 103.396 115.957 103.929 115.266C104.473 114.575 104.745 113.532 104.745 112.138C104.745 110.914 104.507 110.002 104.031 109.401C103.566 108.8 102.966 108.5 102.229 108.5ZM108.11 112.257C108.11 111.237 108.319 110.353 108.739 109.605C109.158 108.857 109.708 108.29 110.388 107.905C111.079 107.508 111.816 107.31 112.598 107.31C114.026 107.31 115.097 107.763 115.811 108.67C116.536 109.577 116.899 110.767 116.899 112.24C116.899 113.271 116.689 114.161 116.27 114.909C115.85 115.657 115.295 116.224 114.604 116.609C113.924 116.994 113.193 117.187 112.411 117.187C110.983 117.187 109.906 116.734 109.181 115.827C108.467 114.92 108.11 113.73 108.11 112.257ZM112.513 116.218C113.295 116.218 113.895 115.895 114.315 115.249C114.734 114.603 114.944 113.645 114.944 112.376C114.944 111.118 114.751 110.121 114.366 109.384C113.98 108.647 113.363 108.279 112.513 108.279C111.731 108.279 111.124 108.602 110.694 109.248C110.274 109.894 110.065 110.852 110.065 112.121C110.065 113.379 110.263 114.376 110.66 115.113C111.056 115.85 111.674 116.218 112.513 116.218ZM119.473 108.874L118.248 108.568V107.65L120.68 107.344H120.731L121.088 107.65V108.364L121.071 108.772C121.479 108.409 122.017 108.081 122.685 107.786C123.354 107.491 123.995 107.344 124.607 107.344C125.321 107.344 125.87 107.48 126.256 107.752C126.652 108.024 126.93 108.443 127.089 109.01C127.247 109.565 127.327 110.319 127.327 111.271V116.031L128.517 116.15V117H124.488V116.167L125.542 116.031V111.254C125.542 110.585 125.496 110.064 125.406 109.69C125.315 109.305 125.145 109.021 124.896 108.84C124.646 108.647 124.284 108.551 123.808 108.551C123.4 108.551 122.963 108.653 122.499 108.857C122.034 109.061 121.62 109.299 121.258 109.571V116.014L122.414 116.167V117H118.402V116.167L119.473 116.014V108.874ZM131.323 115.64C131.436 115.81 131.674 115.963 132.037 116.099C132.411 116.235 132.802 116.303 133.21 116.303C133.856 116.303 134.332 116.178 134.638 115.929C134.944 115.68 135.097 115.334 135.097 114.892C135.097 114.586 135 114.32 134.808 114.093C134.615 113.866 134.343 113.668 133.992 113.498C133.652 113.317 133.159 113.101 132.513 112.852C131.64 112.523 131 112.132 130.592 111.679C130.195 111.214 129.997 110.608 129.997 109.86C129.997 109.361 130.144 108.925 130.439 108.551C130.745 108.177 131.158 107.888 131.68 107.684C132.212 107.469 132.802 107.361 133.448 107.361C133.969 107.361 134.422 107.401 134.808 107.48C135.204 107.559 135.522 107.639 135.76 107.718C135.998 107.797 136.156 107.848 136.236 107.871V109.979H135.199L134.859 108.721C134.791 108.585 134.609 108.472 134.315 108.381C134.02 108.279 133.691 108.228 133.329 108.228C132.819 108.228 132.405 108.341 132.088 108.568C131.782 108.795 131.629 109.101 131.629 109.486C131.629 109.826 131.708 110.109 131.867 110.336C132.037 110.551 132.246 110.727 132.496 110.863C132.745 110.999 133.085 111.158 133.516 111.339L133.856 111.475C134.49 111.724 135.006 111.962 135.403 112.189C135.799 112.416 136.128 112.716 136.389 113.09C136.661 113.453 136.797 113.9 136.797 114.433C136.797 115.272 136.468 115.94 135.811 116.439C135.165 116.938 134.275 117.187 133.142 117.187C132.586 117.187 132.003 117.113 131.391 116.966C130.79 116.807 130.297 116.649 129.912 116.49V114.314H131.017L131.323 115.64ZM140.331 105.865C139.968 105.865 139.696 105.763 139.515 105.559C139.333 105.355 139.243 105.094 139.243 104.777C139.243 104.414 139.35 104.114 139.566 103.876C139.792 103.638 140.098 103.519 140.484 103.519C140.869 103.519 141.152 103.621 141.334 103.825C141.515 104.029 141.606 104.29 141.606 104.607C141.606 104.992 141.492 105.298 141.266 105.525C141.05 105.752 140.744 105.865 140.348 105.865H140.331ZM139.651 108.874L138.359 108.568V107.667L140.994 107.344H141.028L141.419 107.65V116.031L142.779 116.167V117H138.274V116.167L139.651 116.014V108.874ZM143.204 107.565H147.148V108.364L145.941 108.585L147.658 113.481L148.372 115.64L148.984 113.549L150.701 108.585L149.545 108.364V107.565H152.996V108.364L152.112 108.585L148.831 117.136H147.386L143.969 108.585L143.204 108.364V107.565ZM157.83 117.187C156.458 117.187 155.41 116.739 154.685 115.844C153.971 114.949 153.614 113.753 153.614 112.257C153.614 111.271 153.801 110.404 154.175 109.656C154.549 108.908 155.07 108.33 155.739 107.922C156.419 107.514 157.189 107.31 158.051 107.31C159.105 107.31 159.921 107.605 160.499 108.194C161.088 108.772 161.4 109.605 161.434 110.693C161.434 111.384 161.394 111.911 161.315 112.274H155.467C155.489 113.396 155.75 114.303 156.249 114.994C156.747 115.674 157.456 116.014 158.374 116.014C158.827 116.014 159.297 115.935 159.785 115.776C160.283 115.606 160.669 115.408 160.941 115.181L161.264 115.929C160.935 116.269 160.448 116.564 159.802 116.813C159.156 117.062 158.498 117.187 157.83 117.187ZM159.564 111.373C159.598 111.135 159.615 110.891 159.615 110.642C159.603 109.905 159.445 109.327 159.139 108.908C158.844 108.477 158.374 108.262 157.728 108.262C157.07 108.262 156.543 108.5 156.147 108.976C155.761 109.452 155.54 110.251 155.484 111.373H159.564ZM67.6144 128.565H71.5754V129.364L70.2834 129.568L71.6944 134.566L72.1874 136.725L72.6804 134.549L74.3124 128.565H75.9784L77.6614 134.549L78.1544 136.742L78.6984 134.566L80.0754 129.585L78.7834 129.364V128.565H82.2344V129.364L81.3334 129.585L78.6984 138.136H77.1004L75.2984 132.135L74.8564 130.027L74.4994 132.135L72.7824 138.136H71.2014L68.4814 129.568L67.6144 129.364V128.565ZM86.9411 138.187C85.5698 138.187 84.5215 137.739 83.7961 136.844C83.0821 135.949 82.7251 134.753 82.7251 133.257C82.7251 132.271 82.9121 131.404 83.2861 130.656C83.6601 129.908 84.1815 129.33 84.8501 128.922C85.5301 128.514 86.3008 128.31 87.1621 128.31C88.2161 128.31 89.0321 128.605 89.6101 129.194C90.1995 129.772 90.5111 130.605 90.5451 131.693C90.5451 132.384 90.5055 132.911 90.4261 133.274H84.5781C84.6008 134.396 84.8615 135.303 85.3601 135.994C85.8588 136.674 86.5671 137.014 87.4851 137.014C87.9385 137.014 88.4088 136.935 88.8961 136.776C89.3948 136.606 89.7801 136.408 90.0521 136.181L90.3751 136.929C90.0465 137.269 89.5591 137.564 88.9131 137.813C88.2671 138.062 87.6098 138.187 86.9411 138.187ZM88.6751 132.373C88.7091 132.135 88.7261 131.891 88.7261 131.642C88.7148 130.905 88.5561 130.327 88.2501 129.908C87.9555 129.477 87.4851 129.262 86.8391 129.262C86.1818 129.262 85.6548 129.5 85.2581 129.976C84.8728 130.452 84.6518 131.251 84.5951 132.373H88.6751ZM91.2072 124.4L93.9272 124.077H93.9612L94.3522 124.332V129.449C94.6922 129.12 95.0945 128.848 95.5592 128.633C96.0352 128.418 96.5622 128.31 97.1402 128.31C97.8202 128.31 98.4379 128.474 98.9932 128.803C99.5599 129.132 100.008 129.642 100.336 130.333C100.676 131.024 100.846 131.897 100.846 132.951C100.846 133.926 100.642 134.81 100.234 135.603C99.8375 136.396 99.2652 137.025 98.5172 137.49C97.7692 137.955 96.9022 138.187 95.9162 138.187C95.1342 138.187 94.4202 138.113 93.7742 137.966C93.1282 137.807 92.7372 137.666 92.6012 137.541V125.301L91.2072 125.114V124.4ZM96.4432 129.517C96.0125 129.517 95.6102 129.619 95.2362 129.823C94.8735 130.016 94.5789 130.237 94.3522 130.486V136.742C94.4202 136.901 94.6129 137.031 94.9302 137.133C95.2589 137.224 95.6272 137.269 96.0352 137.269C96.9079 137.269 97.6105 136.918 98.1432 136.215C98.6759 135.512 98.9422 134.487 98.9422 133.138C98.9422 131.925 98.7099 131.019 98.2452 130.418C97.7805 129.817 97.1799 129.517 96.4432 129.517ZM110.039 138.187C109.359 138.187 108.735 138.017 108.169 137.677C107.602 137.337 107.149 136.816 106.809 136.113C106.48 135.41 106.316 134.543 106.316 133.512C106.316 132.549 106.514 131.67 106.911 130.877C107.307 130.084 107.874 129.46 108.611 129.007C109.359 128.542 110.237 128.31 111.246 128.31C111.824 128.31 112.351 128.372 112.827 128.497V125.318L111.093 125.114V124.383L114.153 124.077H114.204L114.578 124.349V137.133H115.564V137.915C115.201 137.994 114.884 138.057 114.612 138.102C114.351 138.147 114.073 138.17 113.779 138.17C113.484 138.17 113.274 138.119 113.15 138.017C113.025 137.915 112.963 137.7 112.963 137.371V136.827C112.645 137.212 112.226 137.535 111.705 137.796C111.195 138.057 110.639 138.187 110.039 138.187ZM110.719 136.98C111.161 136.98 111.574 136.884 111.96 136.691C112.345 136.487 112.634 136.255 112.827 135.994V129.772C112.736 129.636 112.521 129.517 112.181 129.415C111.852 129.302 111.501 129.245 111.127 129.245C110.243 129.245 109.534 129.585 109.002 130.265C108.48 130.934 108.22 131.971 108.22 133.376C108.22 134.6 108.452 135.507 108.917 136.096C109.381 136.685 109.982 136.98 110.719 136.98ZM121.107 138.187C119.736 138.187 118.687 137.739 117.962 136.844C117.248 135.949 116.891 134.753 116.891 133.257C116.891 132.271 117.078 131.404 117.452 130.656C117.826 129.908 118.347 129.33 119.016 128.922C119.696 128.514 120.467 128.31 121.328 128.31C122.382 128.31 123.198 128.605 123.776 129.194C124.365 129.772 124.677 130.605 124.711 131.693C124.711 132.384 124.671 132.911 124.592 133.274H118.744C118.767 134.396 119.027 135.303 119.526 135.994C120.025 136.674 120.733 137.014 121.651 137.014C122.104 137.014 122.575 136.935 123.062 136.776C123.561 136.606 123.946 136.408 124.218 136.181L124.541 136.929C124.212 137.269 123.725 137.564 123.079 137.813C122.433 138.062 121.776 138.187 121.107 138.187ZM122.841 132.373C122.875 132.135 122.892 131.891 122.892 131.642C122.881 130.905 122.722 130.327 122.416 129.908C122.121 129.477 121.651 129.262 121.005 129.262C120.348 129.262 119.821 129.5 119.424 129.976C119.039 130.452 118.818 131.251 118.761 132.373H122.841ZM127.753 136.64C127.867 136.81 128.105 136.963 128.467 137.099C128.841 137.235 129.232 137.303 129.64 137.303C130.286 137.303 130.762 137.178 131.068 136.929C131.374 136.68 131.527 136.334 131.527 135.892C131.527 135.586 131.431 135.32 131.238 135.093C131.046 134.866 130.774 134.668 130.422 134.498C130.082 134.317 129.589 134.101 128.943 133.852C128.071 133.523 127.43 133.132 127.022 132.679C126.626 132.214 126.427 131.608 126.427 130.86C126.427 130.361 126.575 129.925 126.869 129.551C127.175 129.177 127.589 128.888 128.11 128.684C128.643 128.469 129.232 128.361 129.878 128.361C130.4 128.361 130.853 128.401 131.238 128.48C131.635 128.559 131.952 128.639 132.19 128.718C132.428 128.797 132.587 128.848 132.666 128.871V130.979H131.629L131.289 129.721C131.221 129.585 131.04 129.472 130.745 129.381C130.451 129.279 130.122 129.228 129.759 129.228C129.249 129.228 128.836 129.341 128.518 129.568C128.212 129.795 128.059 130.101 128.059 130.486C128.059 130.826 128.139 131.109 128.297 131.336C128.467 131.551 128.677 131.727 128.926 131.863C129.176 131.999 129.516 132.158 129.946 132.339L130.286 132.475C130.921 132.724 131.437 132.962 131.833 133.189C132.23 133.416 132.559 133.716 132.819 134.09C133.091 134.453 133.227 134.9 133.227 135.433C133.227 136.272 132.899 136.94 132.241 137.439C131.595 137.938 130.706 138.187 129.572 138.187C129.017 138.187 128.433 138.113 127.821 137.966C127.221 137.807 126.728 137.649 126.342 137.49V135.314H127.447L127.753 136.64ZM136.761 126.865C136.399 126.865 136.127 126.763 135.945 126.559C135.764 126.355 135.673 126.094 135.673 125.777C135.673 125.414 135.781 125.114 135.996 124.876C136.223 124.638 136.529 124.519 136.914 124.519C137.3 124.519 137.583 124.621 137.764 124.825C137.946 125.029 138.036 125.29 138.036 125.607C138.036 125.992 137.923 126.298 137.696 126.525C137.481 126.752 137.175 126.865 136.778 126.865H136.761ZM136.081 129.874L134.789 129.568V128.667L137.424 128.344H137.458L137.849 128.65V137.031L139.209 137.167V138H134.704V137.167L136.081 137.014V129.874ZM144.479 142.59C143.029 142.59 141.975 142.358 141.317 141.893C140.671 141.44 140.348 140.811 140.348 140.006C140.348 139.507 140.501 139.048 140.807 138.629C141.125 138.21 141.499 137.892 141.929 137.677C141.408 137.382 141.147 136.906 141.147 136.249C141.147 135.841 141.266 135.456 141.504 135.093C141.742 134.73 142.054 134.453 142.439 134.26C141.873 134.011 141.436 133.654 141.13 133.189C140.836 132.724 140.688 132.175 140.688 131.54C140.688 130.883 140.87 130.31 141.232 129.823C141.606 129.336 142.094 128.962 142.694 128.701C143.306 128.44 143.952 128.31 144.632 128.31C145.777 128.31 146.672 128.548 147.318 129.024C147.488 128.854 147.749 128.69 148.1 128.531C148.452 128.372 148.826 128.293 149.222 128.293H149.8V129.789H147.93C148.202 130.208 148.338 130.696 148.338 131.251C148.338 131.92 148.168 132.515 147.828 133.036C147.5 133.546 147.035 133.943 146.434 134.226C145.845 134.509 145.176 134.651 144.428 134.651C143.941 134.651 143.505 134.6 143.119 134.498C142.961 134.657 142.83 134.832 142.728 135.025C142.626 135.218 142.575 135.405 142.575 135.586C142.575 135.994 142.711 136.277 142.983 136.436C143.255 136.583 143.743 136.657 144.445 136.657H146.366C147.466 136.657 148.282 136.867 148.814 137.286C149.347 137.705 149.613 138.3 149.613 139.071C149.613 139.717 149.381 140.306 148.916 140.839C148.452 141.383 147.823 141.808 147.029 142.114C146.247 142.431 145.397 142.59 144.479 142.59ZM144.598 133.716C145.89 133.716 146.536 132.951 146.536 131.421C146.536 130.662 146.366 130.106 146.026 129.755C145.698 129.392 145.199 129.211 144.53 129.211C143.907 129.211 143.414 129.387 143.051 129.738C142.689 130.078 142.507 130.628 142.507 131.387C142.507 132.101 142.677 132.668 143.017 133.087C143.369 133.506 143.896 133.716 144.598 133.716ZM144.632 141.604C145.188 141.604 145.709 141.519 146.196 141.349C146.695 141.19 147.097 140.947 147.403 140.618C147.709 140.301 147.862 139.927 147.862 139.496C147.862 138.986 147.726 138.612 147.454 138.374C147.182 138.147 146.655 138.034 145.873 138.034H143.867C143.414 138.034 143.057 138.006 142.796 137.949C142.332 138.459 142.099 139.031 142.099 139.666C142.099 140.301 142.292 140.782 142.677 141.111C143.063 141.44 143.714 141.604 144.632 141.604ZM151.763 129.874L150.539 129.568V128.65L152.97 128.344H153.021L153.378 128.65V129.364L153.361 129.772C153.769 129.409 154.307 129.081 154.976 128.786C155.644 128.491 156.285 128.344 156.897 128.344C157.611 128.344 158.16 128.48 158.546 128.752C158.942 129.024 159.22 129.443 159.379 130.01C159.537 130.565 159.617 131.319 159.617 132.271V137.031L160.807 137.15V138H156.778V137.167L157.832 137.031V132.254C157.832 131.585 157.786 131.064 157.696 130.69C157.605 130.305 157.435 130.021 157.186 129.84C156.936 129.647 156.574 129.551 156.098 129.551C155.69 129.551 155.253 129.653 154.789 129.857C154.324 130.061 153.91 130.299 153.548 130.571V137.014L154.704 137.167V138H150.692V137.167L151.763 137.014V129.874Z" fill="#F2F2F2"/>
</g>
<defs>
<filter id="filter0_d_3_18" x="0" y="71.6273" width="230.858" height="93.436" filterUnits="userSpaceOnUse" color-interpolation-filters="sRGB">
<feFlood flood-opacity="0" result="BackgroundImageFix"/>
<feColorMatrix in="SourceAlpha" type="matrix" values="0 0 0 0 0 0 0 0 0 0 0 0 0 0 0 0 0 0 127 0" result="hardAlpha"/>
<feOffset dy="4"/>
<feGaussianBlur stdDeviation="2"/>
<feComposite in2="hardAlpha" operator="out"/>
<feColorMatrix type="matrix" values="0 0 0 0 0 0 0 0 0 0 0 0 0 0 0 0 0 0 0.25 0"/>
<feBlend mode="normal" in2="BackgroundImageFix" result="effect1_dropShadow_3_18"/>
<feBlend mode="normal" in="SourceGraphic" in2="effect1_dropShadow_3_18" result="shape"/>
</filter>
</defs>
</svg>
