<svg width="232" height="220" viewBox="0 0 232 220" fill="none" xmlns="http://www.w3.org/2000/svg">
<g id="leaf-git">
<g id="Vector" filter="url(#filter0_d_3_17)">
<path d="M4 105.369C8.01701 103.445 8.01701 103.445 11.6262 104.47C12.6732 104.06 13.7202 103.649 14.799 103.226C15.4328 104.013 16.0667 104.8 16.7198 105.611C17.5555 104.938 18.3913 104.265 19.2523 103.572C19.6749 104.097 20.0975 104.621 20.5329 105.162C23.4603 104.214 26.3343 103.236 29.2071 102.109C29.6297 102.634 30.0523 103.159 30.4876 103.699C31.602 102.802 32.7163 101.905 33.8644 100.98C34.287 101.505 34.7095 102.029 35.1449 102.57C35.8846 101.92 36.6243 101.271 37.3864 100.601C40.21 98.4914 40.21 98.4914 42.2239 98.0625C46.0466 97.05 49.2979 95.0585 52.7267 93.0813C53.4466 92.6711 54.1665 92.2609 54.9081 91.8382C60.1557 88.8228 65.2301 85.6274 70.2214 82.1881C70.8552 82.9753 71.4891 83.7624 72.1421 84.5734C73.8136 83.2274 75.4851 81.8814 77.2073 80.4946C77.6298 81.0193 78.0524 81.5441 78.4878 82.0848C81.4849 80.1038 84.482 78.1229 87.5699 76.0819C87.9925 76.6066 88.4151 77.1314 88.8504 77.672C90.7332 76.5884 92.616 75.5048 94.5558 74.3883C94.9784 74.9131 95.401 75.4379 95.8363 75.9785C97.3732 75.6059 98.9101 75.2334 100.494 74.8495C100.916 75.3742 101.339 75.899 101.774 76.4397C103.042 75.6619 103.042 75.6619 104.336 74.8684C107.178 73.3201 109.004 72.3473 112.137 72.0269C114.048 72.6723 115.959 73.3176 117.871 73.963C119.095 73.6661 119.095 73.6661 120.345 73.3632C122.528 72.834 122.528 72.834 124.522 74.0137C124.987 74.4496 125.453 74.8854 125.933 75.3345C126.769 74.6615 127.605 73.9885 128.466 73.2951C130.399 73.8831 132.311 74.5298 134.2 75.2312C134.968 75.0449 135.736 74.8586 136.528 74.6667C136.951 75.1914 137.373 75.7162 137.809 76.2568C139.379 75.6409 139.379 75.6409 140.982 75.0125C141.827 76.062 142.672 77.1116 143.543 78.1929C144.657 77.2955 145.771 76.3982 146.919 75.4737C147.59 75.8794 148.262 76.2851 148.953 76.7031C152.072 78.2173 154.935 78.7313 158.387 79.3458C159.804 79.9527 161.22 80.5596 162.636 81.1665C163.405 80.9802 164.173 80.7939 164.965 80.602C166.233 82.1763 167.501 83.7506 168.807 85.3725C169.854 84.9619 170.901 84.5513 171.98 84.1282C173.446 85.0731 174.903 86.0344 176.296 87.078C178.386 88.4945 180.544 89.4817 182.865 90.5173C186.609 92.2642 188.884 94.0325 191.13 97.5414C191.688 97.0927 192.245 96.644 192.819 96.1818C193.875 97.4937 194.932 98.8056 196.02 100.157C196.577 99.7085 197.134 99.2599 197.708 98.7976C198.255 99.307 198.802 99.8164 199.365 100.341C203.934 104.431 207.409 107.206 213.658 108.235C214.426 108.049 215.195 107.863 215.987 107.671C216.621 108.458 217.254 109.245 217.907 110.056C218.743 109.383 219.579 108.71 220.44 108.017C222.62 110.154 224.8 112.291 227.047 114.493C226.489 114.941 225.932 115.39 225.358 115.852C219.119 115.017 219.119 115.017 217.5 113.006C216.942 113.455 216.385 113.903 215.811 114.365C215.24 113.798 214.668 113.231 214.08 112.647C212.934 111.866 212.934 111.866 211.766 111.07C210.206 111.406 208.654 111.787 207.108 112.199C205.192 111.567 203.28 110.923 201.375 110.263C200.328 110.673 199.281 111.084 198.202 111.507C192.895 110.101 192.895 110.101 191.187 107.981C190.535 108.184 189.882 108.387 189.209 108.596C186.117 109.189 183.943 108.857 180.922 108.302C176.614 107.48 176.614 107.48 172.326 108.752C168.747 108.568 165.221 108.209 161.669 107.831C158.839 107.522 158.839 107.522 155.793 108.959C155.37 108.434 154.948 107.909 154.513 107.369C153.697 107.674 152.881 107.98 152.04 108.295C149.011 109.177 149.011 109.177 146.744 108.955C143.819 108.79 142.213 109.888 139.697 111.435C140.609 111.998 141.521 112.561 142.462 113.141C144.495 112.397 144.495 112.397 146.479 111.217C148.049 110.601 148.049 110.601 149.651 109.973C150.285 110.76 150.919 111.547 151.572 112.358C153.877 111.799 153.877 111.799 156.229 111.229C156.652 111.754 157.075 112.278 157.51 112.819C158.19 112.487 158.87 112.156 159.571 111.814C163.894 110.804 167.104 111.479 171.335 112.213C174.513 112.682 177.588 112.522 180.825 112.394C181.247 112.918 181.67 113.443 182.105 113.984C183.074 113.69 183.074 113.69 184.063 113.39C187.158 112.776 189.645 112.872 192.7 113.316C193.123 113.841 193.545 114.365 193.981 114.906C195.028 114.495 196.075 114.085 197.154 113.662C199.849 114.086 202.537 114.543 205.216 115.033C205.985 114.847 206.753 114.661 207.545 114.469C209.713 116.081 209.713 116.081 211.59 117.764C208.411 119.594 205.632 120.791 202.072 121.497C201.649 120.973 201.227 120.448 200.791 119.907C199.97 120.489 199.149 121.071 198.303 121.671C197.238 122.418 196.174 123.165 195.077 123.936C193.486 125.057 193.486 125.057 191.862 126.202C189.177 127.949 189.177 127.949 187.692 127.834C186.294 128.663 184.926 129.545 183.574 130.449C182.352 131.262 182.352 131.262 181.105 132.092C179.824 132.952 179.824 132.952 178.517 133.83C177.228 134.69 177.228 134.69 175.912 135.567C173.782 136.988 171.654 138.412 169.528 139.84C168.894 139.053 168.26 138.266 167.607 137.455C166.947 138.017 166.287 138.578 165.608 139.157C152.333 150.19 152.333 150.19 145.222 152.86C143.79 152.286 142.372 151.68 140.973 151.039C138.175 152.192 136.081 153.906 133.579 155.682C133.156 155.157 132.734 154.633 132.298 154.092C131.463 154.765 130.627 155.438 129.766 156.131C128.575 155.793 127.384 155.454 126.157 155.106C123.663 155.551 123.663 155.551 121.499 156.235C121.077 155.71 120.654 155.185 120.219 154.644C119.7 154.954 119.182 155.263 118.647 155.582C110.081 159.037 97.1426 157.373 88.6375 155.173C88.0037 154.386 87.3698 153.599 86.7167 152.788C85.3911 153.423 84.0655 154.058 82.6997 154.712C81.3647 153.624 80.0297 152.537 78.6542 151.416C78.0971 151.865 77.5399 152.314 76.9659 152.776C72.1667 151.662 67.8128 149.988 63.3734 147.994C62.3265 147.62 61.2796 147.247 60.2009 146.862C56.1381 144.832 53.4235 142.064 50.3928 138.786C49.8356 139.235 49.2784 139.684 48.7044 140.146C47.4367 138.572 46.1689 136.997 44.8628 135.375C44.0271 136.048 43.1913 136.721 42.3303 137.415C40.8512 135.578 39.3722 133.742 37.8484 131.849C37.2913 132.298 36.7341 132.747 36.16 133.209C31.8205 130.777 28.6961 128.005 25.3806 124.359C24.5202 123.42 23.6598 122.481 22.7733 121.513C22.1295 120.798 21.4856 120.083 20.8222 119.346C20.2651 119.795 19.7079 120.244 19.1339 120.706C16.8097 117.82 14.4856 114.934 12.091 111.96C11.5338 112.409 10.9767 112.857 10.4026 113.32C8.28976 110.696 6.17689 108.072 4 105.369Z" fill="#358274"/>
</g>
<path id="Git / GitHub" d="M69.63 121.187C68.406 121.187 67.3463 120.915 66.451 120.371C65.567 119.827 64.8927 119.079 64.428 118.127C63.9633 117.164 63.731 116.076 63.731 114.863C63.731 113.469 64.003 112.273 64.547 111.276C65.1023 110.279 65.8673 109.525 66.842 109.015C67.8167 108.494 68.9273 108.233 70.174 108.233C71.3187 108.233 72.639 108.409 74.135 108.76L73.982 111.701H72.775L72.367 109.661C72.2083 109.536 71.9363 109.417 71.551 109.304C71.177 109.191 70.6727 109.134 70.038 109.134C69.2107 109.134 68.4797 109.338 67.845 109.746C67.2103 110.154 66.7117 110.76 66.349 111.565C65.9977 112.37 65.822 113.344 65.822 114.489C65.822 115.543 65.9637 116.506 66.247 117.379C66.5417 118.252 66.9837 118.954 67.573 119.487C68.1737 120.008 68.9047 120.269 69.766 120.269C70.31 120.269 70.8257 120.207 71.313 120.082C71.8003 119.946 72.1743 119.77 72.435 119.555V115.764L70.293 115.594V114.591H75.257V115.594L74.271 115.747V120.32C74.0217 120.331 73.608 120.428 73.03 120.609C72.4407 120.79 71.8853 120.932 71.364 121.034C70.8427 121.136 70.2647 121.187 69.63 121.187ZM78.355 109.865C77.9923 109.865 77.7203 109.763 77.539 109.559C77.3577 109.355 77.267 109.094 77.267 108.777C77.267 108.414 77.3747 108.114 77.59 107.876C77.8167 107.638 78.1227 107.519 78.508 107.519C78.8933 107.519 79.1767 107.621 79.358 107.825C79.5393 108.029 79.63 108.29 79.63 108.607C79.63 108.992 79.5167 109.298 79.29 109.525C79.0747 109.752 78.7687 109.865 78.372 109.865H78.355ZM77.675 112.874L76.383 112.568V111.667L79.018 111.344H79.052L79.443 111.65V120.031L80.803 120.167V121H76.298V120.167L77.675 120.014V112.874ZM84.9171 121.17C84.2711 121.17 83.7895 121.023 83.4721 120.728C83.1548 120.433 82.9961 119.929 82.9961 119.215V112.687H81.7721V111.922C81.8288 111.911 81.9875 111.871 82.2481 111.803C82.5088 111.735 82.6845 111.673 82.7751 111.616C82.9565 111.514 83.0981 111.31 83.2001 111.004C83.2908 110.789 83.3985 110.443 83.5231 109.967C83.6478 109.491 83.7215 109.208 83.7441 109.117H84.7471L84.7811 111.565H87.6201V112.687H84.7811V117.906C84.7811 118.552 84.7981 119.005 84.8321 119.266C84.8775 119.527 84.9625 119.697 85.0871 119.776C85.2231 119.855 85.4498 119.895 85.7671 119.895C86.0731 119.895 86.4075 119.855 86.7701 119.776C87.1441 119.697 87.4331 119.612 87.6371 119.521L87.8921 120.286C87.6201 120.49 87.1781 120.688 86.5661 120.881C85.9655 121.074 85.4158 121.17 84.9171 121.17ZM94.2761 124.009H92.8141L97.4551 107.723H98.9001L94.2761 124.009ZM110.188 121.187C108.964 121.187 107.904 120.915 107.009 120.371C106.125 119.827 105.45 119.079 104.986 118.127C104.521 117.164 104.289 116.076 104.289 114.863C104.289 113.469 104.561 112.273 105.105 111.276C105.66 110.279 106.425 109.525 107.4 109.015C108.374 108.494 109.485 108.233 110.732 108.233C111.876 108.233 113.197 108.409 114.693 108.76L114.54 111.701H113.333L112.925 109.661C112.766 109.536 112.494 109.417 112.109 109.304C111.735 109.191 111.23 109.134 110.596 109.134C109.768 109.134 109.037 109.338 108.403 109.746C107.768 110.154 107.269 110.76 106.907 111.565C106.555 112.37 106.38 113.344 106.38 114.489C106.38 115.543 106.521 116.506 106.805 117.379C107.099 118.252 107.541 118.954 108.131 119.487C108.731 120.008 109.462 120.269 110.324 120.269C110.868 120.269 111.383 120.207 111.871 120.082C112.358 119.946 112.732 119.77 112.993 119.555V115.764L110.851 115.594V114.591H115.815V115.594L114.829 115.747V120.32C114.579 120.331 114.166 120.428 113.588 120.609C112.998 120.79 112.443 120.932 111.922 121.034C111.4 121.136 110.822 121.187 110.188 121.187ZM118.913 109.865C118.55 109.865 118.278 109.763 118.097 109.559C117.915 109.355 117.825 109.094 117.825 108.777C117.825 108.414 117.932 108.114 118.148 107.876C118.374 107.638 118.68 107.519 119.066 107.519C119.451 107.519 119.734 107.621 119.916 107.825C120.097 108.029 120.188 108.29 120.188 108.607C120.188 108.992 120.074 109.298 119.848 109.525C119.632 109.752 119.326 109.865 118.93 109.865H118.913ZM118.233 112.874L116.941 112.568V111.667L119.576 111.344H119.61L120.001 111.65V120.031L121.361 120.167V121H116.856V120.167L118.233 120.014V112.874ZM125.475 121.17C124.829 121.17 124.347 121.023 124.03 120.728C123.712 120.433 123.554 119.929 123.554 119.215V112.687H122.33V111.922C122.386 111.911 122.545 111.871 122.806 111.803C123.066 111.735 123.242 111.673 123.333 111.616C123.514 111.514 123.656 111.31 123.758 111.004C123.848 110.789 123.956 110.443 124.081 109.967C124.205 109.491 124.279 109.208 124.302 109.117H125.305L125.339 111.565H128.178V112.687H125.339V117.906C125.339 118.552 125.356 119.005 125.39 119.266C125.435 119.527 125.52 119.697 125.645 119.776C125.781 119.855 126.007 119.895 126.325 119.895C126.631 119.895 126.965 119.855 127.328 119.776C127.702 119.697 127.991 119.612 128.195 119.521L128.45 120.286C128.178 120.49 127.736 120.688 127.124 120.881C126.523 121.074 125.973 121.17 125.475 121.17ZM130.953 109.423L129.61 109.219V108.369H134.234V109.219L132.772 109.423V113.996H138.756V109.423L137.379 109.219V108.369H141.935V109.219L140.592 109.423V119.997L141.935 120.167V121H137.362V120.167L138.756 119.997V115.05H132.772V119.997L134.251 120.167V121H129.576V120.167L130.953 119.997V109.423ZM151.304 121.153C150.986 121.153 150.748 121.091 150.59 120.966C150.442 120.841 150.369 120.637 150.369 120.354V119.776C149.995 120.15 149.524 120.479 148.958 120.762C148.402 121.045 147.841 121.187 147.275 121.187C146.221 121.187 145.473 120.904 145.031 120.337C144.589 119.77 144.368 118.835 144.368 117.532V112.602L143.416 112.33V111.582L145.796 111.361H145.813L146.136 111.565V117.396C146.136 118.053 146.181 118.569 146.272 118.943C146.374 119.306 146.544 119.578 146.782 119.759C147.031 119.929 147.388 120.014 147.853 120.014C148.306 120.014 148.731 119.918 149.128 119.725C149.524 119.532 149.87 119.306 150.165 119.045V112.602L148.941 112.33V111.582L151.525 111.361H151.542L151.933 111.565V120.133H152.953L152.936 120.898C152.618 120.977 152.341 121.04 152.103 121.085C151.876 121.13 151.61 121.153 151.304 121.153ZM153.511 107.4L156.231 107.077H156.265L156.656 107.332V112.449C156.996 112.12 157.398 111.848 157.863 111.633C158.339 111.418 158.866 111.31 159.444 111.31C160.124 111.31 160.742 111.474 161.297 111.803C161.864 112.132 162.311 112.642 162.64 113.333C162.98 114.024 163.15 114.897 163.15 115.951C163.15 116.926 162.946 117.81 162.538 118.603C162.141 119.396 161.569 120.025 160.821 120.49C160.073 120.955 159.206 121.187 158.22 121.187C157.438 121.187 156.724 121.113 156.078 120.966C155.432 120.807 155.041 120.666 154.905 120.541V108.301L153.511 108.114V107.4ZM158.747 112.517C158.316 112.517 157.914 112.619 157.54 112.823C157.177 113.016 156.883 113.237 156.656 113.486V119.742C156.724 119.901 156.917 120.031 157.234 120.133C157.563 120.224 157.931 120.269 158.339 120.269C159.212 120.269 159.914 119.918 160.447 119.215C160.98 118.512 161.246 117.487 161.246 116.138C161.246 114.925 161.014 114.019 160.549 113.418C160.084 112.817 159.484 112.517 158.747 112.517Z" fill="#F2F2F2"/>
</g>
<defs>
<filter id="filter0_d_3_17" x="0" y="72.0269" width="231.047" height="93.5396" filterUnits="userSpaceOnUse" color-interpolation-filters="sRGB">
<feFlood flood-opacity="0" result="BackgroundImageFix"/>
<feColorMatrix in="SourceAlpha" type="matrix" values="0 0 0 0 0 0 0 0 0 0 0 0 0 0 0 0 0 0 127 0" result="hardAlpha"/>
<feOffset dy="4"/>
<feGaussianBlur stdDeviation="2"/>
<feComposite in2="hardAlpha" operator="out"/>
<feColorMatrix type="matrix" values="0 0 0 0 0 0 0 0 0 0 0 0 0 0 0 0 0 0 0.25 0"/>
<feBlend mode="normal" in2="BackgroundImageFix" result="effect1_dropShadow_3_17"/>
<feBlend mode="normal" in="SourceGraphic" in2="effect1_dropShadow_3_17" result="shape"/>
</filter>
</defs>
</svg>
