<svg width="231" height="220" viewBox="0 0 231 220" fill="none" xmlns="http://www.w3.org/2000/svg">
<g id="leaf-html5">
<g id="Vector" filter="url(#filter0_d_3_12)">
<path d="M4 104.177C8.03431 102.289 8.03431 102.289 11.634 103.347C12.6847 102.946 13.7354 102.545 14.818 102.132C15.4447 102.925 16.0714 103.718 16.717 104.535C17.5589 103.869 18.4007 103.204 19.268 102.518C19.6858 103.047 20.1036 103.575 20.534 104.12C23.47 103.198 26.3528 102.246 29.2357 101.146C29.6535 101.674 30.0713 102.203 30.5017 102.747C31.6241 101.86 32.7466 100.973 33.903 100.059C34.3208 100.588 34.7386 101.116 35.169 101.661C35.9146 101.018 36.6602 100.375 37.4283 99.7123C40.271 97.6281 40.271 97.6281 42.2887 97.2176C46.1204 96.2397 49.3897 94.2779 52.8363 92.3319C53.5598 91.9282 54.2834 91.5246 55.0289 91.1087C60.3036 88.141 65.4068 84.9918 70.4291 81.598C71.0558 82.3909 71.6825 83.1837 72.3281 84.0006C74.0118 82.6698 75.6954 81.3391 77.4301 79.968C77.8479 80.4965 78.2657 81.0251 78.6961 81.5697C81.7111 79.616 84.726 77.6624 87.8324 75.6495C88.2501 76.1781 88.6679 76.7066 89.0984 77.2512C90.9909 76.1847 92.8835 75.1183 94.8333 74.0195C95.2511 74.548 95.6689 75.0766 96.0994 75.6212C97.6396 75.2626 99.1798 74.904 100.767 74.5345C101.184 75.0631 101.602 75.5917 102.033 76.1362C103.308 75.37 103.308 75.37 104.609 74.5883C107.465 73.0659 109.299 72.1097 112.435 71.8178C114.34 72.4805 116.246 73.1431 118.151 73.8058C119.378 73.52 119.378 73.52 120.631 73.2285C122.818 72.7191 122.818 72.7191 124.801 73.9169C125.263 74.357 125.725 74.7971 126.201 75.2505C127.043 74.5851 127.884 73.9197 128.752 73.2342C130.679 73.8396 132.586 74.5037 134.468 75.2222C135.238 75.0429 136.008 74.8636 136.801 74.6788C137.219 75.2074 137.637 75.736 138.068 76.2806C139.644 75.6789 139.644 75.6789 141.251 75.0651C142.087 76.1223 142.923 77.1794 143.784 78.2686C144.906 77.3814 146.028 76.4942 147.185 75.5802C147.852 75.9919 148.52 76.4037 149.207 76.828C152.313 78.3704 155.171 78.9104 158.617 79.5562C160.028 80.176 161.439 80.7957 162.85 81.4155C163.62 81.2362 164.39 81.0569 165.183 80.8721C166.437 82.4578 167.69 84.0436 168.981 85.6773C170.032 85.2762 171.083 84.8751 172.165 84.4619C173.623 85.42 175.071 86.3945 176.455 87.4507C178.532 88.8861 180.681 89.8929 182.992 90.9495C186.721 92.7303 188.979 94.5192 191.194 98.0483C191.755 97.6047 192.316 97.1612 192.894 96.7041C193.939 98.0256 194.983 99.347 196.059 100.708C196.621 100.265 197.182 99.8213 197.76 99.3642C198.302 99.8786 198.844 100.393 199.402 100.923C203.934 105.054 207.384 107.86 213.623 108.946C214.393 108.767 215.164 108.588 215.957 108.403C216.584 109.196 217.21 109.989 217.856 110.806C218.698 110.14 219.54 109.475 220.407 108.789C222.568 110.946 224.728 113.103 226.955 115.325C226.393 115.769 225.832 116.212 225.254 116.669C219.023 115.777 219.023 115.777 217.421 113.752C216.86 114.195 216.299 114.639 215.721 115.096C215.155 114.524 214.588 113.951 214.005 113.362C212.867 112.571 212.867 112.571 211.705 111.764C210.143 112.086 208.587 112.452 207.038 112.85C205.127 112.201 203.221 111.539 201.322 110.862C200.271 111.263 199.221 111.664 198.138 112.078C192.844 110.624 192.844 110.624 191.156 108.488C190.501 108.685 189.847 108.882 189.172 109.085C186.074 109.65 183.904 109.298 180.888 108.715C176.588 107.855 176.588 107.855 172.288 109.088C168.711 108.872 165.188 108.481 161.64 108.07C158.813 107.736 158.813 107.736 155.754 109.144C155.336 108.616 154.919 108.087 154.488 107.543C153.67 107.841 152.851 108.139 152.007 108.446C148.971 109.302 148.971 109.302 146.706 109.058C143.782 108.867 142.166 109.951 139.636 111.475C140.543 112.046 141.45 112.617 142.385 113.205C144.425 112.48 144.425 112.48 146.42 111.318C147.996 110.716 147.996 110.716 149.604 110.102C150.23 110.895 150.857 111.688 151.503 112.505C153.813 111.967 153.813 111.967 156.17 111.418C156.588 111.947 157.005 112.475 157.436 113.02C158.119 112.695 158.802 112.369 159.506 112.034C163.838 111.063 167.041 111.767 171.266 112.539C174.439 113.037 177.515 112.905 180.754 112.806C181.171 113.335 181.589 113.864 182.02 114.408C182.991 114.123 182.991 114.123 183.983 113.833C187.083 113.247 189.569 113.365 192.62 113.836C193.038 114.365 193.456 114.894 193.886 115.438C194.937 115.037 195.988 114.636 197.07 114.223C199.761 114.672 202.445 115.153 205.12 115.667C205.89 115.488 206.66 115.309 207.454 115.124C209.607 116.756 209.607 116.756 211.469 118.456C208.273 120.257 205.483 121.429 201.917 122.103C201.499 121.574 201.082 121.046 200.651 120.501C199.825 121.075 198.998 121.65 198.147 122.242C197.075 122.979 196.004 123.717 194.9 124.477C193.299 125.584 193.299 125.584 191.665 126.714C188.964 128.437 188.964 128.437 187.481 128.309C186.075 129.125 184.699 129.994 183.339 130.886C182.109 131.688 182.109 131.688 180.855 132.506C179.566 133.355 179.566 133.355 178.252 134.221C176.954 135.069 176.954 135.069 175.631 135.934C173.488 137.336 171.347 138.741 169.208 140.149C168.581 139.356 167.955 138.563 167.309 137.746C166.644 138.302 165.979 138.858 165.294 139.431C151.92 150.342 151.92 150.342 144.785 152.947C143.358 152.36 141.946 151.742 140.552 151.088C137.744 152.216 135.635 153.911 133.117 155.664C132.699 155.136 132.281 154.607 131.851 154.062C131.009 154.728 130.167 155.393 129.3 156.079C128.112 155.729 126.924 155.38 125.7 155.02C123.202 155.443 123.202 155.443 121.033 156.107C120.615 155.578 120.197 155.05 119.767 154.505C119.245 154.81 118.724 155.115 118.187 155.429C109.589 158.806 96.6666 157.025 88.1819 154.747C87.5552 153.954 86.9285 153.162 86.2828 152.345C84.9515 152.968 83.6202 153.59 82.2485 154.232C80.9234 153.133 79.5984 152.033 78.2331 150.9C77.6719 151.344 77.1107 151.787 76.5325 152.244C71.7436 151.086 67.405 149.373 62.984 147.339C61.9405 146.956 60.897 146.573 59.8219 146.178C55.7777 144.112 53.0883 141.319 50.0875 138.014C49.5262 138.458 48.965 138.901 48.3868 139.358C47.1334 137.772 45.8801 136.187 44.5887 134.553C43.7469 135.218 42.9051 135.884 42.0377 136.569C40.5755 134.719 39.1132 132.869 37.6066 130.963C37.0454 131.407 36.4842 131.85 35.906 132.307C31.5887 129.836 28.4896 127.036 25.2073 123.36C24.3554 122.413 23.5036 121.466 22.626 120.49C21.9886 119.77 21.3513 119.049 20.6947 118.306C20.1334 118.75 19.5722 119.194 18.994 119.651C16.6962 116.743 14.3983 113.836 12.0308 110.841C11.4696 111.285 10.9084 111.728 10.3302 112.185C8.24122 109.542 6.15226 106.899 4 104.177Z" fill="#358274"/>
</g>
<path id="HTML5" d="M76.227 111.423L74.884 111.219V110.369H79.508V111.219L78.046 111.423V115.996H84.03V111.423L82.653 111.219V110.369H87.209V111.219L85.866 111.423V121.997L87.209 122.167V123H82.636V122.167L84.03 121.997V117.05H78.046V121.997L79.525 122.167V123H74.85V122.167L76.227 121.997V111.423ZM93.0081 111.27L90.0841 111.372L89.4891 114.925H88.3671L88.6561 110.369H99.2471L99.4511 114.925H98.3801L97.8191 111.372L94.8781 111.27V121.997L97.2921 122.167V123H90.7981V122.167L93.0081 121.997V111.27ZM102.637 111.423L100.784 111.219V110.369H105.289L107.686 118.019L108.247 120.178L108.757 118.019L111.137 110.369H115.608V111.219L113.738 111.423L115.098 121.98L116.577 122.167V123H111.681V122.167L113.228 121.997L112.463 114.364L112.106 111.083L111.392 113.531L108.553 122.422H107.448L104.694 114.279L103.691 111.066L103.385 114.364L102.705 121.997L104.388 122.167V123H99.9506V122.167L101.396 121.997L102.637 111.423ZM118.91 111.423L117.533 111.219V110.369H122.412V111.219L120.729 111.423V121.997L125.115 121.844L126.118 118.988L127.155 119.141L126.56 123H117.499V122.167L118.91 121.997V111.423ZM129.055 124.802C129.372 124.836 129.712 124.853 130.075 124.853C130.88 124.853 131.616 124.689 132.285 124.36C132.954 124.031 133.481 123.578 133.866 123C134.251 122.422 134.444 121.765 134.444 121.028C134.444 119.203 133.6 118.291 131.911 118.291C131.537 118.291 131.118 118.348 130.653 118.461C130.2 118.563 129.803 118.688 129.463 118.835L129.004 118.512L129.837 112.392H134.682L134.852 112.069H135.906L135.6 113.82H131.095L130.313 117.781C130.619 117.622 131.01 117.481 131.486 117.356C131.962 117.231 132.438 117.169 132.914 117.169C134.002 117.169 134.858 117.475 135.481 118.087C136.104 118.699 136.416 119.589 136.416 120.756C136.416 121.651 136.155 122.479 135.634 123.238C135.124 123.997 134.399 124.604 133.458 125.057C132.517 125.51 131.446 125.737 130.245 125.737C129.758 125.737 129.361 125.697 129.055 125.618V124.802Z" fill="#F2F2F2"/>
</g>
<defs>
<filter id="filter0_d_3_12" x="0" y="71.8178" width="230.955" height="93.4859" filterUnits="userSpaceOnUse" color-interpolation-filters="sRGB">
<feFlood flood-opacity="0" result="BackgroundImageFix"/>
<feColorMatrix in="SourceAlpha" type="matrix" values="0 0 0 0 0 0 0 0 0 0 0 0 0 0 0 0 0 0 127 0" result="hardAlpha"/>
<feOffset dy="4"/>
<feGaussianBlur stdDeviation="2"/>
<feComposite in2="hardAlpha" operator="out"/>
<feColorMatrix type="matrix" values="0 0 0 0 0 0 0 0 0 0 0 0 0 0 0 0 0 0 0.25 0"/>
<feBlend mode="normal" in2="BackgroundImageFix" result="effect1_dropShadow_3_12"/>
<feBlend mode="normal" in="SourceGraphic" in2="effect1_dropShadow_3_12" result="shape"/>
</filter>
</defs>
</svg>
