<svg width="182" height="123" viewBox="0 0 182 123" fill="none" xmlns="http://www.w3.org/2000/svg">
<path d="M130.203 0.769526C131 0.769985 131.796 0.770443 132.617 0.770915C134.302 0.773932 135.986 0.781802 137.67 0.794185C140.227 0.812332 142.783 0.814695 145.34 0.814448C146.982 0.819369 148.624 0.825199 150.266 0.832026C151.021 0.833139 151.777 0.834252 152.555 0.835399C157.446 0.878306 162.156 1.31355 167 2C167 2.66 167 3.32 167 4C171.95 4 176.9 4 182 4C182 6.31 182 8.62 182 11C181.34 11 180.68 11 180 11C180 12.65 180 14.3 180 16C179.34 16 178.68 16 178 16C177.917 16.9487 177.835 17.8975 177.75 18.875C177.06 23.8898 174.997 28.3845 173 33C172.34 33 171.68 33 171 33C170.917 33.9694 170.835 34.9387 170.75 35.9375C170.091 40.6107 168.328 44.9069 166 49C165.01 49.495 165.01 49.495 164 50C163.214 52.1607 162.518 54.3549 161.875 56.5625C161.522 57.76 161.169 58.9576 160.805 60.1914C160.539 61.1182 160.274 62.0451 160 63C159.34 63 158.68 63 158 63C157.34 64.98 156.68 66.96 156 69C155.34 69 154.68 69 154 69C153.938 69.7631 153.876 70.5262 153.812 71.3125C152.738 74.866 151.188 75.2891 148 77C147.34 77.99 146.68 78.98 146 80C145.34 80 144.68 80 144 80C144 80.66 144 81.32 144 82C143.34 82 142.68 82 142 82C141.773 82.5362 141.546 83.0725 141.312 83.625C139.035 87.747 136.599 91.4671 132 93C131.381 93.8044 130.762 94.6087 130.125 95.4375C127.801 98.2405 126.293 98.6999 123 100C121.716 101.984 121.716 101.984 121 104C120 105 120 105 117.438 105.062C116.633 105.042 115.829 105.021 115 105C115 105.66 115 106.32 115 107C113.35 107.33 111.7 107.66 110 108C110 108.66 110 109.32 110 110C109.01 110 108.02 110 107 110C107 110.66 107 111.32 107 112C106.362 112.205 105.724 112.41 105.066 112.621C104.24 112.891 103.414 113.16 102.562 113.437C101.739 113.704 100.915 113.971 100.066 114.246C98.0378 114.822 98.0378 114.822 97 116C95.3294 116.217 95.3294 116.217 93.625 116.437C89.9149 116.753 89.9149 116.753 87 119C84.668 119.079 82.3317 119.088 80 119C80 119.66 80 120.32 80 121C78.02 121 76.04 121 74 121C74 121.66 74 122.32 74 123C63.77 123 53.54 123 43 123C43 122.34 43 121.68 43 121C41.8244 121.041 40.6487 121.082 39.4375 121.125C35.3268 121.132 31.9462 120.177 28 119C25.0081 118.564 22.012 118.26 19 118C19 117.34 19 116.68 19 116C18.3825 115.902 17.7651 115.804 17.1289 115.703C10.9344 114.609 5.62659 112.8 0 110C0 109.34 0 108.68 0 108C0.655972 107.945 1.31194 107.889 1.98779 107.832C4.95057 107.58 7.91277 107.321 10.875 107.062C11.9075 106.975 12.9401 106.888 14.0039 106.799C14.99 106.712 15.9762 106.625 16.9922 106.535C17.9034 106.457 18.8146 106.378 19.7534 106.297C22.0316 106.12 22.0316 106.12 24 105C25.9996 104.96 28.0005 104.957 30 105C30 104.34 30 103.68 30 103C33.2623 102.026 36.2274 101.866 39.625 101.875C40.5866 101.872 41.5483 101.87 42.5391 101.867C45 102 45 102 47 103C47.2062 102.402 47.4125 101.804 47.625 101.187C49.5104 98.1881 51.8197 97.421 55 96C55.33 95.67 55.66 95.34 56 95C54.5616 95.1146 53.1243 95.2421 51.6875 95.375C50.4867 95.4794 50.4867 95.4794 49.2617 95.5859C46.7278 95.8956 46.7278 95.8956 44 98C40.8125 98.125 40.8125 98.125 38 98C38 98.66 38 99.32 38 100C36.02 100 34.04 100 32 100C32 100.66 32 101.32 32 102C25.565 102.495 25.565 102.495 19 103C19 103.66 19 104.32 19 105C13.06 105 7.12 105 1 105C1 104.34 1 103.68 1 103C4.41832 100.461 6.75777 99.6364 11 100C11 99.34 11 98.68 11 98C11.99 98 12.98 98 14 98C14 97.01 14 96.02 14 95C14.99 95 15.98 95 17 95C17.495 93.515 17.495 93.515 18 92C21 90 21 90 24 90C24.2475 89.3812 24.495 88.7625 24.75 88.125C26.2063 85.6493 27.3781 85.0487 30 84C30 83.34 30 82.68 30 82C30.99 82 31.98 82 33 82C33 81.34 33 80.68 33 80C33.66 80 34.32 80 35 80C35 79.34 35 78.68 35 78C36.875 75.875 36.875 75.875 39 74C39.66 74 40.32 74 41 74C41 73.34 41 72.68 41 72C42.98 71.505 42.98 71.505 45 71C45.1238 70.1956 45.2475 69.3912 45.375 68.5625C45.5812 67.7169 45.7875 66.8712 46 66C46.66 65.67 47.32 65.34 48 65C48.1444 64.3606 48.2887 63.7212 48.4375 63.0625C49 61 49 61 52 59C53.1923 56.95 53.1923 56.95 54 55C54.66 55 55.32 55 56 55C56 53.68 56 52.36 56 51C56.66 51 57.32 51 58 51C58.66 48.69 59.32 46.38 60 44C60.66 44 61.32 44 62 44C62 42.68 62 41.36 62 40C63.32 40 64.64 40 66 40C66 38.35 66 36.7 66 35C66.66 35 67.32 35 68 35C68 32.69 68 30.38 68 28C68.99 28 69.98 28 71 28C71.33 26.68 71.66 25.36 72 24C72.66 24 73.32 24 74 24C74.33 22.68 74.66 21.36 75 20C76.32 20 77.64 20 79 20C79 19.01 79 18.02 79 17C80.65 17 82.3 17 84 17C84 16.01 84 15.02 84 14C85.65 14 87.3 14 89 14C89 13.01 89 12.02 89 11C92.8299 9.19769 95.7812 8.80377 100 9C100 8.01 100 7.02 100 6C101.253 5.80664 102.506 5.61328 103.797 5.41406C105.448 5.15138 107.099 4.88834 108.75 4.625C109.575 4.49867 110.4 4.37234 111.25 4.24218C112.049 4.11328 112.848 3.98437 113.672 3.85156C114.405 3.73635 115.138 3.62114 115.894 3.50244C118.02 3.10467 118.02 3.10467 119.758 1.96118C123.156 0.504234 126.568 0.735321 130.203 0.769526Z" fill="#A0ABBE"/>
</svg>
