<svg width="158" height="263" viewBox="0 0 158 263" fill="none" xmlns="http://www.w3.org/2000/svg">
<path d="M79.875 0.0625206C82.9106 1.40175 84.7345 3.61529 87 6.00002C87.99 6.49502 87.99 6.49502 89 7.00002C89 7.66002 89 8.32002 89 9.00002C89.99 9.00002 90.98 9.00002 92 9.00002C92 9.99002 92 10.98 92 12C92.66 12 93.32 12 94 12C94 12.66 94 13.32 94 14C94.99 14 95.98 14 97 14C97.8385 15.4554 98.6706 16.9144 99.5 18.375C100.196 19.5932 100.196 19.5932 100.906 20.836C102 23 102 23 102 25C102.66 25 103.32 25 104 25C104 25.66 104 26.32 104 27C104.549 27.2024 105.098 27.4048 105.664 27.6133C108.918 29.5452 111.021 32.2875 113.375 35.1875C114.355 36.3753 115.336 37.5628 116.316 38.75C116.782 39.3172 117.247 39.8844 117.727 40.4688C119.209 42.2517 120.756 43.9697 122.312 45.6875C127.477 51.6983 130.992 58.972 134.766 65.8946C135.999 67.9984 137.355 69.9217 138.812 71.875C141 75 141 75 141 78C141.66 78 142.32 78 143 78C143.33 80.31 143.66 82.62 144 85C144.66 85 145.32 85 146 85C146.29 86.282 146.29 86.282 146.586 87.5899C146.846 88.6946 147.107 89.7993 147.375 90.9375C147.63 92.0397 147.885 93.1418 148.148 94.2774C148.429 95.1758 148.71 96.0743 149 97C149.66 97.33 150.32 97.66 151 98C151 100.97 151 103.94 151 107C151.66 107 152.32 107 153 107C154.612 113.765 155.266 120.05 155 127C155.66 127 156.32 127 157 127C157.198 141.263 157.283 155.46 156.125 169.688C156.047 170.701 155.968 171.715 155.887 172.76C155.256 179.744 155.256 179.744 153 182C152.352 184.571 152.352 184.571 152 187C151.34 187 150.68 187 150 187C150 188.98 150 190.96 150 193C149.01 193 148.02 193 147 193C147 194.65 147 196.3 147 198C146.34 198 145.68 198 145 198C144.897 198.681 144.794 199.361 144.688 200.063C143.853 203.629 142.505 206.662 141 210C140.01 210 139.02 210 138 210C137.67 212.31 137.34 214.62 137 217C136.01 217.33 135.02 217.66 134 218C134 218.66 134 219.32 134 220C133.01 220.66 132.02 221.32 131 222C129.808 224.05 129.808 224.05 129 226C128.01 226 127.02 226 126 226C126 226.66 126 227.32 126 228C125.34 228.33 124.68 228.66 124 229C123.67 229.99 123.34 230.98 123 232C120.419 234.323 119.548 235 116 235C115.505 237.97 115.505 237.97 115 241C114.01 241 113.02 241 112 241C112 241.99 112 242.98 112 244C105.375 246.875 105.375 246.875 102 248C102 248.66 102 249.32 102 250C100.68 250 99.36 250 98 250C97.67 250.99 97.34 251.98 97 253C94.4735 254.755 92.1636 255.944 89.25 256.938C88.5075 257.288 87.765 257.639 87 258C86.3282 260.025 86.3282 260.025 86 262C84.5636 262.196 83.1258 262.381 81.6875 262.563C80.887 262.667 80.0865 262.771 79.2617 262.879C77 263 77 263 74 262C73.3194 261.258 73.3194 261.258 72.625 260.5C70.5308 258.567 68.7785 258.376 66 258C65.505 256.515 65.505 256.515 65 255C64.3813 254.856 63.7625 254.711 63.125 254.563C60.2848 253.811 59.7258 252.301 58 250C55.9058 249.204 55.9058 249.204 54 249C53.67 247.68 53.34 246.36 53 245C52.01 245 51.02 245 50 245C49.34 244.01 48.68 243.02 48 242C47.1544 241.67 46.3087 241.34 45.4375 241C44.6331 240.67 43.8288 240.34 43 240C42.67 239.01 42.34 238.02 42 237C40.5687 235.583 40.5687 235.583 38.8125 234.25C35.1294 231.206 31.759 227.921 29 224C29 223.34 29 222.68 29 222C28.34 222 27.68 222 27 222C27 221.01 27 220.02 27 219C26.01 218.67 25.02 218.34 24 218C24 216.68 24 215.36 24 214C23.01 214 22.02 214 21 214C21 212.35 21 210.7 21 209C20.01 209 19.02 209 18 209C16.375 206.563 16.375 206.563 15 204C14.67 203.67 14.34 203.34 14 203C13.9594 201.334 13.9573 199.666 14 198C13.34 198 12.68 198 12 198C11.7319 197.361 11.4637 196.721 11.1875 196.063C10.1133 193.669 10.1133 193.669 7 193C7 189.37 7 185.74 7 182C6.01 182 5.02 182 4 182C4 177.05 4 172.1 4 167C3.34 167 2.68 167 2 167C1.08126 158.063 0.876575 149.229 0.937499 140.25C0.942011 138.969 0.946523 137.687 0.951171 136.367C0.962822 133.245 0.979179 130.122 0.999999 127C2.485 126.505 2.485 126.505 4 126C4 123.03 4 120.06 4 117C4.66 117 5.32 117 6 117C5.9884 116.371 5.9768 115.742 5.96484 115.094C5.90713 109.619 6.19771 104.415 7 99C8.98 98.505 8.98 98.505 11 98C11 95.69 11 93.38 11 91C11.66 91 12.32 91 13 91C13.1031 90.3606 13.2062 89.7213 13.3125 89.0625C14.9229 81.8891 17.5784 75.4893 21 69C21.66 69 22.32 69 23 69C23 68.01 23 67.02 23 66C23.66 66 24.32 66 25 66C25.33 64.02 25.66 62.04 26 60C26.66 60 27.32 60 28 60C28 59.34 28 58.68 28 58C28.66 58 29.32 58 30 58C30 57.01 30 56.02 30 55C30.66 55 31.32 55 32 55C32.1031 54.2163 32.2062 53.4325 32.3125 52.625C33 50 33 50 36 48C37.0714 45.6986 38.0799 43.366 39 41C39.99 41 40.98 41 42 41C42.33 39.68 42.66 38.36 43 37C43.66 37 44.32 37 45 37C45 36.34 45 35.68 45 35C45.66 34.67 46.32 34.34 47 34C48.1163 32.3495 48.1163 32.3495 49.125 30.4375C50.0531 28.736 50.0531 28.736 51 27C51.66 27 52.32 27 53 27C53.3094 26.3813 53.6188 25.7625 53.9375 25.125C56 21 56 21 59 20C59.4744 19.175 59.9487 18.35 60.4375 17.5C62 15 62 15 64.0625 14.5C64.7019 14.335 65.3413 14.17 66 14C66.6966 12.3456 67.361 10.6775 68 9.00002C71.3103 6.00002 71.3103 6.00002 74 6.00002C74.1031 5.38127 74.2062 4.76252 74.3125 4.12502C75.251 1.22421 76.7456 -0.041793 79.875 0.0625206Z" fill="#B686B0"/>
</svg>
