<svg width="75" height="117" viewBox="0 0 75 117" fill="none" xmlns="http://www.w3.org/2000/svg">
<path d="M62.75 0.6875C65 1 65 1 66.6289 2.69141C68.2715 5.45722 68.3133 7.06349 68.1875 10.25C68.1469 11.588 68.1469 11.588 68.1055 12.9531C68.0707 13.6286 68.0359 14.3041 68 15C68.66 15 69.32 15 70 15C70.33 21.6 70.66 28.2 71 35C71.66 35 72.32 35 73 35C73.8494 44.3626 74.2118 53.663 74.25 63.0625C74.2706 64.3342 74.2912 65.6058 74.3125 66.916C74.3537 76.9586 72.8573 85.7201 69 95C67.7934 95.1096 66.5869 95.2191 65.3438 95.332C63.7291 95.4916 62.1145 95.6518 60.5 95.8125C59.3128 95.9179 59.3128 95.9179 58.1016 96.0254C53.3105 96.5163 49.2465 97.4861 44.7905 99.3069C41.6267 100.532 38.3371 100.938 35.0039 101.473C34.3426 101.647 33.6813 101.821 33 102C32.67 102.66 32.34 103.32 32 104C28.8941 104.996 25.8338 105.846 22.625 106.438C22.0888 106.623 21.5525 106.809 21 107C20.67 107.99 20.34 108.98 20 110C18.68 110 17.36 110 16 110C16 110.66 16 111.32 16 112C15.2163 112.083 14.4325 112.165 13.625 112.25C10.8525 112.728 10.8525 112.728 9.6875 115.062C9.46062 115.702 9.23375 116.341 9 117C8.34 117 7.68 117 7 117C7.1422 116.369 7.2844 115.739 7.43091 115.089C9.25864 105.843 9.27164 96.7709 9.20581 87.3894C9.18742 84.6755 9.1853 81.962 9.18555 79.248C9.18063 77.5026 9.17481 75.7572 9.16797 74.0117C9.16686 73.2105 9.16574 72.4094 9.1646 71.5839C9.12592 66.9669 8.72703 62.5713 8 58C7.93838 56.1884 7.91267 54.3749 7.9375 52.5625C7.94652 51.6975 7.95555 50.8326 7.96484 49.9414C7.98225 48.9804 7.98225 48.9804 8 48C7.34 48 6.68 48 6 48C5.58428 46.6097 5.58428 46.6097 5.16016 45.1914C4.79793 43.9939 4.4357 42.7963 4.0625 41.5625C3.70285 40.3675 3.3432 39.1726 2.97266 37.9414C2.29111 35.1413 2.29111 35.1413 1 34C0.8125 31.5625 0.8125 31.5625 1 29C1.66 28.34 2.32 27.68 3 27C3.99 27 4.98 27 6 27C6.18563 26.4431 6.37125 25.8863 6.5625 25.3125C8.6704 21.9215 11.4953 19.8727 15 18C17.9375 17.6875 17.9375 17.6875 20 18C20.33 17.01 20.66 16.02 21 15C22.98 14.67 24.96 14.34 27 14C27 13.34 27 12.68 27 12C32.445 11.01 32.445 11.01 38 10C38 9.01 38 8.02 38 7C38.6639 6.89043 39.3277 6.78086 40.0117 6.66797C45.0464 5.76394 48.6331 4.71454 53 2C56.2555 1.36052 59.4587 1.06151 62.75 0.6875Z" fill="#ADA2BC"/>
</svg>
