<svg width="183" height="123" viewBox="0 0 183 123" fill="none" xmlns="http://www.w3.org/2000/svg">
<path d="M31.1602 0.734386C31.9464 0.732473 32.7327 0.730559 33.5428 0.728588C35.2012 0.72723 36.8595 0.730901 38.5178 0.739269C41.057 0.749988 43.5956 0.739354 46.1348 0.726574C47.7474 0.727895 49.36 0.730457 50.9727 0.734386C51.7321 0.730338 52.4915 0.726289 53.2739 0.722118C57.0535 0.755791 58.777 0.851365 62 3.00001C64.4762 3.41928 64.4762 3.41928 67.125 3.56251C71.9017 3.90173 71.9017 3.90173 73 5.00001C75.3195 5.28103 77.6389 5.44784 79.9688 5.6211C80.6391 5.74614 81.3094 5.87118 82 6.00001C82.495 6.99001 82.495 6.99001 83 8.00001C84.8251 8.78017 86.6861 9.47797 88.5625 10.125C90.0804 10.6548 90.0804 10.6548 91.6289 11.1953C92.4114 11.4609 93.1938 11.7264 94 12C94 12.66 94 13.32 94 14C95.32 14 96.64 14 98 14C98.495 14.99 98.495 14.99 99 16C99.99 16.33 100.98 16.66 102 17C102.495 17.99 102.495 17.99 103 19C105.025 19.6521 105.025 19.6521 107 20C107 20.66 107 21.32 107 22C108.485 22.495 108.485 22.495 110 23C110 24.65 110 26.3 110 28C111.32 28 112.64 28 114 28C115.273 31.6479 116.328 35.1937 117 39C117.66 39 118.32 39 119 39C119 40.65 119 42.3 119 44C120.485 44.495 120.485 44.495 122 45C122 46.32 122 47.64 122 49C122.66 49 123.32 49 124 49C124.66 51.31 125.32 53.62 126 56C126.66 56 127.32 56 128 56C129.038 57.6433 130.036 59.3125 131 61C131.66 61.66 132.32 62.32 133 63C133 63.99 133 64.98 133 66C133.619 66.0825 134.238 66.165 134.875 66.25C137 67 137 67 138 68.875C138.33 69.5763 138.66 70.2775 139 71C139.66 71.495 140.32 71.99 141 72.5C143 74 143 74 143.875 75.9375C144.936 78.2664 144.936 78.2664 147.75 79.8125C151.108 82.073 153.092 84.3248 155.508 87.5117C157.287 89.2866 158.592 89.4654 161 90C161.33 90.66 161.66 91.32 162 92C164.31 93.0535 166.643 94.0572 169 95C169 95.99 169 96.98 169 98C169.99 98 170.98 98 172 98C172 98.66 172 99.32 172 100C173.65 100 175.3 100 177 100C177 100.66 177 101.32 177 102C178.65 102.33 180.3 102.66 182 103C183.125 107.75 183.125 107.75 182 110C179.593 111.133 177.22 112.153 174.75 113.125C174.081 113.402 173.412 113.679 172.723 113.965C169.026 115.439 165.988 116.356 162 116C162 116.66 162 117.32 162 118C160.298 118.217 160.298 118.217 158.562 118.438C155.192 118.612 155.192 118.612 154 120C133.514 124.579 111.168 123.205 91 118C91 117.34 91 116.68 91 116C90.0512 116.041 89.1025 116.083 88.125 116.125C85 116 85 116 83 114C80.9313 113.357 80.9313 113.357 79 113C79 112.34 79 111.68 79 111C77.68 111 76.36 111 75 111C75 110.34 75 109.68 75 109C74.175 108.938 73.35 108.876 72.5 108.813C68.5982 107.907 66.1088 106.38 62.832 104.156C60.8968 102.833 60.8968 102.833 58 102C58 101.34 58 100.68 58 100C57.4225 99.7319 56.845 99.4638 56.25 99.1875C53.9264 97.9611 51.9618 96.7516 50 95C50 94.01 50 93.02 50 92C49.2163 91.6906 48.4325 91.3813 47.625 91.0625C45 90 45 90 43 89C43 88.34 43 87.68 43 87C42.34 87 41.68 87 41 87C40.7525 86.1956 40.505 85.3913 40.25 84.5625C39.2776 81.8289 39.2776 81.8289 36.875 81.1875C35.9469 81.0947 35.9469 81.0947 35 81C35 80.34 35 79.68 35 79C34.34 79 33.68 79 33 79C32.8969 78.3813 32.7938 77.7625 32.6875 77.125C32.1247 74.6347 32.1247 74.6347 29 73C29 71.68 29 70.36 29 69C28.3606 68.7731 27.7212 68.5463 27.0625 68.3125C25 67 25 67 24.25 64.375C24.1675 63.5913 24.085 62.8075 24 62C22.515 61.505 22.515 61.505 21 61C19.8125 57.4375 19.8125 57.4375 19 54C18.34 54 17.68 54 17 54C17 52.68 17 51.36 17 50C16.34 50 15.68 50 15 50C14.3291 48.3767 13.6634 46.7513 13 45.125C12.6287 44.2201 12.2575 43.3152 11.875 42.3828C11 40 11 40 11 38C10.34 38 9.68 38 9 38C9 36.35 9 34.7 9 33C8.34 33 7.68 33 7 33C6.49194 31.2732 5.9939 29.5434 5.5 27.8125C5.22156 26.8496 4.94313 25.8867 4.65625 24.8945C4.03322 22.1466 3.87697 19.804 4 17C3.01 17 2.02 17 1 17C0.67 13.04 0.34 9.08001 0 5.00001C3.75855 3.12073 8.53118 3.62593 12.7031 3.48243C13.4482 3.44827 14.1933 3.41411 14.9609 3.37892C15.9787 3.34133 15.9787 3.34133 17.0171 3.30299C19.0421 3.11664 19.0421 3.11664 20.7424 1.99293C24.1301 0.502965 27.5237 0.714948 31.1602 0.734386Z" fill="#87CBC3"/>
</svg>
