<svg width="76" height="116" viewBox="0 0 76 116" fill="none" xmlns="http://www.w3.org/2000/svg">
<path d="M13.4258 0.988281C14.3784 1.09527 15.331 1.20227 16.3125 1.3125C17.2574 1.41176 18.2023 1.51102 19.1758 1.61328C21.8136 1.97448 24.3967 2.4452 27 3C27 3.99 27 4.98 27 6C27.7593 6.04898 28.5185 6.09797 29.3008 6.14844C30.2946 6.2232 31.2885 6.29797 32.3125 6.375C33.7917 6.47941 33.7917 6.47941 35.3008 6.58594C38 7 38 7 41 9C42.1344 9.12375 43.2687 9.2475 44.4375 9.375C48.3867 10.0678 49.6159 10.853 52 14C52 14.66 52 15.32 52 16C52.5685 16.0748 53.137 16.1495 53.7227 16.2266C59.2659 17.1705 62.4868 18.7031 66.4922 22.6602C68.075 24.2438 68.075 24.2438 71 25C73.25 26.4375 73.25 26.4375 75 29C75.1353 33.7821 74.2258 38.3954 73 43C72.34 43 71.68 43 71 43C71 44.65 71 46.3 71 48C70.34 48 69.68 48 69 48C69.0206 49.2787 69.0412 50.5575 69.0625 51.875C69.125 55.75 69.125 55.75 68 58C67.34 58 66.68 58 66 58C66 73.51 66 89.02 66 105C66.66 105 67.32 105 68 105C68.495 110.445 68.495 110.445 69 116C66.69 115.34 64.38 114.68 62 114C62 113.34 62 112.68 62 112C61.01 112 60.02 112 59 112C59 111.34 59 110.68 59 110C58.01 110 57.02 110 56 110C56 109.01 56 108.02 56 107C54.35 107 52.7 107 51 107C50.67 105.68 50.34 104.36 50 103C48.9688 103.041 47.9375 103.082 46.875 103.125C43.0826 103.003 40.525 102.303 37 101C35.3391 100.639 33.6738 100.295 32 100C32 99.34 32 98.68 32 98C29.36 98 26.72 98 24 98C24 97.34 24 96.68 24 96C22.0509 96.0309 22.0509 96.0309 20.0625 96.0625C15.3062 96.07 10.7161 95.5989 6 95C5.89687 94.01 5.79375 93.02 5.6875 92C5.10286 87.8482 4.01645 82.0165 0.999999 79C0.899474 76.8613 0.869181 74.7192 0.867187 72.5781C0.86623 71.9223 0.865273 71.2665 0.864288 70.5908C0.863605 69.1919 0.865466 67.7929 0.869628 66.394C0.874873 64.3004 0.869741 62.2069 0.86328 60.1133C0.859532 51.7043 1.20987 43.3765 2 35C2.66 35 3.32 35 4 35C4 31.37 4 27.74 4 24C4.66 23.67 5.32 23.34 6 23C6.47001 19.7244 6.47001 19.7244 6.625 15.9375C6.73715 14.002 6.73715 14.002 6.85156 12.0273C6.90055 11.0283 6.94953 10.0293 7 9C7.66 9 8.32 9 9 9C8.95875 8.05125 8.9175 7.1025 8.875 6.125C9.02563 2.3592 9.48121 1.00734 13.4258 0.988281Z" fill="#88CDC4"/>
</svg>
