<svg xmlns="http://www.w3.org/2000/svg" xmlns:xlink="http://www.w3.org/1999/xlink" width="100" zoomAndPan="magnify" viewBox="0 0 75 74.999997" height="100" preserveAspectRatio="xMidYMid meet" version="1.0"><defs><clipPath id="cefe44e0f3"><path d="M 7 8.203125 L 67.710938 8.203125 L 67.710938 55 L 7 55 Z M 7 8.203125 " clip-rule="nonzero"/></clipPath></defs><rect x="-7.5" width="90" fill="#ffffff" y="-7.5" height="89.999996" fill-opacity="1"/><rect x="-7.5" width="90" fill="#ffffff" y="-7.5" height="89.999996" fill-opacity="1"/><g clip-path="url(#cefe44e0f3)"><path fill="#6c3249" d="M 62.988281 44.003906 C 64.441406 36.207031 66.125 28.457031 67.589844 20.664062 C 68.03125 18.316406 66.703125 15.3125 64.136719 14.9375 C 63.003906 14.625 61.679688 15.832031 62.144531 16.984375 C 62.289062 17.953125 63.394531 18.0625 64.136719 18.3125 C 64.363281 18.9375 64.78125 19.589844 64.515625 20.285156 C 64.351562 21.121094 64.183594 21.957031 64.015625 22.792969 L 26.234375 22.792969 C 25.488281 22.792969 24.878906 23.398438 24.878906 24.148438 C 24.878906 24.894531 25.488281 25.5 26.234375 25.5 L 63.480469 25.5 C 62.46875 30.570312 61.445312 35.640625 60.449219 40.71875 C 60.230469 41.773438 60.070312 42.859375 59.628906 43.855469 C 58.832031 44.164062 57.945312 44.007812 57.117188 44.050781 C 47.289062 44.023438 37.464844 44.046875 27.644531 44.042969 C 25.148438 33.398438 22.6875 22.75 20.183594 12.105469 C 19.863281 10.097656 18.148438 8.246094 16.015625 8.320312 C 13.464844 8.332031 10.910156 8.214844 8.367188 8.394531 C 6.964844 8.875 6.964844 10.949219 8.339844 11.472656 C 11.023438 11.726562 13.738281 11.402344 16.421875 11.628906 C 17.066406 11.945312 16.949219 12.835938 17.195312 13.421875 C 20.128906 26.074219 23.089844 38.71875 26.078125 51.367188 C 26.464844 53.429688 28.429688 55.074219 30.5625 54.867188 C 41.054688 54.851562 51.546875 54.90625 62.03125 54.839844 C 64.035156 54.90625 64.042969 51.597656 62.042969 51.648438 C 52.632812 51.582031 43.21875 51.632812 33.808594 51.621094 C 32.398438 51.585938 30.960938 51.75 29.566406 51.46875 C 28.945312 50.152344 28.777344 48.679688 28.402344 47.289062 C 38.515625 47.289062 48.628906 47.292969 58.742188 47.289062 C 60.703125 47.457031 62.695312 45.96875 62.988281 44.003906 Z M 62.988281 44.003906 " fill-opacity="1" fill-rule="nonzero"/></g><path fill="#6c3249" d="M 31.722656 56.066406 C 29.867188 56.425781 28.332031 57.96875 27.972656 59.820312 C 27.367188 62.371094 29.1875 65.152344 31.773438 65.59375 C 34.453125 66.210938 37.328125 64.140625 37.558594 61.398438 C 38.066406 58.21875 34.839844 55.269531 31.722656 56.066406 Z M 34.070312 61.710938 C 33.550781 62.566406 32.230469 62.734375 31.574219 61.9375 C 30.675781 61.144531 31.167969 59.550781 32.289062 59.269531 C 33.621094 58.761719 35.011719 60.589844 34.070312 61.710938 Z M 34.070312 61.710938 " fill-opacity="1" fill-rule="nonzero"/><path fill="#6c3249" d="M 55.589844 56.054688 C 52.042969 56.59375 50.425781 61.398438 52.859375 64 C 55.058594 66.785156 60.035156 65.921875 61.117188 62.523438 C 62.546875 59.140625 59.15625 55.15625 55.589844 56.054688 Z M 57.433594 62.164062 C 55.773438 63.460938 53.835938 60.507812 55.664062 59.480469 C 57.328125 58.179688 59.277344 61.136719 57.433594 62.164062 Z M 57.433594 62.164062 " fill-opacity="1" fill-rule="nonzero"/></svg>