<svg width="100" height="100" viewBox="0 0 100 100" fill="none" xmlns="http://www.w3.org/2000/svg">
<g id="email-icon 1" clip-path="url(#clip0_1_2)">
<path id="Vector" d="M110 -10H-10V110H110V-10Z" fill="#F2F2F2"/>
<path id="Vector_2" d="M110 -10H-10V110H110V-10Z" fill="#F2F2F2"/>
<path id="Vector_3" d="M40.1302 53.5104C41.4219 54.6458 42.9583 55.5313 44.901 56.1823C46.7604 56.8281 48.8646 57.0677 51.2083 57.0677C52.7448 57.0677 54.1979 56.9063 55.4948 56.6667C56.7865 56.4219 58 55.9375 59.0521 55.4531C60.1042 54.8854 61.0729 54.2396 61.8021 53.4323C62.6094 52.6198 63.2552 51.7344 63.7396 50.6823H60.6667C59.8594 51.7344 58.8073 52.5417 57.5937 53.1875C56.3802 53.7552 54.8437 54.1563 53.1458 54.401C50.9635 54.6458 48.9427 54.5625 47.1667 54.1563C45.3854 53.7552 43.9323 53.1094 42.6354 52.2188C41.4219 51.3281 40.4531 50.1979 39.8073 48.8229C39.1615 47.4479 38.8385 45.9896 38.8385 44.375C38.8385 43.1615 39 41.9479 39.3229 40.7344C39.6458 39.526 40.0521 38.474 40.6146 37.5C41.2604 36.3698 42.0729 35.4792 43.0417 34.6719C44.0104 33.9427 45.1458 33.3802 46.4375 32.974C47.7292 32.5729 49.1875 32.4063 50.724 32.4063C52.2604 32.4063 53.6354 32.651 54.8437 33.0573C56.0573 33.4583 57.0313 34.026 57.8385 34.7552C58.6458 35.4792 59.2917 36.3698 59.6979 37.3385C60.099 38.3125 60.3437 39.4427 60.3437 40.5729C60.3437 41.9479 60.0208 43.2448 59.4531 44.375C58.8906 45.5052 58.1615 46.4792 57.3542 47.125C56.5417 47.7708 55.8958 48.0938 55.3333 48.0938C55.1719 48.0938 55.0885 48.0156 54.9271 47.9323C54.8437 47.7708 54.7656 47.6094 54.7656 47.4479C54.7656 47.2031 54.8437 46.8021 54.9271 46.1563L57.1094 35.8854H53.3073L52.9844 37.5C52.1771 36.2083 50.9635 35.5625 49.1875 35.5625C47.7292 35.5625 46.3542 36.0469 45.1458 36.9375C43.9323 37.8281 43.0417 39.0365 42.3958 40.4948C41.75 41.9479 41.4219 43.4063 41.4219 44.9427C41.4219 46.3958 41.75 47.6094 42.3958 48.5781C43.0417 49.5521 43.849 50.276 44.8177 50.6823C45.7917 51.0885 46.8437 51.1667 47.974 51.0052C49.026 50.7604 49.9948 50.276 50.8021 49.4688C50.9635 50.0365 51.2083 50.4375 51.6927 50.6823C52.099 50.9219 52.7448 51.0885 53.474 51.0885C54.7656 51.0885 56.0573 50.8438 57.1927 50.276C58.3229 49.7135 59.375 48.901 60.1823 47.9323C61.0729 46.9635 61.7187 45.8281 62.125 44.6198C62.6094 43.4063 62.7708 42.1094 62.7708 40.8958C62.7708 39.2813 62.526 37.7448 61.9635 36.4531C61.3958 35.0781 60.5885 33.9427 59.5365 32.974C58.4844 32.0052 57.1927 31.1979 55.6562 30.7083C54.1198 30.1458 52.5 29.901 50.724 29.901C48.5417 29.901 46.5156 30.3073 44.6562 31.0365C42.7969 31.7604 41.2604 32.8125 39.9687 34.1042C38.6771 35.401 37.7031 36.9375 37.0573 38.7135C36.4115 40.4948 36.0052 42.3542 36.0052 44.375C36.0052 46.3177 36.3281 48.0938 36.9792 49.7135C37.8646 51.0052 38.8385 52.3802 40.1302 53.5104ZM51.776 44.5365C51.4479 45.5885 50.8854 46.5573 50.2396 47.2031C49.5885 47.9323 48.7812 48.2552 47.8906 48.2552C47.0833 48.2552 46.5156 47.9323 46.0312 47.3646C45.5469 46.7188 45.3073 45.9115 45.3073 44.7813C45.3073 43.6458 45.4687 42.5938 45.8698 41.5469C46.276 40.4948 46.7604 39.6875 47.4062 39.0365C48.0521 38.3906 48.8646 38.0677 49.6719 38.0677C50.0781 38.0677 50.4792 38.151 50.8021 38.3125C51.125 38.474 51.4479 38.7135 51.6094 39.0365C51.8542 39.3646 52.0156 39.6875 52.1771 40.0885C52.2604 40.4948 52.3385 40.9792 52.3385 41.4635C52.3385 42.4323 52.1771 43.4844 51.776 44.5365Z" fill="#6C3249"/>
<g id="Clip path group">
<mask id="mask0_1_2" style="mask-type:luminance" maskUnits="userSpaceOnUse" x="8" y="17" width="84" height="67">
<g id="8cf417b477">
<path id="Vector_4" d="M8.24479 17.125H92V83.125H8.24479V17.125Z" fill="white"/>
</g>
</mask>
<g mask="url(#mask0_1_2)">
<g id="Group">
<path id="Vector_5" d="M84.0365 35.9688C83.3854 35.6406 82.8229 35.3177 82.2552 34.9948L50.6406 17.3698C50.3177 17.125 49.8333 17.125 49.4271 17.3698L17.7344 34.9948C17.1667 35.3177 16.6042 35.6406 15.9531 35.9688C11.9948 38.0677 8.35416 39.9271 8.35416 44.7813V72.9167C8.35416 75.6667 9.48437 78.1719 11.2656 79.9531C13.0469 81.7292 15.5521 82.8594 18.3021 82.8594H81.6875C84.4375 82.8594 86.9427 81.7292 88.724 79.9531C90.5052 78.1719 91.6354 75.6667 91.6354 72.9167V44.7813C91.6354 39.9271 87.9948 37.9896 84.0365 35.9688ZM17.0885 38.0677C17.651 37.7448 18.2187 37.5 18.8646 37.099L49.9948 19.875L81.0417 37.099C81.6875 37.4219 82.2552 37.7448 82.8229 38.0677C85.8958 39.6875 88.724 41.1406 89.0469 44.0521L65.9219 57.7969L49.9948 67.1771L34.0677 57.7969L10.8594 44.1302C11.2656 41.224 14.0937 39.6875 17.0885 38.0677ZM10.8594 46.9635L31.0729 58.849L10.8594 70.7344V46.9635ZM86.9427 78.1719C85.5729 79.5469 83.7135 80.3542 81.6875 80.3542H18.3021C16.2812 80.3542 14.3385 79.5469 13.0469 78.1719C11.8333 76.9583 11.0208 75.3438 10.8594 73.5625L33.5 60.224L49.4271 69.6042C49.8333 69.8438 50.3177 69.8438 50.724 69.6042L66.651 60.224L89.2917 73.5625C88.9687 75.3438 88.1563 76.9583 86.9427 78.1719ZM89.1302 70.7344L68.9167 58.849L89.1302 46.9635V70.7344Z" fill="#6C3249"/>
</g>
</g>
</g>
</g>
<defs>
<clipPath id="clip0_1_2">
<rect width="100" height="100" fill="white"/>
</clipPath>
</defs>
</svg>
