<svg xmlns="http://www.w3.org/2000/svg" xmlns:xlink="http://www.w3.org/1999/xlink" width="100" zoomAndPan="magnify" viewBox="0 0 75 74.999997" height="100" preserveAspectRatio="xMidYMid meet" version="1.0"><defs><clipPath id="8cf417b477"><path d="M 6.183594 12.84375 L 69 12.84375 L 69 62.34375 L 6.183594 62.34375 Z M 6.183594 12.84375 " clip-rule="nonzero"/></clipPath></defs><rect x="-7.5" width="90" fill="#ffffff" y="-7.5" height="89.999996" fill-opacity="1"/><rect x="-7.5" width="90" fill="#ffffff" y="-7.5" height="89.999996" fill-opacity="1"/><path fill="#6c3249" d="M 30.097656 40.132812 C 31.066406 40.984375 32.21875 41.648438 33.675781 42.136719 C 35.070312 42.621094 36.648438 42.800781 38.40625 42.800781 C 39.558594 42.800781 40.648438 42.679688 41.621094 42.5 C 42.589844 42.316406 43.5 41.953125 44.289062 41.589844 C 45.078125 41.164062 45.804688 40.679688 46.351562 40.074219 C 46.957031 39.464844 47.441406 38.800781 47.804688 38.011719 L 45.5 38.011719 C 44.894531 38.800781 44.105469 39.40625 43.195312 39.890625 C 42.285156 40.316406 41.132812 40.617188 39.859375 40.800781 C 38.222656 40.984375 36.707031 40.921875 35.375 40.617188 C 34.039062 40.316406 32.949219 39.832031 31.976562 39.164062 C 31.066406 38.496094 30.339844 37.648438 29.855469 36.617188 C 29.371094 35.585938 29.128906 34.492188 29.128906 33.28125 C 29.128906 32.371094 29.25 31.460938 29.492188 30.550781 C 29.734375 29.644531 30.039062 28.855469 30.460938 28.125 C 30.945312 27.277344 31.554688 26.609375 32.28125 26.003906 C 33.007812 25.457031 33.859375 25.035156 34.828125 24.730469 C 35.796875 24.429688 36.890625 24.304688 38.042969 24.304688 C 39.195312 24.304688 40.226562 24.488281 41.132812 24.792969 C 42.042969 25.09375 42.773438 25.519531 43.378906 26.066406 C 43.984375 26.609375 44.46875 27.277344 44.773438 28.003906 C 45.074219 28.734375 45.257812 29.582031 45.257812 30.429688 C 45.257812 31.460938 45.015625 32.433594 44.589844 33.28125 C 44.167969 34.128906 43.621094 34.859375 43.015625 35.34375 C 42.40625 35.828125 41.921875 36.070312 41.5 36.070312 C 41.378906 36.070312 41.316406 36.011719 41.195312 35.949219 C 41.132812 35.828125 41.074219 35.707031 41.074219 35.585938 C 41.074219 35.402344 41.132812 35.101562 41.195312 34.617188 L 42.832031 26.914062 L 39.980469 26.914062 L 39.738281 28.125 C 39.132812 27.15625 38.222656 26.671875 36.890625 26.671875 C 35.796875 26.671875 34.765625 27.035156 33.859375 27.703125 C 32.949219 28.371094 32.28125 29.277344 31.796875 30.371094 C 31.3125 31.460938 31.066406 32.554688 31.066406 33.707031 C 31.066406 34.796875 31.3125 35.707031 31.796875 36.433594 C 32.28125 37.164062 32.886719 37.707031 33.613281 38.011719 C 34.34375 38.316406 35.132812 38.375 35.980469 38.253906 C 36.769531 38.070312 37.496094 37.707031 38.101562 37.101562 C 38.222656 37.527344 38.40625 37.828125 38.769531 38.011719 C 39.074219 38.191406 39.558594 38.316406 40.105469 38.316406 C 41.074219 38.316406 42.042969 38.132812 42.894531 37.707031 C 43.742188 37.285156 44.53125 36.675781 45.136719 35.949219 C 45.804688 35.222656 46.289062 34.371094 46.59375 33.464844 C 46.957031 32.554688 47.078125 31.582031 47.078125 30.671875 C 47.078125 29.460938 46.894531 28.308594 46.472656 27.339844 C 46.046875 26.308594 45.441406 25.457031 44.652344 24.730469 C 43.863281 24.003906 42.894531 23.398438 41.742188 23.03125 C 40.589844 22.609375 39.375 22.425781 38.042969 22.425781 C 36.40625 22.425781 34.886719 22.730469 33.492188 23.277344 C 32.097656 23.820312 30.945312 24.609375 29.976562 25.578125 C 29.007812 26.550781 28.277344 27.703125 27.792969 29.035156 C 27.308594 30.371094 27.003906 31.765625 27.003906 33.28125 C 27.003906 34.738281 27.246094 36.070312 27.734375 37.285156 C 28.398438 38.253906 29.128906 39.285156 30.097656 40.132812 Z M 38.832031 33.402344 C 38.585938 34.191406 38.164062 34.917969 37.679688 35.402344 C 37.191406 35.949219 36.585938 36.191406 35.917969 36.191406 C 35.3125 36.191406 34.886719 35.949219 34.523438 35.523438 C 34.160156 35.039062 33.980469 34.433594 33.980469 33.585938 C 33.980469 32.734375 34.101562 31.945312 34.402344 31.160156 C 34.707031 30.371094 35.070312 29.765625 35.554688 29.277344 C 36.039062 28.792969 36.648438 28.550781 37.253906 28.550781 C 37.558594 28.550781 37.859375 28.613281 38.101562 28.734375 C 38.34375 28.855469 38.585938 29.035156 38.707031 29.277344 C 38.890625 29.523438 39.011719 29.765625 39.132812 30.066406 C 39.195312 30.371094 39.253906 30.734375 39.253906 31.097656 C 39.253906 31.824219 39.132812 32.613281 38.832031 33.402344 Z M 38.832031 33.402344 " fill-opacity="1" fill-rule="nonzero"/><g clip-path="url(#8cf417b477)"><path fill="#6c3249" d="M 63.027344 26.976562 C 62.539062 26.730469 62.117188 26.488281 61.691406 26.246094 L 37.980469 13.027344 C 37.738281 12.84375 37.375 12.84375 37.070312 13.027344 L 13.300781 26.246094 C 12.875 26.488281 12.453125 26.730469 11.964844 26.976562 C 8.996094 28.550781 6.265625 29.945312 6.265625 33.585938 L 6.265625 54.6875 C 6.265625 56.75 7.113281 58.628906 8.449219 59.964844 C 9.785156 61.296875 11.664062 62.144531 13.726562 62.144531 L 61.265625 62.144531 C 63.328125 62.144531 65.207031 61.296875 66.542969 59.964844 C 67.878906 58.628906 68.726562 56.75 68.726562 54.6875 L 68.726562 33.585938 C 68.726562 29.945312 65.996094 28.492188 63.027344 26.976562 Z M 12.816406 28.550781 C 13.238281 28.308594 13.664062 28.125 14.148438 27.824219 L 37.496094 14.90625 L 60.78125 27.824219 C 61.265625 28.066406 61.691406 28.308594 62.117188 28.550781 C 64.421875 29.765625 66.542969 30.855469 66.785156 33.039062 L 49.441406 43.347656 L 37.496094 50.382812 L 25.550781 43.347656 L 8.144531 33.097656 C 8.449219 30.917969 10.570312 29.765625 12.816406 28.550781 Z M 8.144531 35.222656 L 23.304688 44.136719 L 8.144531 53.050781 Z M 65.207031 58.628906 C 64.179688 59.660156 62.785156 60.265625 61.265625 60.265625 L 13.726562 60.265625 C 12.210938 60.265625 10.753906 59.660156 9.785156 58.628906 C 8.875 57.71875 8.265625 56.507812 8.144531 55.171875 L 25.125 45.167969 L 37.070312 52.203125 C 37.375 52.382812 37.738281 52.382812 38.042969 52.203125 L 49.988281 45.167969 L 66.96875 55.171875 C 66.726562 56.507812 66.117188 57.71875 65.207031 58.628906 Z M 66.847656 53.050781 L 51.6875 44.136719 L 66.847656 35.222656 Z M 66.847656 53.050781 " fill-opacity="1" fill-rule="nonzero"/></g></svg>