<svg xmlns="http://www.w3.org/2000/svg" xmlns:xlink="http://www.w3.org/1999/xlink" width="100" zoomAndPan="magnify" viewBox="0 0 75 74.999997" height="100" preserveAspectRatio="xMidYMid meet" version="1.0"><defs><clipPath id="85fed29e17"><path d="M 7.113281 10 L 57 10 L 57 72 L 7.113281 72 Z M 7.113281 10 " clip-rule="nonzero"/></clipPath><clipPath id="286a00e779"><path d="M 36 18 L 67.863281 18 L 67.863281 61 L 36 61 Z M 36 18 " clip-rule="nonzero"/></clipPath></defs><rect x="-7.5" width="90" fill="#ffffff" y="-7.5" height="89.999996" fill-opacity="1"/><rect x="-7.5" width="90" fill="#ffffff" y="-7.5" height="89.999996" fill-opacity="1"/><g clip-path="url(#85fed29e17)"><path fill="#6c3249" d="M 52.492188 71.960938 L 11.34375 71.960938 C 9.035156 71.960938 7.113281 70.039062 7.113281 67.730469 L 7.113281 14.855469 C 7.113281 12.546875 9.035156 10.625 11.34375 10.625 L 15.382812 10.625 C 16.152344 10.625 16.824219 11.296875 16.824219 12.066406 C 16.824219 12.835938 16.152344 13.507812 15.382812 13.507812 L 11.34375 13.507812 C 10.574219 13.507812 10 14.085938 10 14.855469 L 10 67.730469 C 10 68.5 10.574219 69.078125 11.34375 69.078125 L 52.492188 69.078125 C 53.261719 69.078125 53.839844 68.5 53.839844 67.730469 L 53.839844 49.464844 C 53.839844 48.695312 54.511719 48.023438 55.28125 48.023438 C 56.050781 48.023438 56.722656 48.695312 56.722656 49.464844 L 56.722656 67.730469 C 56.722656 70.136719 54.898438 71.960938 52.492188 71.960938 Z M 52.492188 71.960938 " fill-opacity="1" fill-rule="nonzero"/></g><path fill="#6c3249" d="M 55.28125 20.140625 C 54.511719 20.140625 53.839844 19.46875 53.839844 18.699219 L 53.839844 14.855469 C 53.839844 14.085938 53.261719 13.507812 52.492188 13.507812 L 48.457031 13.507812 C 47.6875 13.507812 47.011719 12.835938 47.011719 12.066406 C 47.011719 11.296875 47.6875 10.625 48.457031 10.625 L 52.492188 10.625 C 54.800781 10.625 56.722656 12.546875 56.722656 14.855469 L 56.722656 18.699219 C 56.722656 19.46875 56.148438 20.140625 55.28125 20.140625 Z M 55.28125 20.140625 " fill-opacity="1" fill-rule="nonzero"/><path fill="#6c3249" d="M 41.339844 19.371094 L 22.496094 19.371094 C 21.054688 19.371094 19.804688 18.21875 19.804688 16.679688 L 19.804688 9.566406 C 19.804688 8.125 20.957031 6.875 22.496094 6.875 L 26.824219 6.875 C 27.496094 4.664062 29.515625 3.027344 31.917969 3.027344 C 34.324219 3.027344 36.4375 4.664062 37.015625 6.875 L 41.246094 6.875 C 42.6875 6.875 43.9375 8.027344 43.9375 9.566406 L 43.9375 16.679688 C 44.03125 18.21875 42.878906 19.371094 41.339844 19.371094 Z M 22.785156 16.488281 L 41.148438 16.488281 L 41.148438 9.757812 L 35.859375 9.757812 C 35.089844 9.757812 34.417969 9.085938 34.417969 8.316406 C 34.417969 6.96875 33.359375 5.914062 32.015625 5.914062 C 30.667969 5.914062 29.613281 6.96875 29.613281 8.316406 C 29.613281 9.085938 28.9375 9.757812 28.167969 9.757812 L 22.785156 9.757812 Z M 22.785156 16.488281 " fill-opacity="1" fill-rule="nonzero"/><path fill="#6c3249" d="M 26.054688 48.695312 L 16.34375 48.695312 L 16.34375 38.984375 L 26.054688 38.984375 Z M 19.226562 45.8125 L 23.167969 45.8125 L 23.167969 41.871094 L 19.226562 41.871094 Z M 19.226562 45.8125 " fill-opacity="1" fill-rule="nonzero"/><path fill="#6c3249" d="M 37.878906 45.234375 L 31.726562 45.234375 C 30.957031 45.234375 30.285156 44.5625 30.285156 43.792969 C 30.285156 43.023438 30.957031 42.351562 31.726562 42.351562 L 37.878906 42.351562 C 38.648438 42.351562 39.320312 43.023438 39.320312 43.792969 C 39.320312 44.5625 38.648438 45.234375 37.878906 45.234375 Z M 37.878906 45.234375 " fill-opacity="1" fill-rule="nonzero"/><path fill="#6c3249" d="M 26.054688 63.019531 L 16.34375 63.019531 L 16.34375 53.3125 L 26.054688 53.3125 Z M 19.226562 60.136719 L 23.167969 60.136719 L 23.167969 56.195312 L 19.226562 56.195312 Z M 19.226562 60.136719 " fill-opacity="1" fill-rule="nonzero"/><path fill="#6c3249" d="M 26.054688 34.371094 L 16.34375 34.371094 L 16.34375 24.660156 L 26.054688 24.660156 Z M 19.226562 31.488281 L 23.167969 31.488281 L 23.167969 27.542969 L 19.226562 27.542969 Z M 19.226562 31.488281 " fill-opacity="1" fill-rule="nonzero"/><path fill="#6c3249" d="M 46.050781 28.121094 L 31.628906 28.121094 C 30.859375 28.121094 30.1875 27.449219 30.1875 26.679688 C 30.1875 25.910156 30.859375 25.238281 31.628906 25.238281 L 46.050781 25.238281 C 46.820312 25.238281 47.492188 25.910156 47.492188 26.679688 C 47.492188 27.449219 46.917969 28.121094 46.050781 28.121094 Z M 46.050781 28.121094 " fill-opacity="1" fill-rule="nonzero"/><path fill="#6c3249" d="M 42.300781 33.699219 L 31.726562 33.699219 C 30.957031 33.699219 30.285156 33.023438 30.285156 32.253906 C 30.285156 31.488281 30.957031 30.8125 31.726562 30.8125 L 42.398438 30.8125 C 43.167969 30.8125 43.839844 31.488281 43.839844 32.253906 C 43.839844 33.023438 43.167969 33.699219 42.300781 33.699219 Z M 42.300781 33.699219 " fill-opacity="1" fill-rule="nonzero"/><g clip-path="url(#286a00e779)"><path fill="#6c3249" d="M 38.070312 60.808594 C 37.785156 60.808594 37.496094 60.714844 37.300781 60.523438 C 36.820312 60.234375 36.535156 59.558594 36.726562 58.984375 L 38.457031 51.675781 C 38.457031 51.484375 38.550781 51.292969 38.648438 51.195312 L 56.433594 25.140625 C 56.914062 24.46875 57.78125 24.277344 58.453125 24.757812 C 59.125 25.238281 59.320312 26.101562 58.839844 26.777344 L 41.050781 52.734375 L 40.28125 56.097656 L 43.167969 54.175781 L 62.394531 26.007812 L 59.125 23.796875 C 58.839844 23.601562 58.550781 23.21875 58.550781 22.832031 C 58.453125 22.449219 58.550781 22.066406 58.742188 21.777344 L 60.570312 18.988281 C 61.050781 18.316406 61.914062 18.121094 62.589844 18.605469 L 67.011719 21.679688 C 67.683594 22.160156 67.875 23.027344 67.394531 23.699219 C 66.914062 24.371094 66.050781 24.5625 65.375 24.082031 L 62.105469 21.871094 L 61.914062 22.160156 L 65.183594 24.371094 C 65.472656 24.5625 65.761719 24.949219 65.761719 25.332031 C 65.855469 25.71875 65.761719 26.101562 65.570312 26.390625 L 45.378906 55.90625 C 45.28125 56.097656 45.1875 56.195312 44.992188 56.292969 L 38.839844 60.617188 C 38.648438 60.714844 38.359375 60.808594 38.070312 60.808594 Z M 38.070312 60.808594 " fill-opacity="1" fill-rule="nonzero"/></g></svg>