<svg xmlns="http://www.w3.org/2000/svg" xmlns:xlink="http://www.w3.org/1999/xlink" width="100" zoomAndPan="magnify" viewBox="0 0 75 74.999997" height="100" preserveAspectRatio="xMidYMid meet" version="1.0"><defs><clipPath id="42835a46fe"><path d="M 6 19.675781 L 24 19.675781 L 24 42 L 6 42 Z M 6 19.675781 " clip-rule="nonzero"/></clipPath><clipPath id="7b9cb44bec"><path d="M 11 19.675781 L 36 19.675781 L 36 55.675781 L 11 55.675781 Z M 11 19.675781 " clip-rule="nonzero"/></clipPath><clipPath id="42129b4e07"><path d="M 38 19.675781 L 57 19.675781 L 57 42 L 38 42 Z M 38 19.675781 " clip-rule="nonzero"/></clipPath><clipPath id="720410fc9b"><path d="M 44 19.675781 L 68.875 19.675781 L 68.875 55.675781 L 44 55.675781 Z M 44 19.675781 " clip-rule="nonzero"/></clipPath></defs><rect x="-7.5" width="90" fill="#ffffff" y="-7.5" height="89.999996" fill-opacity="1"/><rect x="-7.5" width="90" fill="#ffffff" y="-7.5" height="89.999996" fill-opacity="1"/><g clip-path="url(#42835a46fe)"><path fill="#6c3249" d="M 23 19.800781 L 22.527344 19.746094 C 22.070312 19.695312 21.613281 19.671875 21.15625 19.675781 C 19.40625 19.683594 17.710938 19.976562 16.0625 20.5625 C 13.6875 21.386719 11.617188 22.699219 9.855469 24.5 C 8.914062 25.460938 8.113281 26.53125 7.460938 27.710938 C 6.742188 28.964844 6.304688 30.3125 6.148438 31.753906 C 6.023438 33.25 6.320312 34.65625 7.035156 35.972656 C 7.75 37.300781 8.730469 38.386719 9.980469 39.226562 C 11.246094 40.078125 12.628906 40.632812 14.132812 40.894531 C 15.441406 41.121094 16.75 41.121094 18.058594 40.894531 C 19.792969 40.683594 21.332031 40.019531 22.671875 38.898438 C 22.953125 38.636719 23.195312 38.34375 23.398438 38.011719 L 23.566406 37.675781 L 23.300781 37.90625 C 23.195312 38.003906 23.082031 38.09375 22.964844 38.171875 C 22.800781 38.292969 22.628906 38.402344 22.449219 38.5 C 21.179688 39.148438 19.832031 39.492188 18.40625 39.53125 C 17.398438 39.585938 16.402344 39.507812 15.417969 39.289062 C 14.359375 39.042969 13.394531 38.601562 12.515625 37.960938 C 11.582031 37.273438 10.847656 36.414062 10.316406 35.378906 C 9.785156 34.285156 9.578125 33.132812 9.699219 31.921875 C 9.984375 29.683594 10.816406 27.671875 12.1875 25.882812 C 13.265625 24.394531 14.570312 23.152344 16.113281 22.15625 C 17.652344 21.15625 19.320312 20.472656 21.117188 20.101562 C 21.703125 19.976562 22.175781 19.90625 22.492188 19.859375 Z M 23 19.800781 " fill-opacity="1" fill-rule="nonzero"/></g><g clip-path="url(#7b9cb44bec)"><path fill="#6c3249" d="M 23.523438 37.648438 L 23.683594 37.410156 C 23.867188 38.433594 23.867188 39.457031 23.683594 40.480469 C 23.175781 42.878906 22.09375 44.976562 20.425781 46.773438 C 19.277344 48.089844 17.917969 49.140625 16.355469 49.921875 C 15.46875 50.410156 14.53125 50.878906 13.527344 51.386719 L 12.765625 51.765625 C 12.363281 51.953125 12.011719 52.207031 11.710938 52.53125 C 11.480469 52.78125 11.355469 53.078125 11.339844 53.417969 C 11.335938 53.792969 11.460938 54.117188 11.71875 54.390625 C 12.199219 54.910156 12.789062 55.207031 13.492188 55.277344 C 14.078125 55.347656 14.652344 55.304688 15.222656 55.144531 C 15.65625 55.011719 15.984375 54.878906 16.257812 54.773438 L 18.03125 54.082031 C 19.230469 53.601562 20.453125 53.078125 21.675781 52.503906 C 24.226562 51.335938 26.578125 49.851562 28.726562 48.050781 C 30.644531 46.449219 32.210938 44.5625 33.433594 42.386719 C 34.65625 40.207031 35.453125 37.882812 35.820312 35.414062 C 36.082031 33.429688 35.996094 31.460938 35.566406 29.507812 C 35.171875 27.753906 34.453125 26.144531 33.410156 24.675781 C 32.558594 23.484375 31.523438 22.488281 30.300781 21.6875 C 29.074219 20.882812 27.746094 20.332031 26.316406 20.03125 C 25.515625 19.867188 24.703125 19.789062 23.886719 19.789062 C 23.316406 19.789062 23 19.789062 23 19.789062 L 23.726562 19.878906 C 24.421875 19.980469 25.101562 20.136719 25.773438 20.339844 C 26.796875 20.660156 27.75 21.125 28.640625 21.722656 C 29.738281 22.480469 30.648438 23.425781 31.371094 24.550781 C 32.199219 25.871094 32.753906 27.292969 33.027344 28.828125 C 33.324219 30.628906 33.324219 32.433594 33.027344 34.234375 C 32.695312 36.375 32.011719 38.398438 30.980469 40.300781 C 29.714844 42.589844 28.085938 44.585938 26.09375 46.277344 C 24.265625 47.789062 22.285156 49.070312 20.160156 50.125 C 19.089844 50.675781 17.996094 51.191406 16.898438 51.6875 L 15.25 52.484375 L 14.441406 52.839844 C 14.28125 52.914062 14.113281 52.976562 13.945312 53.027344 L 13.890625 53.027344 C 13.847656 53.683594 13.890625 53.203125 13.890625 53.347656 L 13.890625 53.265625 C 13.847656 53.320312 13.792969 53.367188 13.730469 53.40625 C 13.660156 53.457031 13.578125 53.492188 13.492188 53.515625 L 13.679688 53.515625 C 13.792969 53.554688 13.902344 53.605469 14.007812 53.664062 L 14.105469 53.726562 L 14.132812 53.726562 C 14.300781 53.597656 14.472656 53.480469 14.65625 53.371094 C 15.585938 52.824219 16.527344 52.28125 17.429688 51.714844 C 19.140625 50.710938 20.597656 49.425781 21.800781 47.847656 C 23.414062 45.726562 24.269531 43.335938 24.375 40.671875 C 24.371094 39.539062 24.140625 38.449219 23.683594 37.410156 Z M 23.523438 37.648438 " fill-opacity="1" fill-rule="nonzero"/></g><g clip-path="url(#42129b4e07)"><path fill="#6c3249" d="M 55.808594 19.800781 L 55.332031 19.746094 C 54.878906 19.695312 54.421875 19.671875 53.964844 19.675781 C 52.214844 19.679688 50.515625 19.976562 48.867188 20.5625 C 46.492188 21.394531 44.421875 22.707031 42.660156 24.5 C 41.703125 25.464844 40.894531 26.546875 40.238281 27.734375 C 39.53125 28.984375 39.105469 30.324219 38.960938 31.753906 C 38.839844 33.246094 39.136719 34.652344 39.847656 35.972656 C 40.5625 37.296875 41.546875 38.382812 42.792969 39.226562 C 44.050781 40.078125 45.429688 40.632812 46.925781 40.894531 C 48.234375 41.121094 49.542969 41.121094 50.851562 40.894531 C 52.585938 40.683594 54.125 40.019531 55.464844 38.898438 C 55.75 38.640625 55.992188 38.34375 56.191406 38.011719 L 56.367188 37.675781 L 56.101562 37.90625 C 55.996094 38.007812 55.882812 38.097656 55.757812 38.171875 C 55.59375 38.296875 55.421875 38.40625 55.242188 38.5 C 53.972656 39.148438 52.625 39.492188 51.199219 39.53125 C 50.195312 39.589844 49.199219 39.507812 48.21875 39.289062 C 47.160156 39.046875 46.195312 38.601562 45.320312 37.960938 C 44.398438 37.277344 43.679688 36.425781 43.15625 35.40625 C 42.617188 34.3125 42.410156 33.160156 42.535156 31.949219 C 42.804688 29.703125 43.625 27.683594 44.992188 25.882812 C 46.066406 24.394531 47.375 23.152344 48.914062 22.15625 C 50.453125 21.15625 52.125 20.472656 53.921875 20.101562 C 54.507812 19.976562 54.976562 19.90625 55.304688 19.859375 Z M 55.808594 19.800781 " fill-opacity="1" fill-rule="nonzero"/></g><g clip-path="url(#720410fc9b)"><path fill="#6c3249" d="M 56.332031 37.648438 L 56.484375 37.410156 C 56.664062 38.433594 56.664062 39.457031 56.484375 40.480469 C 55.972656 42.875 54.886719 44.972656 53.230469 46.773438 C 52.074219 48.085938 50.71875 49.136719 49.160156 49.921875 C 48.273438 50.410156 47.332031 50.878906 46.320312 51.386719 L 45.566406 51.765625 C 45.164062 51.949219 44.808594 52.207031 44.503906 52.53125 C 44.277344 52.78125 44.152344 53.078125 44.132812 53.417969 C 44.128906 53.792969 44.253906 54.117188 44.511719 54.390625 C 44.992188 54.910156 45.582031 55.207031 46.285156 55.277344 C 46.875 55.351562 47.453125 55.304688 48.023438 55.144531 C 48.46875 55.011719 48.785156 54.878906 49.070312 54.773438 L 50.84375 54.082031 C 52.039062 53.601562 53.265625 53.078125 54.488281 52.503906 C 57.035156 51.335938 59.382812 49.851562 61.53125 48.050781 C 63.445312 46.449219 65.015625 44.5625 66.238281 42.386719 C 67.460938 40.207031 68.253906 37.882812 68.625 35.414062 C 68.886719 33.429688 68.796875 31.460938 68.359375 29.507812 C 67.964844 27.753906 67.246094 26.144531 66.203125 24.675781 C 65.355469 23.484375 64.320312 22.484375 63.09375 21.683594 C 61.871094 20.882812 60.542969 20.332031 59.109375 20.03125 C 58.3125 19.871094 57.507812 19.789062 56.695312 19.789062 C 56.128906 19.789062 55.808594 19.789062 55.808594 19.789062 L 56.527344 19.878906 C 57.222656 19.980469 57.90625 20.132812 58.578125 20.339844 C 59.601562 20.660156 60.558594 21.121094 61.449219 21.722656 C 62.546875 22.484375 63.453125 23.429688 64.171875 24.550781 C 65.003906 25.867188 65.558594 27.292969 65.832031 28.828125 C 66.128906 30.628906 66.128906 32.433594 65.832031 34.234375 C 65.5 36.375 64.820312 38.398438 63.789062 40.300781 C 62.519531 42.589844 60.890625 44.582031 58.894531 46.277344 C 57.066406 47.789062 55.089844 49.070312 52.964844 50.125 C 51.898438 50.675781 50.800781 51.191406 49.699219 51.6875 L 48.058594 52.484375 L 47.253906 52.839844 C 47.089844 52.910156 46.925781 52.972656 46.753906 53.027344 L 46.703125 53.027344 C 46.648438 53.683594 46.703125 53.203125 46.703125 53.347656 L 46.703125 53.265625 C 46.664062 53.324219 46.613281 53.371094 46.550781 53.40625 C 46.476562 53.460938 46.394531 53.496094 46.304688 53.515625 L 46.5 53.515625 C 46.609375 53.554688 46.714844 53.605469 46.816406 53.664062 L 46.914062 53.726562 C 47.078125 53.605469 47.25 53.496094 47.429688 53.398438 C 48.359375 52.847656 49.308594 52.308594 50.207031 51.742188 C 51.917969 50.738281 53.375 49.449219 54.578125 47.875 C 56.191406 45.753906 57.050781 43.363281 57.148438 40.699219 C 57.164062 39.554688 56.941406 38.460938 56.484375 37.410156 Z M 56.332031 37.648438 " fill-opacity="1" fill-rule="nonzero"/></g></svg>