<svg xmlns="http://www.w3.org/2000/svg" xmlns:xlink="http://www.w3.org/1999/xlink" width="100" zoomAndPan="magnify" viewBox="0 0 75 74.999997" height="100" preserveAspectRatio="xMidYMid meet" version="1.0"><defs><clipPath id="a6bccfabae"><path d="M 6.925781 3.527344 L 68.425781 3.527344 L 68.425781 71.777344 L 6.925781 71.777344 Z M 6.925781 3.527344 " clip-rule="nonzero"/></clipPath><clipPath id="5d66234dc3"><path d="M 6.925781 52 L 10 52 L 10 55 L 6.925781 55 Z M 6.925781 52 " clip-rule="nonzero"/></clipPath></defs><rect x="-7.5" width="90" fill="#ffffff" y="-7.5" height="89.999996" fill-opacity="1"/><rect x="-7.5" width="90" fill="#ffffff" y="-7.5" height="89.999996" fill-opacity="1"/><path fill="#6c3249" d="M 37.496094 59 C 37.808594 59 38.074219 58.890625 38.296875 58.667969 L 51.648438 45.320312 C 52.046875 44.925781 52.40625 44.492188 52.722656 44.023438 C 53.039062 43.558594 53.308594 43.0625 53.523438 42.542969 C 53.742188 42.019531 53.910156 41.484375 54.019531 40.929688 C 54.132812 40.378906 54.191406 39.816406 54.191406 39.253906 C 54.195312 38.6875 54.140625 38.128906 54.03125 37.574219 C 53.921875 37.019531 53.761719 36.484375 53.546875 35.960938 C 53.328125 35.4375 53.066406 34.945312 52.753906 34.472656 C 52.4375 34.003906 52.082031 33.570312 51.683594 33.171875 C 51.285156 32.769531 50.847656 32.414062 50.378906 32.101562 C 49.910156 31.789062 49.414062 31.523438 48.890625 31.308594 C 48.371094 31.09375 47.832031 30.929688 47.277344 30.820312 C 46.722656 30.710938 46.164062 30.660156 45.601562 30.660156 C 45.035156 30.660156 44.476562 30.71875 43.921875 30.832031 C 43.371094 30.941406 42.832031 31.109375 42.3125 31.328125 C 41.789062 31.546875 41.296875 31.8125 40.828125 32.128906 C 40.359375 32.445312 39.929688 32.804688 39.53125 33.207031 L 37.496094 35.234375 L 35.464844 33.207031 C 35.066406 32.808594 34.632812 32.453125 34.164062 32.140625 C 33.699219 31.828125 33.203125 31.5625 32.683594 31.347656 C 32.164062 31.132812 31.628906 30.96875 31.078125 30.859375 C 30.523438 30.75 29.96875 30.695312 29.40625 30.695312 C 28.84375 30.695312 28.285156 30.75 27.734375 30.859375 C 27.179688 30.96875 26.644531 31.128906 26.125 31.347656 C 25.605469 31.5625 25.113281 31.824219 24.644531 32.136719 C 24.175781 32.449219 23.742188 32.804688 23.34375 33.203125 C 22.945312 33.601562 22.589844 34.035156 22.277344 34.5 C 21.964844 34.96875 21.703125 35.464844 21.488281 35.984375 C 21.269531 36.503906 21.109375 37.039062 21 37.589844 C 20.890625 38.140625 20.832031 38.699219 20.832031 39.261719 C 20.832031 39.824219 20.886719 40.382812 21 40.933594 C 21.109375 41.484375 21.269531 42.023438 21.484375 42.542969 C 21.699219 43.0625 21.964844 43.554688 22.277344 44.023438 C 22.589844 44.492188 22.945312 44.925781 23.34375 45.320312 L 36.6875 58.667969 C 36.910156 58.890625 37.179688 59 37.496094 59 Z M 23.101562 39.261719 C 23.101562 38.640625 23.195312 38.03125 23.375 37.4375 C 23.554688 36.839844 23.820312 36.28125 24.164062 35.765625 C 24.511719 35.246094 24.925781 34.792969 25.40625 34.394531 C 25.890625 34 26.417969 33.683594 26.992188 33.445312 C 27.566406 33.207031 28.164062 33.058594 28.785156 32.996094 C 29.40625 32.933594 30.019531 32.964844 30.632812 33.085938 C 31.242188 33.207031 31.824219 33.414062 32.371094 33.707031 C 32.921875 34 33.417969 34.367188 33.859375 34.808594 L 36.6875 37.636719 C 36.792969 37.742188 36.917969 37.824219 37.054688 37.882812 C 37.195312 37.941406 37.339844 37.96875 37.488281 37.96875 C 37.640625 37.96875 37.785156 37.941406 37.921875 37.882812 C 38.0625 37.824219 38.183594 37.742188 38.289062 37.636719 L 41.121094 34.808594 C 41.414062 34.515625 41.730469 34.253906 42.074219 34.023438 C 42.421875 33.792969 42.785156 33.597656 43.164062 33.441406 C 43.546875 33.28125 43.941406 33.164062 44.347656 33.082031 C 44.753906 33 45.164062 32.960938 45.578125 32.960938 C 45.992188 32.960938 46.402344 33 46.808594 33.082031 C 47.214844 33.164062 47.609375 33.28125 47.992188 33.441406 C 48.375 33.597656 48.738281 33.792969 49.082031 34.023438 C 49.425781 34.253906 49.742188 34.515625 50.035156 34.808594 C 50.328125 35.101562 50.589844 35.417969 50.820312 35.761719 C 51.050781 36.105469 51.246094 36.46875 51.402344 36.851562 C 51.5625 37.234375 51.679688 37.628906 51.761719 38.035156 C 51.84375 38.441406 51.882812 38.851562 51.882812 39.265625 C 51.882812 39.679688 51.84375 40.089844 51.761719 40.496094 C 51.679688 40.902344 51.5625 41.296875 51.402344 41.675781 C 51.246094 42.058594 51.050781 42.421875 50.820312 42.765625 C 50.589844 43.113281 50.328125 43.429688 50.035156 43.722656 L 37.496094 56.265625 L 24.949219 43.714844 C 24.355469 43.125 23.898438 42.445312 23.582031 41.675781 C 23.261719 40.902344 23.101562 40.097656 23.101562 39.261719 Z M 23.101562 39.261719 " fill-opacity="1" fill-rule="nonzero"/><path fill="#6c3249" d="M 15.984375 29.5625 C 15.984375 29.714844 15.953125 29.859375 15.898438 29.996094 C 15.839844 30.136719 15.757812 30.257812 15.652344 30.363281 C 15.546875 30.46875 15.421875 30.550781 15.285156 30.609375 C 15.144531 30.667969 15 30.695312 14.851562 30.695312 C 14.703125 30.695312 14.558594 30.667969 14.417969 30.609375 C 14.28125 30.550781 14.15625 30.46875 14.050781 30.363281 C 13.945312 30.257812 13.863281 30.136719 13.804688 29.996094 C 13.746094 29.859375 13.71875 29.714844 13.71875 29.5625 C 13.71875 29.414062 13.746094 29.269531 13.804688 29.128906 C 13.863281 28.992188 13.945312 28.871094 14.050781 28.761719 C 14.15625 28.65625 14.28125 28.574219 14.417969 28.519531 C 14.558594 28.460938 14.703125 28.433594 14.851562 28.433594 C 15 28.433594 15.144531 28.460938 15.285156 28.519531 C 15.421875 28.574219 15.546875 28.65625 15.652344 28.761719 C 15.757812 28.871094 15.839844 28.992188 15.898438 29.128906 C 15.953125 29.269531 15.984375 29.414062 15.984375 29.5625 Z M 15.984375 29.5625 " fill-opacity="1" fill-rule="nonzero"/><path fill="#6c3249" d="M 15.984375 59 C 15.984375 59.148438 15.953125 59.292969 15.898438 59.433594 C 15.839844 59.570312 15.757812 59.695312 15.652344 59.800781 C 15.546875 59.90625 15.421875 59.988281 15.285156 60.046875 C 15.144531 60.101562 15 60.132812 14.851562 60.132812 C 14.703125 60.132812 14.558594 60.101562 14.417969 60.046875 C 14.28125 59.988281 14.15625 59.90625 14.050781 59.800781 C 13.945312 59.695312 13.863281 59.570312 13.804688 59.433594 C 13.746094 59.292969 13.71875 59.148438 13.71875 59 C 13.71875 58.851562 13.746094 58.707031 13.804688 58.566406 C 13.863281 58.429688 13.945312 58.304688 14.050781 58.199219 C 14.15625 58.09375 14.28125 58.011719 14.417969 57.953125 C 14.558594 57.898438 14.703125 57.867188 14.851562 57.867188 C 15 57.867188 15.144531 57.898438 15.285156 57.953125 C 15.421875 58.011719 15.546875 58.09375 15.652344 58.199219 C 15.757812 58.304688 15.839844 58.429688 15.898438 58.566406 C 15.953125 58.707031 15.984375 58.851562 15.984375 59 Z M 15.984375 59 " fill-opacity="1" fill-rule="nonzero"/><path fill="#6c3249" d="M 61.269531 29.5625 C 61.269531 29.714844 61.242188 29.859375 61.183594 29.996094 C 61.125 30.136719 61.042969 30.257812 60.9375 30.363281 C 60.832031 30.46875 60.710938 30.550781 60.570312 30.609375 C 60.433594 30.667969 60.289062 30.695312 60.136719 30.695312 C 59.988281 30.695312 59.84375 30.667969 59.703125 30.609375 C 59.566406 30.550781 59.445312 30.46875 59.335938 30.363281 C 59.230469 30.257812 59.148438 30.136719 59.09375 29.996094 C 59.035156 29.859375 59.003906 29.714844 59.003906 29.5625 C 59.003906 29.414062 59.035156 29.269531 59.09375 29.128906 C 59.148438 28.992188 59.230469 28.871094 59.335938 28.761719 C 59.445312 28.65625 59.566406 28.574219 59.703125 28.519531 C 59.84375 28.460938 59.988281 28.433594 60.136719 28.433594 C 60.289062 28.433594 60.433594 28.460938 60.570312 28.519531 C 60.710938 28.574219 60.832031 28.65625 60.9375 28.761719 C 61.042969 28.871094 61.125 28.992188 61.183594 29.128906 C 61.242188 29.269531 61.269531 29.414062 61.269531 29.5625 Z M 61.269531 29.5625 " fill-opacity="1" fill-rule="nonzero"/><g clip-path="url(#a6bccfabae)"><path fill="#6c3249" d="M 62.402344 8.054688 L 59.003906 8.054688 L 59.003906 7.488281 C 59.003906 7.226562 58.980469 6.96875 58.929688 6.714844 C 58.878906 6.457031 58.804688 6.210938 58.703125 5.96875 C 58.605469 5.730469 58.484375 5.5 58.339844 5.285156 C 58.195312 5.070312 58.027344 4.867188 57.84375 4.683594 C 57.660156 4.5 57.460938 4.335938 57.246094 4.191406 C 57.027344 4.046875 56.800781 3.925781 56.558594 3.824219 C 56.320312 3.726562 56.070312 3.652344 55.816406 3.601562 C 55.5625 3.550781 55.304688 3.523438 55.042969 3.523438 C 54.78125 3.523438 54.523438 3.550781 54.269531 3.601562 C 54.015625 3.652344 53.765625 3.726562 53.527344 3.824219 C 53.285156 3.925781 53.058594 4.046875 52.839844 4.191406 C 52.625 4.335938 52.425781 4.5 52.242188 4.683594 C 52.058594 4.867188 51.894531 5.070312 51.75 5.285156 C 51.605469 5.5 51.480469 5.730469 51.382812 5.96875 C 51.28125 6.210938 51.207031 6.457031 51.15625 6.714844 C 51.105469 6.96875 51.082031 7.226562 51.082031 7.488281 L 51.082031 8.054688 L 41.457031 8.054688 L 41.457031 7.488281 C 41.457031 7.226562 41.433594 6.96875 41.382812 6.714844 C 41.332031 6.457031 41.253906 6.210938 41.15625 5.96875 C 41.054688 5.730469 40.933594 5.5 40.789062 5.285156 C 40.644531 5.070312 40.480469 4.867188 40.296875 4.683594 C 40.113281 4.5 39.914062 4.335938 39.695312 4.191406 C 39.480469 4.046875 39.25 3.925781 39.011719 3.824219 C 38.769531 3.726562 38.523438 3.652344 38.269531 3.601562 C 38.011719 3.550781 37.753906 3.523438 37.496094 3.523438 C 37.234375 3.523438 36.976562 3.550781 36.722656 3.601562 C 36.464844 3.652344 36.21875 3.726562 35.976562 3.824219 C 35.738281 3.925781 35.507812 4.046875 35.292969 4.191406 C 35.078125 4.335938 34.875 4.5 34.691406 4.683594 C 34.507812 4.867188 34.34375 5.070312 34.199219 5.285156 C 34.054688 5.5 33.933594 5.730469 33.832031 5.96875 C 33.734375 6.210938 33.660156 6.457031 33.609375 6.714844 C 33.558594 6.96875 33.53125 7.226562 33.53125 7.488281 L 33.53125 8.054688 L 23.910156 8.054688 L 23.910156 7.488281 C 23.910156 7.226562 23.882812 6.96875 23.832031 6.714844 C 23.78125 6.457031 23.707031 6.210938 23.605469 5.96875 C 23.507812 5.730469 23.386719 5.5 23.242188 5.285156 C 23.097656 5.070312 22.933594 4.867188 22.75 4.683594 C 22.5625 4.5 22.363281 4.335938 22.148438 4.191406 C 21.929688 4.046875 21.703125 3.925781 21.460938 3.824219 C 21.222656 3.726562 20.972656 3.652344 20.71875 3.601562 C 20.464844 3.550781 20.207031 3.523438 19.945312 3.523438 C 19.6875 3.523438 19.429688 3.550781 19.171875 3.601562 C 18.917969 3.652344 18.671875 3.726562 18.429688 3.824219 C 18.1875 3.925781 17.960938 4.046875 17.746094 4.191406 C 17.527344 4.335938 17.328125 4.5 17.144531 4.683594 C 16.960938 4.867188 16.796875 5.070312 16.652344 5.285156 C 16.507812 5.5 16.386719 5.730469 16.285156 5.96875 C 16.1875 6.210938 16.109375 6.457031 16.058594 6.714844 C 16.007812 6.96875 15.984375 7.226562 15.984375 7.488281 L 15.984375 8.054688 L 12.585938 8.054688 C 12.214844 8.054688 11.847656 8.089844 11.484375 8.164062 C 11.117188 8.234375 10.765625 8.34375 10.421875 8.484375 C 10.078125 8.628906 9.753906 8.800781 9.445312 9.007812 C 9.136719 9.214844 8.847656 9.449219 8.585938 9.710938 C 8.324219 9.976562 8.089844 10.261719 7.882812 10.570312 C 7.675781 10.878906 7.5 11.207031 7.359375 11.546875 C 7.214844 11.890625 7.109375 12.246094 7.035156 12.609375 C 6.964844 12.972656 6.925781 13.34375 6.925781 13.714844 L 6.925781 48.8125 C 6.925781 48.960938 6.953125 49.105469 7.011719 49.242188 C 7.070312 49.382812 7.152344 49.503906 7.257812 49.609375 C 7.363281 49.71875 7.488281 49.800781 7.625 49.855469 C 7.765625 49.914062 7.910156 49.941406 8.058594 49.941406 C 8.207031 49.941406 8.351562 49.914062 8.492188 49.855469 C 8.628906 49.800781 8.753906 49.71875 8.859375 49.609375 C 8.964844 49.503906 9.046875 49.382812 9.105469 49.242188 C 9.160156 49.105469 9.191406 48.960938 9.191406 48.8125 L 9.191406 23.902344 L 65.796875 23.902344 L 65.796875 51.074219 C 65.796875 51.226562 65.769531 51.371094 65.710938 51.507812 C 65.65625 51.648438 65.574219 51.769531 65.46875 51.875 C 65.359375 51.980469 65.238281 52.0625 65.101562 52.121094 C 64.960938 52.179688 64.816406 52.207031 64.667969 52.207031 L 59.003906 52.207031 C 58.632812 52.207031 58.265625 52.246094 57.902344 52.316406 C 57.539062 52.390625 57.183594 52.496094 56.839844 52.640625 C 56.496094 52.78125 56.171875 52.957031 55.863281 53.164062 C 55.554688 53.371094 55.269531 53.605469 55.003906 53.867188 C 54.742188 54.128906 54.507812 54.414062 54.300781 54.722656 C 54.09375 55.035156 53.921875 55.359375 53.777344 55.703125 C 53.636719 56.046875 53.527344 56.398438 53.453125 56.765625 C 53.382812 57.128906 53.34375 57.496094 53.34375 57.867188 L 53.34375 63.527344 C 53.34375 63.679688 53.316406 63.824219 53.257812 63.960938 C 53.203125 64.101562 53.121094 64.222656 53.011719 64.328125 C 52.90625 64.433594 52.785156 64.515625 52.644531 64.574219 C 52.507812 64.632812 52.363281 64.660156 52.210938 64.660156 L 12.585938 64.589844 C 12.136719 64.589844 11.703125 64.503906 11.289062 64.332031 C 10.871094 64.160156 10.503906 63.914062 10.183594 63.597656 C 9.867188 63.277344 9.621094 62.910156 9.449219 62.496094 C 9.277344 62.078125 9.191406 61.644531 9.191406 61.195312 L 9.191406 57.867188 C 9.191406 57.71875 9.160156 57.574219 9.105469 57.433594 C 9.046875 57.296875 8.964844 57.171875 8.859375 57.066406 C 8.753906 56.960938 8.628906 56.878906 8.492188 56.820312 C 8.351562 56.765625 8.207031 56.734375 8.058594 56.734375 C 7.910156 56.734375 7.765625 56.765625 7.625 56.820312 C 7.488281 56.878906 7.363281 56.960938 7.257812 57.066406 C 7.152344 57.171875 7.070312 57.296875 7.011719 57.433594 C 6.953125 57.574219 6.925781 57.71875 6.925781 57.867188 L 6.925781 65.792969 C 6.925781 66.164062 6.964844 66.53125 7.035156 66.898438 C 7.109375 67.261719 7.214844 67.613281 7.359375 67.957031 C 7.5 68.300781 7.675781 68.628906 7.882812 68.9375 C 8.089844 69.246094 8.324219 69.53125 8.585938 69.792969 C 8.847656 70.054688 9.136719 70.292969 9.445312 70.496094 C 9.753906 70.703125 10.078125 70.878906 10.421875 71.019531 C 10.765625 71.164062 11.117188 71.269531 11.484375 71.34375 C 11.847656 71.417969 12.214844 71.453125 12.585938 71.453125 L 62.402344 71.453125 C 62.773438 71.453125 63.140625 71.417969 63.507812 71.34375 C 63.871094 71.269531 64.222656 71.164062 64.566406 71.019531 C 64.910156 70.878906 65.238281 70.703125 65.546875 70.496094 C 65.855469 70.292969 66.140625 70.054688 66.402344 69.792969 C 66.664062 69.53125 66.898438 69.246094 67.105469 68.9375 C 67.3125 68.628906 67.488281 68.300781 67.628906 67.957031 C 67.773438 67.613281 67.878906 67.261719 67.953125 66.898438 C 68.027344 66.53125 68.0625 66.164062 68.0625 65.792969 L 68.0625 13.714844 C 68.0625 13.34375 68.027344 12.972656 67.953125 12.609375 C 67.878906 12.246094 67.773438 11.890625 67.628906 11.546875 C 67.488281 11.207031 67.3125 10.878906 67.105469 10.570312 C 66.898438 10.261719 66.664062 9.976562 66.402344 9.710938 C 66.140625 9.449219 65.855469 9.214844 65.546875 9.007812 C 65.238281 8.800781 64.910156 8.628906 64.566406 8.484375 C 64.222656 8.34375 63.871094 8.234375 63.507812 8.164062 C 63.140625 8.089844 62.773438 8.054688 62.402344 8.054688 Z M 53.34375 7.488281 C 53.34375 7.261719 53.386719 7.042969 53.472656 6.835938 C 53.558594 6.628906 53.683594 6.445312 53.84375 6.285156 C 54 6.125 54.183594 6.003906 54.394531 5.917969 C 54.601562 5.832031 54.816406 5.789062 55.042969 5.789062 C 55.269531 5.789062 55.484375 5.832031 55.691406 5.917969 C 55.902344 6.003906 56.085938 6.125 56.242188 6.285156 C 56.402344 6.445312 56.527344 6.628906 56.613281 6.835938 C 56.699219 7.042969 56.742188 7.261719 56.742188 7.488281 L 56.742188 12.015625 C 56.742188 12.242188 56.699219 12.457031 56.613281 12.664062 C 56.527344 12.875 56.402344 13.058594 56.242188 13.214844 C 56.085938 13.375 55.902344 13.5 55.691406 13.585938 C 55.484375 13.671875 55.269531 13.714844 55.042969 13.714844 C 54.816406 13.714844 54.601562 13.671875 54.394531 13.585938 C 54.183594 13.5 54 13.375 53.84375 13.214844 C 53.683594 13.058594 53.558594 12.875 53.472656 12.664062 C 53.386719 12.457031 53.34375 12.242188 53.34375 12.015625 Z M 35.796875 7.488281 C 35.796875 7.261719 35.839844 7.042969 35.925781 6.835938 C 36.011719 6.628906 36.132812 6.445312 36.292969 6.285156 C 36.453125 6.125 36.636719 6.003906 36.84375 5.917969 C 37.054688 5.832031 37.269531 5.789062 37.496094 5.789062 C 37.71875 5.789062 37.9375 5.832031 38.144531 5.917969 C 38.351562 6.003906 38.535156 6.125 38.695312 6.285156 C 38.855469 6.445312 38.976562 6.628906 39.0625 6.835938 C 39.148438 7.042969 39.191406 7.261719 39.191406 7.488281 L 39.191406 12.015625 C 39.191406 12.242188 39.148438 12.457031 39.0625 12.664062 C 38.976562 12.875 38.855469 13.058594 38.695312 13.214844 C 38.535156 13.375 38.351562 13.5 38.144531 13.585938 C 37.9375 13.671875 37.71875 13.714844 37.496094 13.714844 C 37.269531 13.714844 37.054688 13.671875 36.84375 13.585938 C 36.636719 13.5 36.453125 13.375 36.292969 13.214844 C 36.132812 13.058594 36.011719 12.875 35.925781 12.664062 C 35.839844 12.457031 35.796875 12.242188 35.796875 12.015625 Z M 18.246094 7.488281 C 18.246094 7.261719 18.289062 7.042969 18.378906 6.835938 C 18.464844 6.628906 18.585938 6.445312 18.746094 6.285156 C 18.90625 6.125 19.089844 6.003906 19.296875 5.917969 C 19.503906 5.832031 19.722656 5.789062 19.945312 5.789062 C 20.171875 5.789062 20.386719 5.832031 20.597656 5.917969 C 20.804688 6.003906 20.988281 6.125 21.148438 6.285156 C 21.304688 6.445312 21.429688 6.628906 21.515625 6.835938 C 21.601562 7.042969 21.644531 7.261719 21.644531 7.488281 L 21.644531 12.015625 C 21.644531 12.242188 21.601562 12.457031 21.515625 12.664062 C 21.429688 12.875 21.304688 13.058594 21.148438 13.214844 C 20.988281 13.375 20.804688 13.5 20.597656 13.585938 C 20.386719 13.671875 20.171875 13.714844 19.945312 13.714844 C 19.722656 13.714844 19.503906 13.671875 19.296875 13.585938 C 19.089844 13.5 18.90625 13.375 18.746094 13.214844 C 18.585938 13.058594 18.464844 12.875 18.378906 12.664062 C 18.289062 12.457031 18.246094 12.242188 18.246094 12.015625 Z M 9.191406 21.640625 L 9.191406 13.714844 C 9.191406 13.261719 9.277344 12.828125 9.449219 12.414062 C 9.621094 11.996094 9.867188 11.628906 10.183594 11.3125 C 10.503906 10.992188 10.871094 10.746094 11.289062 10.574219 C 11.703125 10.402344 12.136719 10.316406 12.585938 10.316406 L 15.984375 10.316406 L 15.984375 12.015625 C 15.984375 12.277344 16.007812 12.53125 16.058594 12.789062 C 16.109375 13.042969 16.1875 13.292969 16.285156 13.53125 C 16.386719 13.773438 16.507812 14 16.652344 14.21875 C 16.796875 14.433594 16.960938 14.632812 17.144531 14.816406 C 17.328125 15 17.527344 15.164062 17.746094 15.308594 C 17.960938 15.453125 18.1875 15.578125 18.429688 15.675781 C 18.671875 15.777344 18.917969 15.851562 19.171875 15.902344 C 19.429688 15.953125 19.6875 15.976562 19.945312 15.976562 C 20.207031 15.976562 20.464844 15.953125 20.71875 15.902344 C 20.972656 15.851562 21.222656 15.777344 21.460938 15.675781 C 21.703125 15.578125 21.929688 15.453125 22.148438 15.308594 C 22.363281 15.164062 22.5625 15 22.75 14.816406 C 22.933594 14.632812 23.097656 14.433594 23.242188 14.21875 C 23.386719 14 23.507812 13.773438 23.605469 13.53125 C 23.707031 13.292969 23.78125 13.042969 23.832031 12.789062 C 23.882812 12.53125 23.910156 12.277344 23.910156 12.015625 L 23.910156 10.316406 L 33.53125 10.316406 L 33.53125 12.015625 C 33.53125 12.277344 33.558594 12.53125 33.609375 12.789062 C 33.660156 13.042969 33.734375 13.292969 33.832031 13.53125 C 33.933594 13.773438 34.054688 14 34.199219 14.21875 C 34.34375 14.433594 34.507812 14.632812 34.691406 14.816406 C 34.875 15 35.078125 15.164062 35.292969 15.308594 C 35.507812 15.453125 35.738281 15.578125 35.976562 15.675781 C 36.21875 15.777344 36.464844 15.851562 36.722656 15.902344 C 36.976562 15.953125 37.234375 15.976562 37.496094 15.976562 C 37.753906 15.976562 38.011719 15.953125 38.269531 15.902344 C 38.523438 15.851562 38.769531 15.777344 39.011719 15.675781 C 39.25 15.578125 39.480469 15.453125 39.695312 15.308594 C 39.914062 15.164062 40.113281 15 40.296875 14.816406 C 40.480469 14.632812 40.644531 14.433594 40.789062 14.21875 C 40.933594 14 41.054688 13.773438 41.15625 13.53125 C 41.253906 13.292969 41.332031 13.042969 41.382812 12.789062 C 41.433594 12.53125 41.457031 12.277344 41.457031 12.015625 L 41.457031 10.316406 L 51.082031 10.316406 L 51.082031 12.015625 C 51.082031 12.277344 51.105469 12.53125 51.15625 12.789062 C 51.207031 13.042969 51.28125 13.292969 51.382812 13.53125 C 51.480469 13.773438 51.605469 14 51.75 14.21875 C 51.894531 14.433594 52.058594 14.632812 52.242188 14.816406 C 52.425781 15 52.625 15.164062 52.839844 15.308594 C 53.058594 15.453125 53.285156 15.578125 53.527344 15.675781 C 53.765625 15.777344 54.015625 15.851562 54.269531 15.902344 C 54.523438 15.953125 54.78125 15.976562 55.042969 15.976562 C 55.304688 15.976562 55.5625 15.953125 55.816406 15.902344 C 56.070312 15.851562 56.320312 15.777344 56.558594 15.675781 C 56.800781 15.578125 57.027344 15.453125 57.246094 15.308594 C 57.460938 15.164062 57.660156 15 57.84375 14.816406 C 58.027344 14.632812 58.195312 14.433594 58.339844 14.21875 C 58.484375 14 58.605469 13.773438 58.703125 13.53125 C 58.804688 13.292969 58.878906 13.042969 58.929688 12.789062 C 58.980469 12.53125 59.003906 12.277344 59.003906 12.015625 L 59.003906 10.316406 L 62.402344 10.316406 C 62.851562 10.316406 63.285156 10.402344 63.703125 10.574219 C 64.117188 10.746094 64.484375 10.992188 64.804688 11.3125 C 65.121094 11.628906 65.367188 11.996094 65.539062 12.414062 C 65.710938 12.828125 65.796875 13.261719 65.796875 13.714844 L 65.796875 21.640625 Z M 55.609375 57.867188 C 55.609375 57.417969 55.695312 56.984375 55.867188 56.566406 C 56.039062 56.152344 56.285156 55.785156 56.605469 55.464844 C 56.921875 55.148438 57.289062 54.902344 57.707031 54.730469 C 58.121094 54.558594 58.554688 54.472656 59.003906 54.472656 L 64.199219 54.472656 L 55.609375 63.0625 Z M 62.402344 69.191406 L 12.585938 69.191406 C 12.128906 69.1875 11.6875 69.097656 11.265625 68.917969 C 10.84375 68.742188 10.472656 68.488281 10.152344 68.15625 C 9.832031 67.828125 9.589844 67.449219 9.421875 67.023438 C 9.253906 66.59375 9.179688 66.152344 9.191406 65.695312 C 10.1875 66.460938 11.316406 66.847656 12.578125 66.855469 L 52.585938 66.925781 C 53.339844 66.925781 54.066406 66.78125 54.761719 66.492188 C 55.460938 66.207031 56.074219 65.796875 56.609375 65.265625 L 65.796875 56.074219 L 65.796875 65.792969 C 65.796875 66.242188 65.710938 66.675781 65.539062 67.09375 C 65.367188 67.507812 65.121094 67.875 64.804688 68.195312 C 64.484375 68.511719 64.117188 68.757812 63.703125 68.929688 C 63.285156 69.101562 62.851562 69.191406 62.402344 69.191406 Z M 62.402344 69.191406 " fill-opacity="1" fill-rule="nonzero"/></g><g clip-path="url(#5d66234dc3)"><path fill="#6c3249" d="M 9.191406 53.339844 C 9.191406 53.488281 9.160156 53.632812 9.105469 53.773438 C 9.046875 53.910156 8.964844 54.035156 8.859375 54.140625 C 8.753906 54.246094 8.628906 54.328125 8.492188 54.386719 C 8.351562 54.441406 8.207031 54.472656 8.058594 54.472656 C 7.910156 54.472656 7.765625 54.441406 7.625 54.386719 C 7.488281 54.328125 7.363281 54.246094 7.257812 54.140625 C 7.152344 54.035156 7.070312 53.910156 7.011719 53.773438 C 6.953125 53.632812 6.925781 53.488281 6.925781 53.339844 C 6.925781 53.1875 6.953125 53.042969 7.011719 52.90625 C 7.070312 52.765625 7.152344 52.644531 7.257812 52.539062 C 7.363281 52.433594 7.488281 52.351562 7.625 52.292969 C 7.765625 52.234375 7.910156 52.207031 8.058594 52.207031 C 8.207031 52.207031 8.351562 52.234375 8.492188 52.292969 C 8.628906 52.351562 8.753906 52.433594 8.859375 52.539062 C 8.964844 52.644531 9.046875 52.765625 9.105469 52.90625 C 9.160156 53.042969 9.191406 53.1875 9.191406 53.339844 Z M 9.191406 53.339844 " fill-opacity="1" fill-rule="nonzero"/></g></svg>